<svg width="358" height="56" viewBox="0 0 358 56" fill="none" xmlns="http://www.w3.org/2000/svg">
<path fill-rule="evenodd" clip-rule="evenodd" d="M346.389 30.387C349.51 30.387 352.053 27.3398 352.053 23.5903C352.053 19.8408 349.51 16.7936 346.389 16.7936C343.268 16.7936 340.725 19.8408 340.725 23.5903C340.725 27.3398 343.274 30.387 346.389 30.387ZM346.389 18.4928C348.581 18.4928 350.354 20.7583 350.354 23.5903C350.354 26.4223 348.581 28.6878 346.389 28.6878C344.197 28.6878 342.424 26.4223 342.424 23.5903C342.424 20.7583 344.197 18.4928 346.389 18.4928Z" fill="#989BA5"/>
<path fill-rule="evenodd" clip-rule="evenodd" d="M351.571 29.8206C351.102 29.7737 350.684 30.116 350.637 30.5852C350.59 31.0545 350.932 31.4729 351.402 31.5198C354.036 31.8294 356.078 33.9707 356.261 36.6173H336.517C336.718 33.9784 338.75 31.8464 341.376 31.5198C341.846 31.4729 342.188 31.0545 342.141 30.5852C342.094 30.116 341.676 29.7737 341.206 29.8206C341.144 29.8206 334.778 30.5456 334.778 37.4613C334.778 37.9305 335.158 38.3108 335.627 38.3108H357.15C357.62 38.3108 358 37.9305 358 37.4613C358 30.5456 351.634 29.8206 351.571 29.8206Z" fill="#989BA5"/>
<path fill-rule="evenodd" clip-rule="evenodd" d="M239.669 55.2233C254.919 55.2233 267.281 42.8612 267.281 27.6117C267.281 12.3622 254.919 0 239.669 0C224.42 0 212.058 12.3622 212.058 27.6117C212.058 42.8612 224.42 55.2233 239.669 55.2233Z" fill="#D9E4FF"/>
<path fill-rule="evenodd" clip-rule="evenodd" d="M249.396 37.271L244.42 32.322C247.907 28.814 248.013 23.1828 244.661 19.5457C241.309 15.9087 235.688 15.5554 231.908 18.7443C228.127 21.9332 227.528 27.5334 230.547 31.4503C233.567 35.3672 239.136 36.2119 243.182 33.3668L248.254 38.4395C248.573 38.7361 249.069 38.7273 249.376 38.4197C249.684 38.1121 249.693 37.6162 249.396 37.2979V37.271ZM230.381 25.8599C230.381 21.6962 233.756 18.3208 237.92 18.3208C242.084 18.3208 245.459 21.6962 245.459 25.8599C245.459 30.0237 242.084 33.3991 237.92 33.3991C233.756 33.3991 230.381 30.0237 230.381 25.8599Z" fill="#504DE5"/>
<path fill-rule="evenodd" clip-rule="evenodd" d="M139.894 27.4696C139.674 27.2495 139.383 27.1216 139.078 27.1216C138.744 27.1216 138.453 27.2495 138.247 27.4696C138.026 27.6685 137.913 27.9668 137.913 28.2864C137.913 28.6061 138.026 28.8902 138.247 29.1033C138.453 29.3163 138.744 29.4371 139.078 29.4371C139.383 29.4371 139.674 29.3163 139.894 29.1033C140.1 28.8902 140.228 28.6061 140.228 28.2864C140.228 27.9668 140.1 27.6685 139.894 27.4696ZM119.616 17.739H118.934C118.735 17.739 118.572 17.8171 118.444 17.9378C118.323 18.0657 118.252 18.229 118.252 18.4137C118.252 18.6055 118.323 18.7831 118.444 18.9038C118.572 19.0317 118.735 19.1027 118.934 19.1027H119.616V17.739ZM139.078 25.1683C139.923 25.1683 140.704 25.5164 141.265 26.0846C141.826 26.6528 142.174 27.4128 142.174 28.2864C142.174 29.1458 141.826 29.9271 141.265 30.4882C140.704 31.0494 139.923 31.3974 139.078 31.3974C138.204 31.3974 137.423 31.0494 136.861 30.4882C136.67 30.2965 136.492 30.0621 136.35 29.8277C135.988 30.1189 135.668 30.4811 135.427 30.8718C135.008 31.5323 134.759 32.3207 134.759 33.166V33.1802V33.1944V33.2086C134.745 34.7143 134.134 36.0567 133.147 37.0582C132.16 38.0384 130.796 38.6563 129.283 38.6563C127.77 38.6563 126.392 38.0384 125.412 37.0582C124.41 36.0567 123.8 34.693 123.8 33.1802V30.5451C122.01 30.3959 120.419 29.6217 119.218 28.4285C117.89 27.1074 117.073 25.2749 117.073 23.2506V18.4492V18.4137C117.073 17.9094 117.279 17.4548 117.627 17.121C117.961 16.773 118.423 16.567 118.934 16.567H120.206C120.518 16.567 120.795 16.8298 120.795 17.1494V17.1636V19.6851C120.795 20.0118 120.518 20.2817 120.206 20.2817H120.184H119.027V23.2506C119.027 24.728 119.623 26.0704 120.596 27.0363C121.569 28.0094 122.912 28.6202 124.375 28.6202H125.966C127.436 28.6202 128.786 28.0094 129.752 27.0363C130.718 26.0704 131.314 24.728 131.314 23.2506V20.2817H130.164H130.149C129.823 20.2817 129.56 20.0118 129.56 19.6851V17.1636V17.1494C129.56 16.8298 129.823 16.567 130.149 16.567H131.421C131.932 16.567 132.401 16.773 132.735 17.121C133.069 17.4548 133.275 17.9094 133.275 18.4137V18.4492V23.2506C133.275 25.2749 132.458 27.1074 131.13 28.4285C129.809 29.7425 127.976 30.5664 125.966 30.5664H124.965V33.1802C124.965 34.3663 125.455 35.4459 126.222 36.2201C127.017 37.0014 128.09 37.4844 129.283 37.4844C130.476 37.4844 131.534 37.0014 132.323 36.2201C133.097 35.4459 133.58 34.3805 133.58 33.1944V33.1802V33.166C133.594 32.0864 133.9 31.092 134.425 30.2468C134.823 29.6217 135.349 29.0677 135.967 28.6558C135.967 28.5279 135.952 28.4001 135.952 28.2864C135.952 27.4128 136.3 26.6528 136.861 26.0846C137.423 25.5164 138.204 25.1683 139.078 25.1683ZM131.421 17.739H130.739V19.1027H131.421C131.613 19.1027 131.776 19.0317 131.904 18.9038C132.025 18.7831 132.11 18.6055 132.11 18.4137C132.11 18.229 132.025 18.0657 131.904 17.9378C131.776 17.8171 131.613 17.739 131.421 17.739Z" fill="#989BA5"/>
<path fill-rule="evenodd" clip-rule="evenodd" d="M22.9854 25.5725L12.8222 16.9505C12.2191 16.4392 11.3346 16.4392 10.7314 16.9505L0.568249 25.5725C0.0635535 26.0025 -0.1274 26.6971 0.0865471 27.3247C0.300494 27.9522 0.875959 28.3855 1.53822 28.4177V37.0397C1.53822 37.9325 2.26201 38.6563 3.15484 38.6563H20.3988C21.2916 38.6563 22.0154 37.9325 22.0154 37.0397V28.4231C22.6777 28.3909 23.2531 27.9576 23.4671 27.33C23.681 26.7025 23.4901 26.0079 22.9854 25.5779V25.5725ZM11.2379 37.0451H10.1602V32.1952H13.3934V37.0451H11.2379ZM20.3988 26.8065V37.0451H15.01V32.1953C15.01 31.3024 14.2863 30.5786 13.3934 30.5786H10.1602C9.26735 30.5786 8.54356 31.3024 8.54356 32.1953V37.0451H3.15483V26.8065H1.61365L11.7768 18.1846L21.94 26.8065H20.3988Z" fill="#989BA5"/>
</svg>
