<svg width="29" height="29" viewBox="0 0 29 29" fill="none" xmlns="http://www.w3.org/2000/svg">
<path d="M7.10566 27.9884H21.2415C24.9643 27.9884 26.448 25.7089 26.6234 22.9303L27.3248 11.7889C27.5136 8.87536 25.1936 6.40699 22.2666 6.40699C21.4438 6.40699 20.6885 5.93489 20.3108 5.20652L19.3396 3.2507C18.7192 2.02326 17.1006 1.01163 15.7247 1.01163H12.6359C11.2466 1.01163 9.62799 2.02326 9.00752 3.2507L8.03636 5.20652C7.65868 5.93489 6.90333 6.40699 6.08054 6.40699C3.15356 6.40699 0.833556 8.87536 1.02239 11.7889L1.72379 22.9303C1.88565 25.7089 3.38286 27.9884 7.10566 27.9884Z" stroke="#247CFF" stroke-width="2" stroke-linecap="round" stroke-linejoin="round"/>
<path d="M12.1502 9.10466H16.1967" stroke="#247CFF" stroke-width="2" stroke-linecap="round" stroke-linejoin="round"/>
<path d="M14.1735 22.593C16.5879 22.593 18.5572 20.6237 18.5572 18.2093C18.5572 15.7949 16.5879 13.8256 14.1735 13.8256C11.7591 13.8256 9.78979 15.7949 9.78979 18.2093C9.78979 20.6237 11.7591 22.593 14.1735 22.593Z" stroke="#247CFF" stroke-width="2" stroke-linecap="round" stroke-linejoin="round"/>
</svg>
