<svg width="310" height="173" viewBox="0 0 310 173" fill="none" xmlns="http://www.w3.org/2000/svg">
<path d="M302.103 66.9318L298.816 75.3397L301.146 76.2504L304.433 67.8425L302.103 66.9318Z" fill="#0E82FD"/>
<path d="M96.8099 46.3143L94.9464 47.9832L100.969 54.7079L102.833 53.0389L96.8099 46.3143Z" fill="black"/>
<path d="M124.422 76.4128L117.197 81.8248L118.697 83.8273L125.922 78.4153L124.422 76.4128Z" fill="#0E82FD"/>
<path d="M207.99 14.3076L206.275 16.1294L212.85 22.3161L214.564 20.4943L207.99 14.3076Z" fill="#0E82FD"/>
<path d="M160.184 16.3194L155.685 24.146L157.854 25.3928L162.353 17.5662L160.184 16.3194Z" fill="black"/>
<path d="M225.521 83.2496L223.405 84.5846L228.223 92.219L230.338 90.884L225.521 83.2496Z" fill="black"/>
<path d="M127.422 120.425L125.184 121.543L129.218 129.619L131.456 128.501L127.422 120.425Z" fill="black"/>
<path d="M94.6803 99.1767L92.088 107.824L94.484 108.542L97.0763 99.895L94.6803 99.1767Z" fill="#0E82FD"/>
<path d="M251.282 126.122L243.784 131.15L245.177 133.228L252.675 128.2L251.282 126.122Z" fill="#0E82FD"/>
<path d="M252.404 5.31291e-05L247.905 7.82643L250.074 9.07319L254.573 1.24682L252.404 5.31291e-05Z" fill="black"/>
<path d="M2.32996 64.0284L0 64.9391L3.28641 73.347L5.61637 72.4363L2.32996 64.0284Z" fill="black"/>
<path d="M244.195 53.6412L242.695 55.6436L249.92 61.0557L251.42 59.0532L244.195 53.6412Z" fill="black"/>
<path d="M41.2392 16.7557L34.6646 22.9424L36.379 24.7643L42.9535 18.5776L41.2392 16.7557Z" fill="#0E82FD"/>
<path d="M114.06 9.38847L111.891 10.6353L116.391 18.4619L118.559 17.2151L114.06 9.38847Z" fill="#0E82FD"/>
<path d="M25.6004 107.655L20.7827 115.289L22.8983 116.625L27.716 108.99L25.6004 107.655Z" fill="black"/>
<path d="M4.26108 128.569L2.86768 130.647L10.3695 135.676L11.7629 133.597L4.26108 128.569Z" fill="#0E82FD"/>
<path d="M293.685 28.8724L291.516 30.1192L296.015 37.9456L298.184 36.6988L293.685 28.8724Z" fill="#0E82FD"/>
<path d="M199.694 50.2012L193.672 56.9259L195.535 58.5948L201.558 51.8702L199.694 50.2012Z" fill="#0E82FD"/>
<path d="M146.822 125.999L142.788 134.075L145.026 135.193L149.06 127.117L146.822 125.999Z" fill="black"/>
<path d="M179.565 104.751L177.169 105.47L179.761 114.117L182.157 113.399L179.565 104.751Z" fill="#0E82FD"/>
<path d="M180.371 109.686L171.845 103.205C171.657 103.062 171.442 102.961 171.214 102.906C170.985 102.851 170.747 102.845 170.515 102.887C170.284 102.929 170.064 103.019 169.869 103.151C169.674 103.283 169.509 103.454 169.384 103.653C169.164 104.028 169.092 104.472 169.18 104.897C169.269 105.323 169.512 105.7 169.864 105.956L171.692 107.346L163.937 105.615C163.078 105.407 161.891 105.702 161.722 106.681C161.632 107.053 161.671 107.445 161.833 107.792C161.995 108.14 162.269 108.422 162.612 108.593C162.608 108.601 162.605 108.609 162.602 108.617C162.602 108.624 162.602 108.63 162.602 108.636L161.278 108.317C161.032 108.257 160.777 108.254 160.53 108.306C160.283 108.358 160.051 108.465 159.85 108.618C159.65 108.771 159.486 108.967 159.371 109.192C159.255 109.416 159.192 109.664 159.184 109.916C159.181 110.314 159.314 110.7 159.561 111.011C159.808 111.323 160.155 111.54 160.543 111.626L161.106 111.762C161.109 111.78 161.116 111.797 161.126 111.813C160.724 111.81 160.333 111.949 160.025 112.207C159.716 112.465 159.509 112.824 159.441 113.22C159.379 113.656 159.484 114.099 159.734 114.461C159.984 114.823 160.362 115.078 160.792 115.174L162.192 115.512C162.169 115.521 162.148 115.536 162.132 115.554C162.116 115.573 162.104 115.595 162.098 115.619C162.093 115.649 162.096 115.679 162.107 115.706C161.748 115.802 161.43 116.014 161.203 116.308C160.976 116.602 160.852 116.963 160.85 117.335C160.855 117.725 160.993 118.102 161.239 118.405C161.486 118.708 161.828 118.918 162.209 119.003L174.021 121.856C175.674 122.255 177.408 122.152 179.001 121.559C180.594 120.966 181.975 119.911 182.965 118.529C183.818 117.338 184.173 115.86 183.955 114.411C183.736 112.961 182.961 111.654 181.794 110.767L180.371 109.686Z" fill="#FFCEA9"/>
<g opacity="0.2">
<path d="M170.28 110.345C170.27 110.385 170.245 110.419 170.21 110.44C170.175 110.462 170.133 110.469 170.093 110.46L162.72 108.803C162.7 108.798 162.681 108.79 162.664 108.778C162.647 108.766 162.633 108.751 162.622 108.734C162.611 108.716 162.604 108.697 162.6 108.677C162.597 108.656 162.597 108.636 162.602 108.616C162.606 108.596 162.615 108.577 162.627 108.56C162.638 108.543 162.653 108.529 162.671 108.518C162.688 108.507 162.707 108.499 162.728 108.496C162.748 108.492 162.769 108.493 162.789 108.497L170.162 110.155C170.182 110.159 170.201 110.168 170.218 110.18C170.235 110.191 170.249 110.207 170.26 110.224C170.271 110.241 170.278 110.261 170.282 110.281C170.285 110.301 170.285 110.322 170.28 110.342L170.28 110.345Z" fill="#0C0C0C"/>
</g>
<g opacity="0.2">
<path d="M169.639 113.617C169.629 113.657 169.604 113.692 169.569 113.713C169.534 113.735 169.491 113.741 169.451 113.732L161.223 111.884C161.202 111.879 161.183 111.871 161.167 111.859C161.15 111.847 161.135 111.832 161.124 111.815C161.113 111.797 161.106 111.778 161.103 111.757C161.099 111.737 161.1 111.716 161.104 111.696C161.115 111.656 161.14 111.622 161.175 111.6C161.21 111.578 161.252 111.57 161.292 111.578L169.521 113.426C169.541 113.431 169.56 113.439 169.577 113.451C169.594 113.463 169.608 113.478 169.619 113.495C169.63 113.513 169.637 113.532 169.641 113.553C169.644 113.573 169.644 113.594 169.639 113.614V113.617Z" fill="#0C0C0C"/>
</g>
<g opacity="0.2">
<path d="M168.966 117.165C168.956 117.205 168.931 117.239 168.896 117.26C168.861 117.282 168.819 117.289 168.78 117.28L162.216 115.806C162.175 115.797 162.14 115.772 162.118 115.737C162.096 115.702 162.088 115.659 162.097 115.619C162.106 115.578 162.131 115.543 162.166 115.521C162.201 115.499 162.244 115.491 162.284 115.501L168.848 116.975C168.868 116.979 168.887 116.988 168.904 116.999C168.921 117.011 168.935 117.026 168.946 117.044C168.957 117.061 168.965 117.081 168.968 117.101C168.972 117.121 168.971 117.142 168.967 117.162L168.966 117.165Z" fill="#0C0C0C"/>
</g>
<path d="M139.891 65.1059L144.651 55.5119C144.756 55.301 144.903 55.1143 145.084 54.9636C145.265 54.8129 145.475 54.7014 145.701 54.6363C145.927 54.5713 146.164 54.554 146.398 54.5857C146.631 54.6173 146.855 54.6972 147.055 54.8202C147.419 55.0586 147.681 55.4235 147.791 55.8442C147.901 56.2648 147.85 56.7113 147.65 57.0969L146.629 59.1542L152.807 54.1594C153.485 53.5919 154.679 53.3289 155.265 54.1306C155.511 54.4244 155.65 54.7929 155.659 55.1758C155.669 55.5587 155.548 55.9336 155.317 56.2392C155.324 56.2443 155.331 56.25 155.336 56.2564C155.34 56.2619 155.343 56.2676 155.345 56.2736L156.39 55.398C156.584 55.2361 156.811 55.1193 157.055 55.0563C157.3 54.9933 157.555 54.9857 157.803 55.0339C158.051 55.0821 158.285 55.1849 158.487 55.335C158.69 55.485 158.857 55.6784 158.976 55.9012C159.156 56.2557 159.208 56.6612 159.125 57.0499C159.042 57.4386 158.828 57.7869 158.518 58.0366L158.074 58.409C158.079 58.4268 158.08 58.4454 158.079 58.4638C158.437 58.2819 158.849 58.2335 159.24 58.3273C159.631 58.4211 159.976 58.6509 160.213 58.9757C160.462 59.3388 160.565 59.7824 160.501 60.218C160.437 60.6536 160.212 61.0491 159.869 61.3256L158.765 62.2503C158.79 62.2481 158.815 62.2519 158.838 62.2614C158.861 62.2709 158.881 62.2857 158.897 62.3047C158.915 62.3284 158.926 62.3567 158.929 62.3863C159.293 62.3129 159.672 62.3614 160.006 62.5242C160.34 62.6869 160.611 62.955 160.778 63.2872C160.947 63.6396 160.991 64.0384 160.904 64.4192C160.818 64.7999 160.605 65.1403 160.301 65.3851L150.985 73.1883C149.682 74.28 148.083 74.9576 146.392 75.1343C144.701 75.311 142.996 74.9786 141.496 74.1799C140.202 73.4913 139.227 72.3254 138.779 70.9299C138.332 69.5344 138.445 68.0193 139.097 66.7063L139.891 65.1059Z" fill="#FFCEA9"/>
<g opacity="0.2">
<path d="M149.225 61.2134C149.252 61.2449 149.29 61.2647 149.331 61.2685C149.372 61.2723 149.412 61.2598 149.444 61.2337L155.315 56.475C155.347 56.4489 155.368 56.411 155.372 56.3698C155.376 56.3285 155.364 56.2872 155.338 56.255C155.312 56.2228 155.274 56.2023 155.233 56.198C155.191 56.1936 155.15 56.2059 155.118 56.232L149.247 60.9907C149.215 61.0168 149.195 61.0544 149.191 61.0954C149.186 61.1364 149.198 61.1775 149.224 61.2096L149.225 61.2134Z" fill="#0C0C0C"/>
</g>
<g opacity="0.2">
<path d="M151.252 63.8607C151.279 63.8922 151.317 63.9119 151.358 63.9157C151.399 63.9194 151.44 63.9069 151.471 63.8807L158.023 58.5701C158.055 58.544 158.075 58.5063 158.08 58.4654C158.084 58.4244 158.072 58.3833 158.046 58.3512C158.019 58.3204 157.982 58.3009 157.941 58.2966C157.9 58.2924 157.86 58.3036 157.827 58.3281L151.273 63.6378C151.241 63.6638 151.221 63.7015 151.216 63.7425C151.212 63.7834 151.224 63.8245 151.25 63.8567L151.252 63.8607Z" fill="#0C0C0C"/>
</g>
<g opacity="0.2">
<path d="M153.432 66.7399C153.458 66.7715 153.496 66.7913 153.537 66.7951C153.578 66.7989 153.619 66.7864 153.651 66.7603L158.877 62.5241C158.909 62.498 158.929 62.4601 158.934 62.4188C158.938 62.3776 158.926 62.3363 158.9 62.3041C158.874 62.2719 158.836 62.2513 158.794 62.247C158.753 62.2427 158.712 62.255 158.68 62.2811L153.452 66.5173C153.42 66.5434 153.4 66.581 153.396 66.622C153.391 66.663 153.403 66.704 153.429 66.7362L153.432 66.7399Z" fill="#0C0C0C"/>
</g>
<path d="M33.0527 56.88C33.0527 56.88 32.3813 66.9537 30.1152 70.6076C23.5903 81.1295 21.7 92.9659 28.234 99.1502C34.7679 105.335 76.4433 105.42 79.6007 91.1966C82.2587 79.2217 76.5547 77.934 75.1666 68.0566C74.5387 63.5868 72.811 54.2142 72.811 54.2142" fill="#0A0A0A"/>
<path d="M68.8145 89.1112C68.7426 89.1019 67.9443 102.348 52.5559 101.193C41.9027 100.395 38.1043 89.0918 37.8604 89.0918C39.009 88.8476 40.943 88.4927 41.4531 88.2203C43.1307 87.3191 45.2055 86.381 45.7471 83.1233C46.0598 81.2471 45.5298 71.6402 45.6927 69.7396L62.0452 73.3907C61.8166 77.403 60.2174 86.704 65.8226 88.3501C66.7551 88.6231 67.7598 88.8736 68.8145 89.1112Z" fill="#FFCEA9"/>
<path opacity="0.5" d="M62.2746 84.5496C62.0184 83.7241 61.8535 82.8731 61.7827 82.0117C61.603 80.046 61.6389 78.0666 61.8896 76.1088C58.5662 75.6601 55.4352 74.2883 52.8525 72.149C52.5489 73.2704 50.8787 78.1704 51.3412 79.2361C52.2146 81.2509 56.3213 84.5496 62.2746 84.5496Z" fill="#0C0C0C"/>
<path d="M60.16 80.4228C53.7127 81.0482 45.371 78.4678 43.643 69.8819L42.0839 62.135C40.3559 53.5495 43.4645 45.6819 51.5482 44.0549C59.6321 42.4288 67.0751 48.1716 68.8031 56.7575L69.4935 60.1872C70.1565 63.4815 71.6628 79.3096 60.16 80.4228Z" fill="#FFCEA9"/>
<path opacity="0.1" d="M56.0616 69.1718C57.1226 69.0452 57.9074 68.3117 57.8145 67.5335C57.7217 66.7553 56.7863 66.2271 55.7253 66.3537C54.6644 66.4802 53.8796 67.2137 53.9724 67.9919C54.0653 68.7701 55.0006 69.2984 56.0616 69.1718Z" fill="#0C0C0C"/>
<path opacity="0.1" d="M67.2726 66.0607C67.3664 66.8378 68.3029 67.3653 69.3639 67.2402C69.5473 67.2182 69.7278 67.1773 69.9027 67.118C69.9521 66.1914 69.9549 65.3002 69.928 64.475C69.6334 64.4013 69.3275 64.3833 69.0262 64.4222C67.9652 64.5472 67.1806 65.2805 67.2726 66.0607Z" fill="#0C0C0C"/>
<path opacity="0.5" d="M62.5845 68.4624C62.5897 68.4619 62.595 68.4611 62.6001 68.4599C62.9278 68.3917 63.2514 68.3053 63.5695 68.2013C64.0442 68.0425 64.664 67.7817 64.5789 67.3523C64.4807 66.8633 62.0773 61.8547 61.8046 61.2859C61.7934 61.2602 61.7772 61.2371 61.7569 61.2178C61.7365 61.1986 61.7125 61.1836 61.6863 61.1738C61.6601 61.1641 61.6321 61.1597 61.6042 61.161C61.5762 61.1622 61.5488 61.1691 61.5235 61.1812C61.4983 61.1934 61.4757 61.2104 61.4572 61.2315C61.4387 61.2525 61.4247 61.277 61.4159 61.3036C61.4071 61.3302 61.4038 61.3583 61.4061 61.3862C61.4084 61.4141 61.4163 61.4413 61.4294 61.466C62.4541 63.599 64.1045 67.1059 64.1708 67.4352C64.1189 67.5888 63.3315 67.8886 62.5188 68.0525C62.4919 68.0568 62.466 68.0665 62.4428 68.0808C62.4195 68.0951 62.3993 68.1139 62.3834 68.1361C62.3674 68.1582 62.3559 68.1833 62.3496 68.2098C62.3433 68.2364 62.3423 68.264 62.3467 68.2909C62.351 68.3179 62.3606 68.3437 62.375 68.367C62.3893 68.3902 62.4081 68.4104 62.4302 68.4264C62.4524 68.4424 62.4774 68.4538 62.504 68.4601C62.5306 68.4664 62.5581 68.4674 62.5851 68.4631L62.5845 68.4624Z" fill="#0C0C0C"/>
<path d="M35.6341 64.9164L42.8813 63.5008C48.3558 61.2115 49.909 51.6707 49.909 51.6707C49.909 51.6707 56.6652 58.1052 72.8126 54.2142C72.8126 54.2142 69.305 31.6727 45.462 38.5165C37.7742 40.7226 32.3285 48.559 33.1384 58.9382C33.706 66.2098 35.6341 64.9164 35.6341 64.9164Z" fill="#0A0A0A"/>
<path d="M44.6714 72.3966C42.2148 72.891 39.6944 70.6636 39.1991 68.2064C38.7038 65.7492 40.4236 63.9943 42.8802 63.4996L44.4775 64.8911L46.7831 71.971L44.6714 72.3966Z" fill="#FFCEA9"/>
<path d="M63.5461 57.2919C64.1607 56.8573 64.8795 56.5932 65.6293 56.5264C66.0061 56.4903 66.3862 56.5114 66.7566 56.589C67.1302 56.6651 67.4927 56.7878 67.8358 56.9542L67.8464 56.9592C67.8844 56.976 67.9275 56.9772 67.9664 56.9627C68.0053 56.9481 68.037 56.9189 68.0547 56.8813C68.0724 56.8437 68.0746 56.8007 68.061 56.7614C68.0474 56.7221 68.019 56.6898 67.9818 56.6712C67.6183 56.4793 67.2321 56.3339 66.8323 56.2384C66.4297 56.1405 66.0147 56.1038 65.6012 56.1293C64.7636 56.1756 63.9537 56.4455 63.2559 56.911C63.2299 56.9287 63.2076 56.9512 63.1903 56.9775C63.1731 57.0037 63.1611 57.0331 63.1552 57.064C63.1493 57.0949 63.1496 57.1266 63.156 57.1574C63.1623 57.1881 63.1747 57.2173 63.1924 57.2433C63.2101 57.2693 63.2327 57.2915 63.259 57.3087C63.2853 57.3259 63.3147 57.3378 63.3456 57.3436C63.3765 57.3494 63.4082 57.3491 63.439 57.3427C63.4697 57.3362 63.4989 57.3237 63.5248 57.306L63.5305 57.3022L63.5461 57.2919Z" fill="#0C0C0C"/>
<path d="M56.9259 58.2067C56.1029 58.0429 55.2511 58.1031 54.4593 58.3808C54.0679 58.5157 53.699 58.7084 53.3648 58.9528C53.032 59.194 52.7309 59.4762 52.4686 59.7927C52.4421 59.8242 52.4289 59.8647 52.4316 59.9057C52.4343 59.9468 52.4528 59.9852 52.4832 60.0129C52.5136 60.0405 52.5536 60.0554 52.5947 60.0543C52.6358 60.0532 52.6749 60.0362 52.7038 60.0069L52.7122 59.9981C52.9653 59.7131 53.2531 59.461 53.569 59.2477C53.8816 59.0344 54.2247 58.8696 54.5866 58.7589C55.3048 58.5333 56.07 58.502 56.8042 58.6682L56.8224 58.6729C56.884 58.6878 56.949 58.6777 57.0032 58.6447C57.0573 58.6116 57.0961 58.5585 57.111 58.4969C57.1259 58.4352 57.1158 58.3702 57.0828 58.3161C57.0497 58.262 56.9966 58.2232 56.935 58.2082L56.9259 58.2067Z" fill="#0C0C0C"/>
<path d="M42.8858 63.3813C47.7574 61.5676 49.3741 58.2036 49.8719 55.7001C50.1941 54.0304 50.164 52.3119 49.7834 50.6546L49.6327 50.6962C50.0076 52.3319 50.0365 54.0278 49.7178 55.6754C49.2262 58.1379 47.6327 61.4482 42.8311 63.2353L42.8858 63.3813Z" fill="#0C0C0C"/>
<path d="M81.3476 90.687L127.605 106.149L114.024 112.186L137.089 64.8678L155.94 73.6528L134.539 121.747C133.457 124.179 131.536 126.14 129.126 127.272C126.717 128.405 123.981 128.633 121.418 127.914L120.958 127.784L74.0006 114.6L81.3476 90.687Z" fill="#0E82FD"/>
<path d="M52.269 97.8818C41.6084 97.3793 41.1597 88.3309 41.1597 88.3309C41.1597 88.3309 35.8775 88.6724 32.3661 89.1474C26.6174 89.9251 22.825 91.8745 19.8068 94.8924C16.9993 97.7002 15.2901 100.738 17.0987 120.131C18.4083 134.173 17.4868 165.06 17.4868 165.06H82.4508C82.4508 165.06 86.9872 120.437 87.525 114.117C88.5513 102.05 91.451 99.3862 85.576 93.1703C81.3154 88.6624 70.3161 88.331 65.8888 88.3316C65.8166 88.3316 66.7872 98.5663 52.269 97.8818Z" fill="#0E82FD"/>
<path d="M64.7459 70.1549C62.6512 71.22 60.2612 71.5568 57.9537 71.1121C57.8738 71.0971 57.7913 71.1052 57.7158 71.1353C57.6403 71.1655 57.575 71.2165 57.5274 71.2824C57.4799 71.3483 57.452 71.4264 57.4471 71.5075C57.4423 71.5887 57.4606 71.6695 57.5 71.7406C58.1879 72.9527 59.8196 75.024 62.6189 74.1797C64.4263 73.6344 65.1096 71.775 65.3629 70.6246C65.3802 70.545 65.3745 70.4622 65.3463 70.3858C65.3182 70.3093 65.2688 70.2426 65.204 70.1932C65.1392 70.1439 65.0617 70.1141 64.9805 70.1073C64.8994 70.1005 64.818 70.117 64.7459 70.1549Z" fill="white"/>
<path d="M64.8771 60.8387C65.4361 60.8387 65.8893 60.3856 65.8893 59.8265C65.8893 59.2675 65.4361 58.8143 64.8771 58.8143C64.318 58.8143 63.8648 59.2675 63.8648 59.8265C63.8648 60.3856 64.318 60.8387 64.8771 60.8387Z" fill="#0C0C0C"/>
<path d="M55.1505 62.5414C55.7095 62.5414 56.1627 62.0882 56.1627 61.5292C56.1627 60.9701 55.7095 60.5169 55.1505 60.5169C54.5915 60.5169 54.1383 60.9701 54.1383 61.5292C54.1383 62.0882 54.5915 62.5414 55.1505 62.5414Z" fill="#0C0C0C"/>
<path d="M87.3804 118.514C87.3738 118.514 87.3672 118.514 87.3606 118.514C87.3196 118.508 87.2822 118.487 87.2568 118.455C87.2313 118.422 87.2199 118.381 87.2249 118.339L88.2309 110.185C88.233 110.164 88.2393 110.144 88.2493 110.126C88.2593 110.108 88.2729 110.093 88.2891 110.08C88.3054 110.067 88.324 110.058 88.344 110.053C88.3639 110.047 88.3847 110.046 88.4051 110.049C88.4255 110.052 88.4452 110.058 88.463 110.068C88.4809 110.078 88.4966 110.092 88.5093 110.108C88.5219 110.124 88.5312 110.143 88.5367 110.163C88.5421 110.183 88.5436 110.203 88.5411 110.224L87.5351 118.378C87.5301 118.415 87.5117 118.45 87.4832 118.475C87.4548 118.5 87.4182 118.514 87.3804 118.514Z" fill="#0C0C0C"/>
<path d="M251.82 55.5911C251.82 55.5911 247.945 51.2392 248.394 43.0892C248.742 36.7789 253.61 41.8822 253.61 41.8822C253.61 41.8822 253.905 37.3408 257.039 38.4221C260.174 39.5034 261.054 44.5111 261.054 44.5111" fill="#0C0C0C"/>
<path d="M273.598 42.2608C273.598 42.2608 289.25 47.1637 279.149 67.6835L277.715 67.4959L274.803 67.116" fill="#0C0C0C"/>
<path d="M251.332 89.078C251.404 89.0686 252.2 102.271 267.537 101.12C278.155 100.325 281.941 89.0595 282.184 89.0595C281.039 88.8159 279.112 88.4623 278.603 88.1908C276.931 87.2924 274.863 86.3578 274.324 83.111C274.013 81.2395 274.54 71.6661 274.378 69.7723L258.079 73.41C258.307 77.4088 259.901 86.6792 254.314 88.32C253.385 88.5914 252.383 88.8409 251.332 89.078Z" fill="#FFCEA9"/>
<path opacity="0.52" d="M257.851 84.5316C258.106 83.7087 258.271 82.8604 258.341 82.0018C258.52 80.0426 258.485 78.0697 258.235 76.1183C261.547 75.6713 264.668 74.3041 267.243 72.172C267.545 73.2896 269.21 78.1734 268.749 79.2356C267.878 81.2435 263.784 84.5316 257.851 84.5316Z" fill="#0C0C0C"/>
<path d="M259.805 80.0606C266.224 80.752 274.565 78.272 276.38 69.7339L278.018 62.0299C279.832 53.4931 276.82 45.617 268.781 43.9081C260.742 42.1992 253.262 47.8435 251.447 56.3815L250.722 59.7922C250.493 60.9675 250.345 62.1571 250.278 63.3526C250.078 66.5109 249.787 71.3156 251.244 74.8954C252.62 78.2751 255.704 79.6188 259.805 80.0606Z" fill="#FFCEA9"/>
<path d="M254.706 60.391C255.265 60.391 255.719 59.9378 255.719 59.3788C255.719 58.8197 255.265 58.3665 254.706 58.3665C254.147 58.3665 253.694 58.8197 253.694 59.3788C253.694 59.9378 254.147 60.391 254.706 60.391Z" fill="#0C0C0C"/>
<path d="M264.32 61.4032C264.879 61.4032 265.332 60.95 265.332 60.391C265.332 59.8319 264.879 59.3788 264.32 59.3788C263.761 59.3788 263.308 59.8319 263.308 60.391C263.308 60.95 263.761 61.4032 264.32 61.4032Z" fill="#0C0C0C"/>
<path d="M275.328 72.2289C277.771 72.7483 280.307 70.5557 280.826 68.1125C281.346 65.6694 279.652 63.9013 277.209 63.3819L275.602 64.7513L273.227 71.7824L275.328 72.2289Z" fill="#FFCEA9"/>
<path d="M273.678 67.8078C273.678 67.8078 275.265 55.5308 271.741 54.0507C269.396 53.0651 262.771 55.3522 257.486 53.2093C255.174 52.2711 252.773 52.4119 252.315 53.501C252.133 53.9322 251.923 47.1735 256.665 43.0208C260.44 39.7143 270.467 40.567 274.674 42.7365C286.322 48.7432 277.609 64.0163 277.609 64.0163L276.226 68.0814L273.678 67.8078Z" fill="#0C0C0C"/>
<g opacity="0.52">
<path d="M257.34 68.6862L257.324 68.6837C256.536 68.5182 255.234 68.1521 255.357 67.5639C255.46 67.0757 257.902 62.0856 258.18 61.5184C258.204 61.4696 258.247 61.4323 258.298 61.4147C258.349 61.3971 258.406 61.4007 258.455 61.4246C258.503 61.4485 258.541 61.4908 258.558 61.5423C258.576 61.5937 258.572 61.65 258.548 61.6988C257.465 63.9084 255.828 67.3162 255.758 67.648C255.806 67.8043 256.593 68.1111 257.408 68.2822C257.459 68.2936 257.504 68.3243 257.533 68.3679C257.563 68.4114 257.574 68.4645 257.565 68.5163C257.557 68.5681 257.529 68.6145 257.487 68.6461C257.445 68.6777 257.392 68.6921 257.34 68.6862Z" fill="#0C0C0C"/>
</g>
<path d="M257.158 56.2124C256.384 55.8219 255.519 55.6472 254.655 55.7068C254.23 55.7336 253.811 55.8239 253.413 55.9748C253.019 56.1222 252.645 56.3189 252.301 56.5602C252.243 56.5968 252.202 56.6547 252.187 56.7213C252.171 56.7879 252.183 56.8578 252.219 56.916C252.254 56.9742 252.312 57.016 252.378 57.0323C252.444 57.0486 252.515 57.0382 252.573 57.0033L252.591 56.9929C252.907 56.7969 253.247 56.6415 253.602 56.5301C253.952 56.4184 254.316 56.3603 254.683 56.3578C255.409 56.3472 256.125 56.5285 256.758 56.8835L256.782 56.8976C256.826 56.924 256.875 56.9414 256.926 56.9487C256.977 56.9561 257.029 56.9532 257.079 56.9404C257.129 56.9275 257.176 56.9049 257.217 56.8739C257.258 56.8428 257.293 56.8039 257.319 56.7594C257.345 56.7149 257.362 56.6657 257.369 56.6146C257.376 56.5635 257.373 56.5115 257.36 56.4616C257.347 56.4117 257.324 56.3649 257.293 56.3239C257.261 56.283 257.222 56.2486 257.177 56.2228L257.158 56.2124Z" fill="#0C0C0C"/>
<path d="M262.946 57.7769C263.649 57.5965 264.387 57.6051 265.086 57.8016C265.44 57.8985 265.778 58.0483 266.087 58.246C266.401 58.4449 266.689 58.6824 266.944 58.953L266.958 58.9671C267.007 59.0138 267.071 59.0401 267.138 59.0405C267.205 59.0409 267.27 59.0154 267.319 58.9693C267.367 58.9231 267.397 58.8599 267.4 58.7929C267.403 58.7258 267.38 58.66 267.336 58.6093C267.065 58.2877 266.755 58.0017 266.412 57.7578C266.066 57.5099 265.684 57.3151 265.281 57.18C264.46 56.8998 263.58 56.8458 262.731 57.0236C262.681 57.0346 262.633 57.0553 262.591 57.0846C262.549 57.1139 262.513 57.1513 262.485 57.1945C262.429 57.2818 262.41 57.3878 262.432 57.4892C262.454 57.5906 262.516 57.6791 262.603 57.7351C262.69 57.7912 262.796 57.8103 262.898 57.7882L262.918 57.7832L262.946 57.7769Z" fill="#0C0C0C"/>
<path d="M256.101 70.5802C258.381 71.1498 260.786 70.9434 262.935 69.9935C263.01 69.9611 263.092 69.9505 263.172 69.963C263.253 69.9755 263.328 70.0106 263.389 70.0641C263.45 70.1177 263.495 70.1875 263.518 70.2655C263.541 70.3435 263.541 70.4264 263.518 70.5045C263.118 71.84 261.992 74.2257 259.075 74.028C257.191 73.9011 256.109 72.2416 255.604 71.1771C255.569 71.1033 255.556 71.021 255.566 70.94C255.577 70.859 255.61 70.7826 255.662 70.7198C255.714 70.6571 255.783 70.6106 255.861 70.5858C255.939 70.5611 256.022 70.5591 256.101 70.5802Z" fill="white"/>
<path d="M265.148 44.7698C266.237 42.2125 265.712 39.5394 263.975 38.7993C262.237 38.0592 259.946 39.5322 258.856 42.0895C257.767 44.6467 258.292 47.3198 260.03 48.0599C261.767 48.8001 264.059 47.327 265.148 44.7698Z" fill="#0C0C0C"/>
<path d="M267.776 97.8818C278.436 97.3793 278.885 88.3309 278.885 88.3309C278.885 88.3309 284.167 88.6724 287.679 89.1474C293.428 89.9251 297.22 91.8745 300.238 94.8924C303.046 97.7002 304.755 100.738 302.946 120.131C301.636 134.173 302.558 165.06 302.558 165.06H237.594C237.594 165.06 233.058 120.438 232.52 114.117C231.493 102.05 228.594 99.3862 234.469 93.1703C238.729 88.6624 249.729 88.331 254.156 88.3316C254.228 88.3316 253.258 98.5663 267.776 97.8818Z" fill="#0E82FD"/>
<path d="M232.366 95.965L215.57 131.573L182.447 106.664L169.291 124.159L213.151 157.142C213.543 157.433 213.953 157.701 214.378 157.942C215.632 158.644 217.011 159.093 218.437 159.262C219.864 159.431 221.31 159.317 222.692 158.928C224.075 158.538 225.367 157.88 226.496 156.991C227.624 156.101 228.566 154.999 229.268 153.746L229.458 153.407L255.083 107.668L232.366 95.965Z" fill="#0E82FD"/>
<path d="M305.05 165.372H9.20774C9.1248 165.372 9.04527 165.34 8.98662 165.281C8.92798 165.222 8.89503 165.143 8.89503 165.06C8.89503 164.977 8.92798 164.897 8.98662 164.839C9.04527 164.78 9.1248 164.747 9.20774 164.747H305.05C305.133 164.747 305.213 164.78 305.272 164.839C305.33 164.897 305.363 164.977 305.363 165.06C305.363 165.143 305.33 165.222 305.272 165.281C305.213 165.34 305.133 165.372 305.05 165.372Z" fill="#292A2E"/>
<path d="M240.703 118.548H82.2814V172.699H240.703V118.548Z" fill="white"/>
<path d="M240.859 172.856H82.1251V118.392H240.859V172.856ZM82.4378 172.543H240.546V118.704H82.4378V172.543Z" fill="#0C0C0C"/>
<path d="M74.4589 135.098L84.238 130.73C84.4529 130.634 84.6855 130.584 84.9208 130.583C85.1561 130.582 85.3891 130.63 85.6049 130.724C85.8208 130.817 86.0147 130.955 86.1743 131.128C86.334 131.301 86.4559 131.505 86.5323 131.728C86.6607 132.143 86.6303 132.591 86.4469 132.985C86.2636 133.379 85.9405 133.691 85.5401 133.861L83.4432 134.799L91.3892 134.881C92.2729 134.874 93.3611 135.432 93.303 136.423C93.3055 136.806 93.1782 137.179 92.9417 137.48C92.7052 137.782 92.3736 137.994 92.0009 138.083C92.0031 138.091 92.0043 138.1 92.0046 138.108C92.0037 138.115 92.0024 138.121 92.0006 138.127L93.3633 138.117C93.6155 138.116 93.8649 138.171 94.0933 138.277C94.3217 138.384 94.5235 138.541 94.6838 138.736C94.8441 138.93 94.959 139.158 95.02 139.403C95.0811 139.648 95.0869 139.903 95.0369 140.15C94.95 140.538 94.7325 140.884 94.4208 141.131C94.1091 141.378 93.7221 141.51 93.3246 141.506L92.7448 141.51C92.7372 141.527 92.7266 141.542 92.7135 141.555C93.1059 141.643 93.4541 141.868 93.6959 142.189C93.9377 142.51 94.0573 142.907 94.0335 143.309C93.9947 143.747 93.7919 144.155 93.4656 144.451C93.1393 144.746 92.7135 144.908 92.2733 144.903L90.833 144.914C90.8532 144.928 90.8698 144.947 90.8816 144.968C90.8933 144.99 90.8998 145.014 90.9005 145.039C90.8992 145.068 90.8894 145.097 90.8723 145.121C91.2 145.297 91.461 145.575 91.6151 145.913C91.7691 146.252 91.8078 146.631 91.7251 146.994C91.6304 147.372 91.4107 147.708 91.1016 147.946C90.7924 148.185 90.4118 148.312 90.0215 148.307L77.8699 148.394C76.17 148.406 74.5053 147.91 73.089 146.97C71.6728 146.03 70.5695 144.688 69.9206 143.117C69.3611 141.762 69.3519 140.243 69.895 138.881C70.438 137.52 71.4905 136.424 72.8288 135.826L74.4589 135.098Z" fill="#FFCEA9"/>
<g opacity="0.2">
<path d="M84.1354 138.039C84.136 138.08 84.1527 138.119 84.1819 138.148C84.2112 138.177 84.2506 138.193 84.2917 138.193L91.8485 138.261C91.89 138.262 91.9299 138.245 91.9595 138.216C91.9891 138.187 92.0059 138.148 92.0063 138.106C92.0066 138.065 91.9905 138.025 91.9615 137.995C91.9324 137.966 91.8928 137.949 91.8513 137.949L84.2946 137.88C84.2531 137.88 84.2133 137.897 84.184 137.926C84.1547 137.955 84.1382 137.995 84.1382 138.037L84.1354 138.039Z" fill="#0C0C0C"/>
</g>
<g opacity="0.2">
<path d="M84.0134 141.372C84.014 141.413 84.0307 141.453 84.06 141.482C84.0892 141.51 84.1287 141.527 84.1698 141.527L92.603 141.603C92.6445 141.603 92.6843 141.586 92.7136 141.557C92.7429 141.527 92.7594 141.488 92.7594 141.446C92.758 141.405 92.7411 141.366 92.7121 141.337C92.683 141.308 92.6441 141.291 92.603 141.29L84.1698 141.214C84.1491 141.214 84.1286 141.218 84.1095 141.225C84.0903 141.233 84.0729 141.245 84.0582 141.259C84.0435 141.274 84.0319 141.291 84.0239 141.31C84.0159 141.329 84.0119 141.35 84.0119 141.37L84.0134 141.372Z" fill="#0C0C0C"/>
</g>
<g opacity="0.2">
<path d="M83.8605 144.979C83.8611 145.02 83.8778 145.059 83.907 145.088C83.9363 145.117 83.9757 145.133 84.0168 145.133L90.744 145.194C90.7855 145.194 90.8254 145.178 90.855 145.149C90.8846 145.12 90.9014 145.08 90.9018 145.039C90.9021 144.997 90.886 144.958 90.857 144.928C90.8279 144.898 90.7883 144.882 90.7468 144.881L84.0197 144.821C83.9782 144.821 83.9384 144.837 83.9091 144.866C83.8798 144.896 83.8633 144.935 83.8633 144.977L83.8605 144.979Z" fill="#0C0C0C"/>
</g>
<path d="M77.2577 152.51L23.0391 164.835C21.2379 165.031 19.4158 164.807 17.7158 164.181C16.0157 163.554 14.484 162.542 13.2407 161.224C11.9974 159.907 11.0764 158.319 10.5499 156.585C10.0235 154.851 9.90588 153.019 10.2064 151.233L16.411 101.325C16.9271 98.2583 18.6403 95.5219 21.1738 93.7181C23.7073 91.9144 26.8537 91.1909 29.9206 91.7069C32.9875 92.2229 35.7239 93.9361 37.5276 96.4697C39.3314 99.0032 40.0549 102.15 39.5389 105.216L36.551 140.938L74.2204 132.413L77.2577 152.51Z" fill="#0E82FD"/>
<path d="M28.9285 142.342C28.8893 142.342 28.8516 142.326 28.8229 142.3C28.7943 142.273 28.7768 142.236 28.7739 142.197C28.771 142.158 28.783 142.119 28.8074 142.088C28.8318 142.057 28.8669 142.037 28.9057 142.031L36.4609 140.418C36.4812 140.414 36.502 140.415 36.522 140.42C36.5421 140.425 36.5609 140.434 36.5775 140.446C36.594 140.458 36.6079 140.474 36.6184 140.491C36.6289 140.509 36.6358 140.529 36.6385 140.549C36.6446 140.59 36.6342 140.632 36.6096 140.665C36.585 140.698 36.5482 140.721 36.5072 140.727L28.952 142.34C28.9442 142.341 28.9364 142.342 28.9285 142.342Z" fill="#0C0C0C"/>
<path d="M24.6659 165.06C24.6244 165.063 24.5836 165.049 24.5524 165.021C24.5211 164.994 24.5021 164.955 24.4994 164.914C24.4967 164.872 24.5106 164.831 24.538 164.8C24.5654 164.769 24.6041 164.75 24.6456 164.747L76.9176 152.436L73.9557 132.642L36.5111 140.725C36.4869 140.728 36.4623 140.725 36.4392 140.717C36.4162 140.709 36.3953 140.696 36.3782 140.679C36.3611 140.661 36.3484 140.64 36.3412 140.616C36.3339 140.593 36.3322 140.568 36.3363 140.544L38.4367 120.134C38.4398 120.113 38.447 120.094 38.4578 120.076C38.4687 120.059 38.4829 120.044 38.4997 120.032C38.5165 120.02 38.5355 120.011 38.5556 120.007C38.5757 120.002 38.5966 120.002 38.6168 120.006C38.6577 120.013 38.6942 120.035 38.7182 120.069C38.7423 120.103 38.7519 120.145 38.745 120.186L36.6812 140.386L74.0285 132.297C74.0486 132.291 74.0696 132.29 74.0903 132.292C74.111 132.295 74.1309 132.302 74.1489 132.312C74.1669 132.323 74.1826 132.337 74.1951 132.354C74.2076 132.37 74.2167 132.389 74.2218 132.41L77.2591 152.508C77.2687 152.547 77.2625 152.589 77.2419 152.624C77.2213 152.659 77.1879 152.685 77.1487 152.696L24.6862 165.059C24.6795 165.059 24.6727 165.06 24.6659 165.06Z" fill="#0C0C0C"/>
<path d="M245.586 144.479L235.807 140.111C235.592 140.015 235.359 139.965 235.124 139.964C234.889 139.963 234.656 140.011 234.44 140.104C234.224 140.198 234.03 140.336 233.87 140.509C233.711 140.682 233.589 140.886 233.513 141.109C233.384 141.524 233.414 141.972 233.598 142.366C233.781 142.76 234.104 143.072 234.505 143.242L236.602 144.18L228.655 144.262C227.772 144.255 226.683 144.813 226.742 145.804C226.739 146.187 226.867 146.56 227.103 146.861C227.34 147.163 227.671 147.375 228.044 147.464C228.042 147.472 228.04 147.48 228.04 147.489C228.041 147.495 228.042 147.502 228.044 147.508L226.682 147.498C226.429 147.497 226.18 147.551 225.951 147.658C225.723 147.765 225.521 147.922 225.361 148.116C225.201 148.311 225.086 148.539 225.025 148.784C224.963 149.028 224.958 149.284 225.008 149.531C225.095 149.919 225.312 150.265 225.624 150.512C225.936 150.759 226.322 150.891 226.72 150.886L227.3 150.891C227.308 150.907 227.318 150.923 227.331 150.936C226.939 151.024 226.591 151.249 226.349 151.57C226.107 151.891 225.988 152.288 226.011 152.69C226.05 153.128 226.253 153.536 226.579 153.832C226.906 154.127 227.332 154.289 227.772 154.284L229.212 154.295C229.192 154.309 229.175 154.327 229.163 154.349C229.152 154.371 229.145 154.395 229.145 154.42C229.146 154.449 229.155 154.478 229.173 154.502C228.845 154.678 228.584 154.956 228.43 155.294C228.276 155.632 228.237 156.012 228.32 156.374C228.414 156.753 228.634 157.089 228.943 157.327C229.253 157.566 229.633 157.693 230.024 157.688L242.175 157.774C243.875 157.786 245.54 157.291 246.956 156.35C248.373 155.41 249.476 154.068 250.125 152.497C250.684 151.142 250.693 149.623 250.15 148.261C249.607 146.9 248.555 145.803 247.216 145.206L245.586 144.479Z" fill="#FFCEA9"/>
<g opacity="0.2">
<path d="M235.909 147.42C235.909 147.461 235.892 147.501 235.863 147.529C235.834 147.558 235.794 147.574 235.753 147.574L228.196 147.642C228.176 147.643 228.155 147.639 228.136 147.631C228.117 147.623 228.1 147.612 228.085 147.598C228.071 147.583 228.059 147.566 228.051 147.547C228.043 147.528 228.039 147.508 228.038 147.487C228.038 147.467 228.042 147.446 228.05 147.427C228.057 147.408 228.069 147.391 228.083 147.376C228.098 147.362 228.115 147.35 228.134 147.342C228.153 147.334 228.173 147.33 228.193 147.33L235.75 147.261C235.792 147.261 235.831 147.278 235.861 147.307C235.89 147.337 235.907 147.376 235.907 147.418L235.909 147.42Z" fill="#0C0C0C"/>
</g>
<g opacity="0.2">
<path d="M236.031 150.753C236.031 150.794 236.014 150.833 235.985 150.862C235.956 150.891 235.917 150.907 235.876 150.907L227.443 150.983C227.401 150.983 227.362 150.967 227.332 150.938C227.303 150.908 227.286 150.869 227.286 150.827C227.288 150.786 227.305 150.747 227.334 150.718C227.363 150.689 227.402 150.672 227.443 150.671L235.876 150.595C235.918 150.595 235.957 150.611 235.987 150.641C236.016 150.67 236.032 150.71 236.032 150.751L236.031 150.753Z" fill="#0C0C0C"/>
</g>
<g opacity="0.2">
<path d="M236.185 154.36C236.184 154.401 236.167 154.44 236.138 154.469C236.109 154.498 236.069 154.514 236.028 154.514L229.301 154.575C229.281 154.575 229.26 154.571 229.241 154.563C229.222 154.556 229.205 154.544 229.19 154.53C229.176 154.516 229.164 154.498 229.156 154.48C229.148 154.461 229.144 154.44 229.143 154.42C229.143 154.399 229.147 154.379 229.155 154.36C229.162 154.341 229.174 154.324 229.188 154.309C229.203 154.294 229.22 154.283 229.239 154.275C229.258 154.266 229.278 154.262 229.298 154.262L236.026 154.201C236.067 154.201 236.107 154.218 236.136 154.247C236.165 154.277 236.182 154.316 236.182 154.358L236.185 154.36Z" fill="#0C0C0C"/>
</g>
<path d="M245.913 161.891L297.005 164.835C298.806 165.031 300.628 164.807 302.328 164.181C304.028 163.554 305.56 162.542 306.803 161.224C308.047 159.906 308.968 158.318 309.494 156.585C310.021 154.851 310.138 153.019 309.838 151.232L303.634 101.323C303.379 99.8048 302.827 98.3514 302.01 97.0462C301.192 95.741 300.126 94.6095 298.872 93.7164C297.617 92.8232 296.199 92.1859 294.698 91.8408C293.197 91.4958 291.643 91.4497 290.125 91.7052C288.606 91.9607 287.153 92.5128 285.848 93.33C284.542 94.1472 283.411 95.2134 282.518 96.4679C281.625 97.7224 280.987 99.1405 280.642 100.641C280.297 102.142 280.251 103.696 280.507 105.215L283.494 143.125L246.138 141.792L245.913 161.891Z" fill="#0E82FD"/>
<path d="M291.116 142.967C291.155 142.967 291.193 142.952 291.222 142.925C291.25 142.898 291.268 142.861 291.271 142.822C291.274 142.783 291.262 142.744 291.237 142.714C291.213 142.683 291.178 142.662 291.139 142.656L283.584 142.606C283.564 142.603 283.543 142.604 283.523 142.609C283.503 142.614 283.484 142.622 283.467 142.635C283.451 142.647 283.437 142.662 283.426 142.68C283.416 142.698 283.409 142.717 283.406 142.738C283.4 142.779 283.41 142.821 283.435 142.854C283.46 142.887 283.497 142.909 283.538 142.915L291.093 142.965C291.1 142.966 291.108 142.967 291.116 142.967Z" fill="#0C0C0C"/>
<path d="M295.379 165.06C295.421 165.062 295.461 165.048 295.493 165.021C295.524 164.994 295.543 164.955 295.546 164.913C295.548 164.872 295.534 164.831 295.507 164.8C295.479 164.769 295.441 164.75 295.399 164.747L246.254 161.818L246.401 142.024L283.533 142.915C283.557 142.918 283.582 142.916 283.605 142.908C283.628 142.899 283.649 142.886 283.666 142.869C283.683 142.851 283.695 142.83 283.703 142.806C283.71 142.783 283.712 142.758 283.708 142.734L281.607 120.135C281.604 120.115 281.597 120.095 281.586 120.078C281.575 120.06 281.561 120.045 281.544 120.033C281.528 120.021 281.509 120.013 281.488 120.008C281.468 120.004 281.448 120.003 281.427 120.007C281.407 120.01 281.388 120.018 281.37 120.028C281.353 120.039 281.338 120.053 281.326 120.07C281.314 120.087 281.305 120.106 281.301 120.126C281.296 120.146 281.295 120.167 281.299 120.187L283.364 142.576L246.33 141.679C246.309 141.673 246.288 141.672 246.268 141.675C246.247 141.677 246.227 141.684 246.209 141.695C246.191 141.705 246.175 141.719 246.163 141.736C246.15 141.753 246.141 141.772 246.136 141.792L245.913 161.89C245.903 161.93 245.91 161.971 245.93 162.006C245.951 162.041 245.984 162.067 246.023 162.078L295.358 165.057C295.365 165.058 295.372 165.059 295.379 165.06Z" fill="#0C0C0C"/>
<path d="M119.84 153.979H115.687L113.358 144.944C113.272 144.622 113.125 143.958 112.917 142.95C112.709 141.942 112.59 141.266 112.558 140.921C112.511 141.344 112.393 142.024 112.205 142.962C112.017 143.899 111.872 144.568 111.77 144.968L109.452 153.979H105.311L100.923 136.78H104.511L106.711 146.168C107.096 147.902 107.374 149.404 107.546 150.674C107.593 150.227 107.701 149.535 107.87 148.598C108.039 147.661 108.198 146.933 108.347 146.415L110.852 136.78H114.299L116.805 146.415C116.915 146.847 117.052 147.506 117.217 148.392C117.382 149.278 117.507 150.039 117.592 150.674C117.67 150.063 117.795 149.3 117.967 148.386C118.139 147.472 118.295 146.733 118.436 146.169L120.625 136.781H124.213L119.84 153.979Z" fill="black"/>
<path d="M136.286 153.979H126.381V136.78H136.286V139.769H130.028V143.545H135.851V146.532H130.028V150.967H136.286V153.979Z" fill="black"/>
<path d="M139.874 153.979V136.78H143.521V150.968H150.497V153.98L139.874 153.979Z" fill="black"/>
<path d="M160.792 139.568C160.173 139.54 159.558 139.666 159.001 139.936C158.444 140.207 157.963 140.612 157.602 141.115C156.849 142.146 156.473 143.583 156.473 145.427C156.473 149.262 157.912 151.18 160.79 151.18C162.293 151.122 163.776 150.815 165.179 150.273V153.332C163.677 153.938 162.069 154.238 160.449 154.214C157.948 154.214 156.034 153.456 154.708 151.938C153.382 150.42 152.72 148.242 152.72 145.402C152.684 143.782 153.018 142.175 153.697 140.703C154.298 139.412 155.276 138.333 156.503 137.609C157.808 136.869 159.29 136.497 160.79 136.532C162.538 136.551 164.26 136.965 165.825 137.744L164.648 140.709C164.016 140.407 163.368 140.14 162.707 139.909C162.093 139.688 161.445 139.573 160.792 139.568Z" fill="black"/>
<path d="M184.449 145.356C184.449 148.203 183.744 150.391 182.332 151.92C180.92 153.45 178.897 154.215 176.261 154.214C173.626 154.214 171.603 153.45 170.191 151.92C168.779 150.391 168.074 148.195 168.074 145.332C168.074 142.469 168.781 140.283 170.197 138.774C171.613 137.264 173.642 136.509 176.285 136.509C178.928 136.509 180.949 137.27 182.35 138.791C183.75 140.313 184.45 142.501 184.449 145.356ZM171.897 145.356C171.897 147.277 172.262 148.724 172.991 149.697C173.721 150.669 174.811 151.155 176.262 151.155C179.172 151.155 180.627 149.222 180.626 145.356C180.626 141.481 179.179 139.544 176.285 139.544C174.834 139.544 173.74 140.032 173.002 141.009C172.263 141.985 171.895 143.434 171.897 145.356Z" fill="black"/>
<path d="M195.296 153.979L191.155 140.485H191.049C191.198 143.231 191.273 145.062 191.273 145.979V153.979H188.014V136.78H192.979L197.049 149.933H197.12L201.437 136.78H206.402V153.979H203.002V145.838C203.002 145.454 203.008 145.011 203.019 144.509C203.031 144.006 203.084 142.673 203.178 140.509H203.072L198.637 153.979H195.296Z" fill="black"/>
<path d="M220.637 153.979H210.731V136.78H220.636V139.769H214.378V143.545H220.202V146.532H214.378V150.967H220.637V153.979Z" fill="black"/>
</svg>
