<svg width="27" height="24" viewBox="0 0 27 24" fill="none" xmlns="http://www.w3.org/2000/svg">
<path fill-rule="evenodd" clip-rule="evenodd" d="M24.5476 11.7276C24.3107 11.4907 23.9975 11.3532 23.669 11.3532C23.3099 11.3532 22.9966 11.4907 22.7751 11.7276C22.5382 11.9415 22.416 12.2624 22.416 12.6062C22.416 12.95 22.5382 13.2556 22.7751 13.4848C22.9966 13.714 23.3099 13.8439 23.669 13.8439C23.9975 13.8439 24.3107 13.714 24.5476 13.4848C24.7691 13.2556 24.9067 12.95 24.9067 12.6062C24.9067 12.2624 24.7691 11.9415 24.5476 11.7276ZM2.73494 1.26058H2.00149C1.78757 1.26058 1.61184 1.34462 1.47432 1.4745C1.34444 1.61202 1.26804 1.78775 1.26804 1.98639C1.26804 2.19267 1.34444 2.38367 1.47432 2.51356C1.61184 2.65108 1.78757 2.72748 2.00149 2.72748H2.73494V1.26058ZM23.669 9.25215C24.5782 9.25215 25.4186 9.62652 26.0222 10.2377C26.6257 10.8489 27.0001 11.6664 27.0001 12.6062C27.0001 13.5306 26.6257 14.371 26.0222 14.9746C25.4186 15.5782 24.5782 15.9525 23.669 15.9525C22.7293 15.9525 21.8889 15.5782 21.2853 14.9746C21.079 14.7683 20.888 14.5162 20.7352 14.2641C20.3456 14.5773 20.0018 14.9669 19.742 15.3871C19.2912 16.0977 19.0238 16.9457 19.0238 17.8549V17.8702V17.8855V17.9007C19.0086 19.5204 18.3515 20.9644 17.2895 22.0417C16.2276 23.096 14.7607 23.7607 13.1333 23.7607C11.506 23.7607 10.0238 23.096 8.96947 22.0417C7.89222 20.9644 7.23517 19.4975 7.23517 17.8702V15.0357C5.30987 14.8753 3.59848 14.0425 2.30731 12.759C0.878611 11.3379 0 9.36676 0 7.18933V2.02462V1.98642C0 1.44398 0.221563 0.955012 0.595927 0.595927C0.955012 0.221563 1.45162 0 2.0017 0H3.36928C3.70545 0 4.00341 0.282683 4.00341 0.626488V0.641768V3.354C4.00341 3.70545 3.70545 3.99577 3.36928 3.99577H3.34636H2.10103V7.18933C2.10103 8.77847 2.74279 10.2224 3.78949 11.2615C4.83618 12.3082 6.28016 12.9652 7.85402 12.9652H9.5654C11.1469 12.9652 12.5985 12.3082 13.6376 11.2615C14.6766 10.2224 15.3184 8.77847 15.3184 7.18933V3.99577H14.0807H14.0654C13.714 3.99577 13.4313 3.70545 13.4313 3.354V0.641768V0.626488C13.4313 0.282683 13.714 0 14.0654 0H15.433C15.9831 0 16.4873 0.221563 16.8464 0.595927C17.2055 0.955012 17.4271 1.44398 17.4271 1.98642V2.02462V7.18933C17.4271 9.36676 16.5484 11.3379 15.1197 12.759C13.6987 14.1724 11.7275 15.0586 9.5654 15.0586H8.48814V17.8702C8.48814 19.1461 9.01531 20.3074 9.84044 21.1401C10.6961 21.9806 11.8498 22.5001 13.1333 22.5001C14.4169 22.5001 15.5552 21.9806 16.4033 21.1401C17.2361 20.3074 17.7556 19.1614 17.7556 17.8855V17.8702V17.8549C17.7709 16.6936 18.0994 15.624 18.6648 14.7148C19.0926 14.0425 19.658 13.4466 20.3226 13.0034C20.3226 12.8659 20.3074 12.7284 20.3074 12.6062C20.3074 11.6664 20.6817 10.8489 21.2853 10.2377C21.8889 9.62652 22.7293 9.25215 23.669 9.25215ZM15.433 1.26058H14.6996V2.72748H15.433C15.6393 2.72748 15.815 2.65108 15.9525 2.51356C16.0824 2.38367 16.1741 2.19267 16.1741 1.98639C16.1741 1.78775 16.0824 1.61202 15.9525 1.4745C15.815 1.34462 15.6393 1.26058 15.433 1.26058Z" fill="#989BA5"/>
</svg>
