<svg width="15" height="15" viewBox="0 0 15 15" fill="none" xmlns="http://www.w3.org/2000/svg">
<path d="M4.08236 1.35445C3.90115 1.53572 3.79935 1.78155 3.79935 2.03786C3.79935 2.29418 3.90115 2.54 4.08236 2.72127L8.86719 7.5061L4.08236 12.2909C3.90628 12.4732 3.80885 12.7174 3.81105 12.9709C3.81326 13.2243 3.91492 13.4668 4.09414 13.646C4.27336 13.8252 4.5158 13.9269 4.76925 13.9291C5.0227 13.9313 5.26687 13.8338 5.44918 13.6578L10.9174 8.18951C11.0986 8.00824 11.2004 7.76242 11.2004 7.5061C11.2004 7.24979 11.0986 7.00396 10.9174 6.82269L5.44918 1.35445C5.26791 1.17324 5.02209 1.07144 4.76577 1.07144C4.50945 1.07144 4.26363 1.17324 4.08236 1.35445Z" fill="#151921"/>
</svg>
