<svg width="50" height="50" viewBox="0 0 50 50" fill="none" xmlns="http://www.w3.org/2000/svg">
<path fill-rule="evenodd" clip-rule="evenodd" d="M25 50C38.8071 50 50 38.8071 50 25C50 11.1929 38.8071 0 25 0C11.1929 0 0 11.1929 0 25C0 38.8071 11.1929 50 25 50Z" fill="#C5D3E0"/>
<path fill-rule="evenodd" clip-rule="evenodd" d="M25.3043 13C23.5754 13 22.1738 14.4015 22.1738 16.1304V24.4783C22.1738 26.2072 23.5754 27.6087 25.3043 27.6087C27.0332 27.6087 28.4347 26.2072 28.4347 24.4783V16.1304C28.4347 14.4015 27.0332 13 25.3043 13Z" fill="white" stroke="white" stroke-width="2" stroke-linecap="round" stroke-linejoin="round"/>
<path d="M32.6087 22.3914V24.4783C32.6087 28.5124 29.3384 31.7827 25.3043 31.7827C21.2703 31.7827 18 28.5124 18 24.4783V22.3914" stroke="white" stroke-width="2" stroke-linecap="round" stroke-linejoin="round"/>
<path d="M25.3042 31.7826V35.9565" stroke="white" stroke-width="2" stroke-linecap="round" stroke-linejoin="round"/>
<path d="M21.1304 35.9565H29.4782" stroke="white" stroke-width="2" stroke-linecap="round" stroke-linejoin="round"/>
</svg>
