<svg width="20" height="20" viewBox="0 0 20 20" fill="none" xmlns="http://www.w3.org/2000/svg">
<path fill-rule="evenodd" clip-rule="evenodd" d="M4.28565 0H1.42855C0.639584 0 0 0.639584 0 1.42855V4.28565C0 5.07462 0.639584 5.71421 1.42855 5.71421H4.28565C5.07462 5.71421 5.71421 5.07462 5.71421 4.28565V1.42855C5.71421 0.639584 5.07462 0 4.28565 0ZM4.28565 4.28565H1.42855V1.42855H4.28565V4.28565Z" fill="#6F8BA4"/>
<path fill-rule="evenodd" clip-rule="evenodd" d="M11.4282 0H8.57112C7.78216 0 7.14257 0.639584 7.14257 1.42855V4.28565C7.14257 5.07462 7.78216 5.71421 8.57112 5.71421H11.4282C12.2172 5.71421 12.8568 5.07462 12.8568 4.28565V1.42855C12.8568 0.639584 12.2172 0 11.4282 0ZM11.4282 4.28565H8.57112V1.42855H11.4282V4.28565Z" fill="#6F8BA4"/>
<path fill-rule="evenodd" clip-rule="evenodd" d="M18.5713 0H15.7142C14.9252 0 14.2856 0.639584 14.2856 1.42855V4.28565C14.2856 5.07462 14.9252 5.71421 15.7142 5.71421H18.5713C19.3603 5.71421 19.9998 5.07462 19.9998 4.28565V1.42855C19.9998 0.639584 19.3603 0 18.5713 0ZM18.5713 4.28565H15.7142V1.42855H18.5713V4.28565Z" fill="#6F8BA4"/>
<path fill-rule="evenodd" clip-rule="evenodd" d="M4.28565 7.1427H1.42855C0.639584 7.1427 0 7.78228 0 8.57125V11.4284C0 12.2173 0.639584 12.8569 1.42855 12.8569H4.28565C5.07462 12.8569 5.71421 12.2173 5.71421 11.4284V8.57125C5.71421 7.78228 5.07462 7.1427 4.28565 7.1427ZM4.28565 11.4284H1.42855V8.57125H4.28565V11.4284Z" fill="#6F8BA4"/>
<path fill-rule="evenodd" clip-rule="evenodd" d="M11.4282 7.1427H8.57112C7.78216 7.1427 7.14257 7.78228 7.14257 8.57125V11.4284C7.14257 12.2173 7.78216 12.8569 8.57112 12.8569H11.4282C12.2172 12.8569 12.8568 12.2173 12.8568 11.4284V8.57125C12.8568 7.78228 12.2172 7.1427 11.4282 7.1427ZM11.4282 11.4284H8.57112V8.57125H11.4282V11.4284Z" fill="#6F8BA4"/>
<path fill-rule="evenodd" clip-rule="evenodd" d="M18.5713 7.1427H15.7142C14.9252 7.1427 14.2856 7.78228 14.2856 8.57125V11.4284C14.2856 12.2173 14.9252 12.8569 15.7142 12.8569H18.5713C19.3603 12.8569 19.9998 12.2173 19.9998 11.4284V8.57125C19.9998 7.78228 19.3603 7.1427 18.5713 7.1427ZM18.5713 11.4284H15.7142V8.57125H18.5713V11.4284Z" fill="#6F8BA4"/>
<path fill-rule="evenodd" clip-rule="evenodd" d="M4.28565 14.2855H1.42855C0.639584 14.2855 0 14.9251 0 15.7141V18.5712C0 19.3601 0.639584 19.9997 1.42855 19.9997H4.28565C5.07462 19.9997 5.71421 19.3601 5.71421 18.5712V15.7141C5.71421 14.9251 5.07462 14.2855 4.28565 14.2855ZM4.28565 18.5712H1.42855V15.7141H4.28565V18.5712Z" fill="#6F8BA4"/>
<path fill-rule="evenodd" clip-rule="evenodd" d="M18.5713 14.2855H15.7142C14.9252 14.2855 14.2856 14.9251 14.2856 15.7141V18.5712C14.2856 19.3601 14.9252 19.9997 15.7142 19.9997H18.5713C19.3603 19.9997 19.9998 19.3601 19.9998 18.5712V15.7141C19.9998 14.9251 19.3603 14.2855 18.5713 14.2855ZM18.5713 18.5712H15.7142V15.7141H18.5713V18.5712Z" fill="#6F8BA4"/>
<path fill-rule="evenodd" clip-rule="evenodd" d="M11.4282 14.2855H8.57112C7.78216 14.2855 7.14257 14.9251 7.14257 15.7141V18.5712C7.14257 19.3601 7.78216 19.9997 8.57112 19.9997H11.4282C12.2172 19.9997 12.8568 19.3601 12.8568 18.5712V15.7141C12.8568 14.9251 12.2172 14.2855 11.4282 14.2855ZM11.4282 18.5712H8.57112V15.7141H11.4282V18.5712Z" fill="#6F8BA4"/>
</svg>
