<svg width="323" height="20" viewBox="0 0 323 20" fill="none" xmlns="http://www.w3.org/2000/svg">
<path fill-rule="evenodd" clip-rule="evenodd" d="M313.134 12.2687C315.951 12.2687 318.246 9.51849 318.246 6.13437C318.246 2.75024 315.951 0 313.134 0C310.317 0 308.022 2.75024 308.022 6.13437C308.022 9.51849 310.322 12.2687 313.134 12.2687ZM313.134 1.53367C315.112 1.53367 316.712 3.57846 316.712 6.13444C316.712 8.69043 315.112 10.7352 313.134 10.7352C311.156 10.7352 309.555 8.69043 309.555 6.13444C309.555 3.57846 311.156 1.53367 313.134 1.53367Z" fill="#989BA5"/>
<path fill-rule="evenodd" clip-rule="evenodd" d="M317.198 11.9659C316.774 11.9236 316.397 12.2326 316.354 12.656C316.312 13.0795 316.621 13.4572 317.044 13.4995C319.423 13.779 321.265 15.7116 321.431 18.1003H303.61C303.791 15.7185 305.626 13.7943 307.996 13.4995C308.42 13.4572 308.729 13.0795 308.686 12.656C308.644 12.2326 308.266 11.9236 307.843 11.9659C307.787 11.9659 302.041 12.6203 302.041 18.862C302.041 19.2855 302.384 19.6288 302.808 19.6288H322.233C322.657 19.6288 323 19.2855 323 18.862C323 12.6203 317.254 11.9659 317.198 11.9659Z" fill="#989BA5"/>
<path fill-rule="evenodd" clip-rule="evenodd" d="M222.101 18.6863L217.61 14.2197C220.757 11.0535 220.853 5.97104 217.828 2.68843C214.803 -0.594178 209.729 -0.912983 206.317 1.96512C202.905 4.84322 202.364 9.89772 205.09 13.4329C207.815 16.9681 212.841 17.7305 216.492 15.1626L221.071 19.741C221.358 20.0087 221.806 20.0008 222.083 19.7232C222.361 19.4455 222.369 18.9979 222.101 18.7106V18.6863ZM204.939 8.38728C204.939 4.62929 207.986 1.58283 211.744 1.58283C215.502 1.58283 218.548 4.62929 218.548 8.38728C218.548 12.1453 215.502 15.1917 211.744 15.1917C207.986 15.1917 204.939 12.1453 204.939 8.38728Z" fill="#989BA5"/>
<path fill-rule="evenodd" clip-rule="evenodd" d="M121.277 9.83998C121.078 9.64126 120.816 9.52587 120.54 9.52587C120.239 9.52587 119.976 9.64126 119.79 9.83998C119.591 10.0195 119.489 10.2887 119.489 10.5772C119.489 10.8657 119.591 11.1221 119.79 11.3144C119.976 11.5067 120.239 11.6157 120.54 11.6157C120.816 11.6157 121.078 11.5067 121.277 11.3144C121.463 11.1221 121.578 10.8657 121.578 10.5772C121.578 10.2887 121.463 10.0195 121.277 9.83998ZM102.975 1.05764H102.36C102.18 1.05764 102.033 1.12816 101.918 1.23714C101.809 1.35253 101.744 1.49997 101.744 1.66664C101.744 1.83973 101.809 1.99999 101.918 2.10897C102.033 2.22436 102.18 2.28846 102.36 2.28846H102.975V1.05764ZM120.54 7.76313C121.303 7.76313 122.008 8.07724 122.514 8.59008C123.021 9.10293 123.335 9.78885 123.335 10.5773C123.335 11.353 123.021 12.0582 122.514 12.5646C122.008 13.071 121.303 13.3851 120.54 13.3851C119.751 13.3851 119.046 13.071 118.54 12.5646C118.367 12.3915 118.206 12.18 118.078 11.9684C117.751 12.2313 117.463 12.5582 117.245 12.9108C116.867 13.5069 116.642 14.2185 116.642 14.9814V14.9942V15.007V15.0198C116.629 16.3789 116.078 17.5904 115.187 18.4943C114.296 19.379 113.065 19.9367 111.7 19.9367C110.334 19.9367 109.091 19.379 108.206 18.4943C107.302 17.5904 106.751 16.3596 106.751 14.9942V12.6159C105.135 12.4813 103.699 11.7825 102.616 10.7056C101.417 9.5132 100.68 7.85929 100.68 6.03229V1.69879V1.66673C100.68 1.21159 100.866 0.801314 101.18 0.50002C101.481 0.185905 101.898 0 102.36 0H103.507C103.789 0 104.039 0.237189 104.039 0.525662V0.538483V2.81421C104.039 3.1091 103.789 3.3527 103.507 3.3527H103.488H102.443V6.03229C102.443 7.36568 102.981 8.57726 103.86 9.44909C104.738 10.3273 105.95 10.8786 107.27 10.8786H108.706C110.033 10.8786 111.251 10.3273 112.123 9.44909C112.995 8.57726 113.533 7.36568 113.533 6.03229V3.3527H112.495H112.482C112.187 3.3527 111.95 3.1091 111.95 2.81421V0.538483V0.525662C111.95 0.237189 112.187 0 112.482 0H113.629C114.091 0 114.514 0.185905 114.815 0.50002C115.117 0.801314 115.302 1.21159 115.302 1.66673V1.69879V6.03229C115.302 7.85929 114.565 9.5132 113.367 10.7056C112.174 11.8915 110.52 12.6351 108.706 12.6351H107.802V14.9942C107.802 16.0647 108.245 17.0391 108.937 17.7379C109.655 18.443 110.623 18.879 111.7 18.879C112.777 18.879 113.732 18.443 114.443 17.7379C115.142 17.0391 115.578 16.0776 115.578 15.007V14.9942V14.9814C115.591 14.007 115.867 13.1095 116.341 12.3466C116.7 11.7825 117.174 11.2825 117.732 10.9107C117.732 10.7953 117.719 10.6799 117.719 10.5773C117.719 9.78885 118.033 9.10293 118.54 8.59008C119.046 8.07724 119.751 7.76313 120.54 7.76313ZM113.63 1.05764H113.014V2.28846H113.63C113.803 2.28846 113.95 2.22436 114.065 2.10897C114.174 1.99999 114.251 1.83973 114.251 1.66664C114.251 1.49997 114.174 1.35253 114.065 1.23714C113.95 1.12816 113.803 1.05764 113.63 1.05764Z" fill="#989BA5"/>
<path fill-rule="evenodd" clip-rule="evenodd" d="M20.7454 8.12788L11.5727 0.346133C11.0283 -0.115378 10.23 -0.115378 9.68561 0.346133L0.512872 8.12788C0.0573601 8.51599 -0.114985 9.14289 0.0781129 9.70931C0.27121 10.2757 0.790595 10.6668 1.38832 10.6959V18.4776C1.38832 19.2834 2.04157 19.9367 2.8474 19.9367H18.4109C19.2167 19.9367 19.87 19.2834 19.87 18.4776V10.7007C20.4677 10.6717 20.9871 10.2806 21.1802 9.71417C21.3733 9.14775 21.2009 8.52085 20.7454 8.13275V8.12788ZM10.1428 18.4826H9.17006V14.1053H12.0882V18.4826H10.1428ZM18.4108 9.24168V18.4825H13.5472V14.1053C13.5472 13.2994 12.8939 12.6462 12.0881 12.6462H9.16994C8.36411 12.6462 7.71086 13.2994 7.71086 14.1053V18.4825H2.84727V9.24168H1.45628L10.629 1.45993L19.8018 9.24168H18.4108Z" fill="#989BA5"/>
</svg>
