<svg width="301" height="322" viewBox="0 0 301 322" fill="none" xmlns="http://www.w3.org/2000/svg">
<path d="M253.795 248.227L188.374 210.429C182.831 207.233 178.338 198.646 178.338 191.26V8.78596C178.338 1.39969 182.831 -1.9963 188.374 1.20563L253.795 38.9739C259.338 42.1758 263.832 50.7628 263.832 58.1491V240.641C263.832 248.027 259.338 251.429 253.795 248.227Z" fill="#B1B4C4"/>
<path d="M254.917 251.52L260.102 248.901L255.129 240.374L254.917 251.52Z" fill="#B1B4C4"/>
<path d="M177.319 3.02498L182.091 0.520437L181.127 7.55498L177.319 3.02498Z" fill="#B1B4C4"/>
<path d="M249.624 250.314L184.202 212.539C178.66 209.343 174.166 200.756 174.166 193.37V10.8722C174.166 3.48589 178.66 0.0899046 184.202 3.28577L249.624 41.0601C255.166 44.262 259.66 52.8429 259.66 60.2353V242.727C259.66 250.12 255.166 253.516 249.624 250.314Z" fill="#616E84"/>
<path d="M258.944 60.7024V243.176C258.944 250.575 254.457 253.964 248.914 250.769L223.256 235.954L215.282 231.363L183.505 213.006C177.962 209.804 173.474 201.224 173.474 193.831V11.3392C173.474 3.94691 177.962 0.556981 183.505 3.75285L248.932 41.5211C254.475 44.7291 258.944 53.304 258.944 60.7024Z" fill="#20232D"/>
<path d="M254.244 58.8221V236.566C254.244 241.035 251.109 242.86 247.228 240.617L226.803 228.834L224.984 227.791L224.378 227.433L219.957 224.886L207.161 217.506L201.855 214.443L199.72 213.23L185.221 204.862C181.346 202.624 178.204 197.178 178.204 192.691V14.9351C178.204 10.4536 181.346 8.64034 185.221 10.8781L210.763 25.6264V25.6991C210.763 29.1861 213.189 33.425 216.221 35.1654C219.253 36.9059 221.679 35.4929 221.679 32.012C221.679 32.012 221.679 31.9574 221.679 31.9332L247.228 46.6936C251.109 48.9192 254.244 54.3649 254.244 58.8221Z" fill="white"/>
<path d="M217.693 33.3309C218.502 32.8637 218.501 31.3469 217.691 29.9431C216.88 28.5392 215.567 27.78 214.758 28.2472C213.949 28.7144 213.95 30.2312 214.76 31.635C215.571 33.0389 216.884 33.7981 217.693 33.3309Z" fill="#2B303F"/>
<path opacity="0.1" d="M216.221 31.7936C215.966 31.629 215.755 31.4062 215.603 31.1437C215.451 30.8812 215.364 30.5864 215.348 30.2836C215.348 29.7318 215.736 29.5074 216.221 29.7863C216.476 29.9497 216.689 30.1712 216.842 30.4326C216.994 30.694 217.083 30.988 217.1 31.2903C217.1 31.8421 216.7 32.0665 216.221 31.7936Z" fill="white"/>
<path d="M261.619 84.7108C261.085 85.02 260.654 84.7108 260.654 83.983V76.2026C260.664 75.8455 260.756 75.4955 260.923 75.1799C261.091 74.8643 261.329 74.5917 261.619 74.3833C262.152 74.074 262.583 74.3833 262.583 75.1171V82.8975C262.573 83.2536 262.481 83.6026 262.313 83.9172C262.146 84.2317 261.908 84.5033 261.619 84.7108Z" fill="#757B89"/>
<path d="M261.619 97.4637C261.085 97.7669 260.654 97.4637 260.654 96.7299V88.9495C260.66 88.5874 260.75 88.2315 260.917 87.9104C261.085 87.5892 261.325 87.3117 261.619 87.0999C262.152 86.7967 262.583 87.0999 262.583 87.8337V95.6141C262.577 95.9762 262.487 96.3321 262.32 96.6533C262.153 96.9744 261.912 97.2519 261.619 97.4637Z" fill="#757B89"/>
<path d="M241.964 225.468L190.509 195.753C187.841 194.213 185.658 190.071 185.658 186.511V90.9627C185.658 87.3969 187.829 85.7595 190.509 87.3241L241.964 117.039C244.639 118.585 246.816 122.721 246.816 126.287V221.86C246.816 225.371 244.62 227.008 241.964 225.468Z" fill="#E9EAF2"/>
<path d="M241.964 164.758L190.509 135.043C187.841 133.503 185.658 129.361 185.658 125.801V30.2529C185.658 26.6871 187.829 25.0497 190.509 26.6143L241.964 56.3292C244.639 57.8756 246.816 62.0114 246.816 65.5772V161.15C246.816 164.661 244.62 166.299 241.964 164.758Z" fill="#E9EAF2"/>
<path d="M233.494 150.717C241.472 146.111 241.472 131.173 233.493 117.353C225.514 103.533 212.577 96.0636 204.599 100.67C196.62 105.276 196.621 120.214 204.6 134.034C212.579 147.854 225.515 155.324 233.494 150.717Z" fill="#CED0DB"/>
<path d="M239.276 74.1957L219.374 62.7039V58.0465L239.276 69.5383V74.1957Z" fill="#CED0DB"/>
<path d="M234.686 79.9202L219.374 71.0846V66.4273L234.686 75.2689V79.9202Z" fill="#CED0DB"/>
<path d="M239.276 101.078L194.164 75.0324V70.3811L239.276 96.4211V101.078Z" fill="#CED0DB"/>
<path d="M228.52 165.341L193.82 145.305V140.647L228.52 160.684V165.341Z" fill="#CED0DB"/>
<path d="M238.774 179.641L193.662 153.595V148.937L238.774 174.983V179.641Z" fill="#CED0DB"/>
<path d="M228.368 182.012L193.662 161.975V157.318L228.368 177.354V182.012Z" fill="#CED0DB"/>
<path d="M238.774 196.402L193.662 170.356V165.699L238.774 191.745V196.402Z" fill="#CED0DB"/>
<path d="M238.374 212.927L193.262 186.881V182.23L238.374 208.27V212.927Z" fill="#CED0DB"/>
<path d="M228.368 198.773L193.662 178.737V174.079L228.368 194.116V198.773Z" fill="#CED0DB"/>
<path d="M208.696 61.5029C209.964 59.4653 219.654 58.1251 222.838 66.3543C224.051 69.4652 223.863 77.4216 224.876 82.4246C225.888 87.4276 228.265 90.2535 229.121 94.3105C229.976 98.3675 228.581 105.16 218.811 106.36C209.042 107.561 201.522 104.135 199.218 101.018C196.913 97.9006 196.859 91.2784 199.26 87.7247C201.662 84.1711 203.475 81.2724 203.42 76.6453L208.696 61.5029Z" fill="#2B2A30"/>
<path d="M215.093 60.0898C215.093 60.0898 207.816 57.9855 203.377 61.9091C199.332 65.5113 199.672 70.3991 200.26 72.7217C200.848 75.0443 202.025 78.1795 203.856 78.3433C205.688 78.507 215.093 60.0898 215.093 60.0898Z" fill="#2B2A30"/>
<path d="M217.883 79.9806C217.883 79.9806 217.404 88.1128 217.55 88.7071C217.695 89.3014 220.745 89.8835 221.594 90.5931C222.443 91.3026 217.174 99.55 214.493 100.775C211.813 102 203.505 98.8768 202.929 94.7107C202.401 90.9084 205.306 87.9551 206.428 86.9242C207.189 86.8508 207.955 86.8306 208.72 86.8635L208.963 82.9218C212.601 81.7938 217.883 79.9806 217.883 79.9806Z" fill="#FFCEA9"/>
<path d="M198.223 95.3414C198.174 95.117 197.01 95.772 196.98 95.7902C196.949 95.8083 196.404 116.651 195.373 118.537C192.777 122.97 185.876 130.46 185.706 131.302C185.197 133.831 186.664 131.563 189.035 131.302C190.37 131.139 198.199 123.213 199.951 121.406L200.06 121.472C200.06 121.4 200.06 121.333 200.091 121.266L200.321 121.03C200.385 120.47 200.403 119.906 200.376 119.344C203.632 96.6816 199.63 95.1716 198.223 95.3414Z" fill="#FFCEA9"/>
<path d="M196.446 98.5432L196.033 108.586L195.372 116.499C195.372 116.499 195.5 117.561 194.335 119.416C193.171 121.272 186.949 128.98 186.949 128.98L189.763 131.314L196.173 126.051L200.418 97.6942L198.186 94.935L196.446 98.5432Z" fill="white"/>
<path d="M218.999 89.5012C221.279 89.8529 223.893 91.0718 224.25 92.3211C224.669 93.7826 225.572 100.659 223.596 105.893C221.619 111.126 220.284 114.456 219.15 116.705C219.15 116.705 209.266 120.95 201.297 116.002C201.297 116.002 200.751 110.399 200.691 107.397C193.335 100.981 199.623 93.067 205.851 86.9239C206.597 86.8473 207.348 86.8371 208.095 86.8936C208.095 86.8936 202.54 93.4672 206.403 97.2028C214.705 94.6983 216.349 90.9627 218.999 89.5012Z" fill="#F4F4F4"/>
<path d="M202.692 69.9077C203.517 64.6864 207.289 60.7385 212.674 61.0539C214.84 61.1727 216.915 61.9693 218.604 63.3311C220.293 64.6929 221.512 66.5511 222.088 68.6431C222.663 70.735 222.567 72.9551 221.813 74.9895C221.058 77.0239 219.684 78.7697 217.883 79.9804C217.695 80.7719 217.416 81.539 217.052 82.2667C215.142 84.4862 210.072 85.9052 208.399 85.9052C206.955 85.9052 205.706 84.5711 204.354 82.3273C201.528 77.6699 202.243 72.4911 202.692 69.9077Z" fill="#FFCEA9"/>
<path d="M214.342 61.1509C218.12 61.8908 221.231 62.9702 222.256 66.6633C222.959 69.2164 223.875 74.0921 223.002 76.1418L222.456 77.6215L217.883 79.9805C217.883 79.9805 215.749 78.2036 216.41 72.9884C216.389 72.2815 216.166 71.5954 215.767 71.0114C215.492 70.5167 215.288 69.986 215.161 69.4347C214.7 67.9793 213.529 67.009 212.195 66.2267C208.787 64.3165 203.802 65.9659 203.099 66.6573C205.379 61.9393 209.951 60.2898 214.342 61.1509Z" fill="#2B2A30"/>
<path d="M227.75 143.831C227.143 150.429 223.468 178.47 223.468 178.47C224.909 183.19 225.673 188.09 225.736 193.024C225.7 197.106 224.632 204.031 223.426 210.447L221.309 225.699L216.258 222.776L216.458 211.405C216.197 207.597 215.821 201.975 215.579 198.379C215.184 192.533 214.135 183.218 213.832 180.926C213.529 178.634 212.789 174.559 212.431 170.01C212.073 165.462 210.363 142.388 210.363 142.388L210.127 146.712C210.127 146.712 209.902 153.734 208.914 162.382C207.925 171.029 207.543 174.886 207.543 174.886C207.543 174.886 209.296 178.1 209.52 180.471C209.702 182.345 211.837 197.142 210.557 204.674L208.683 218.391L202.619 214.91L201.837 205.116C200.8 197.779 198.611 182.218 198.271 180.192C197.834 177.53 197.471 176.22 196.961 167.852C196.452 159.483 196.64 141.308 197.483 134.716C198.326 128.125 200.757 118.549 200.757 118.549C203.053 119.628 205.538 120.246 208.071 120.368C212.316 120.587 219.138 119.295 219.138 119.295C220.329 121.375 221.63 123.389 223.038 125.329C224.948 127.955 228.623 133.734 227.75 143.831Z" fill="#FFCEA9"/>
<path d="M219.15 116.706L224.827 128.113C224.827 128.113 233.492 140.793 224.511 173.395L226.197 183.449C226.197 183.449 209.217 194.365 197.835 183.449C197.835 183.449 193.887 153.322 195.985 139.429C197.15 131.439 198.92 123.549 201.279 115.827C201.279 115.827 204.063 118.901 218.392 116.87" fill="#FFC618"/>
<path d="M205.876 86.9242C205.876 86.9242 197.471 88.2947 196.446 98.5433L198.368 96.6209C198.368 96.6209 203.08 89.4893 205.876 86.9242Z" fill="white"/>
<path d="M208.12 86.8936C205.949 91.084 200.236 97.9306 201.855 105.341C204.002 115.22 199.891 174.413 199.891 174.413C199.891 174.413 195.039 171.339 195.039 168.876C195.039 166.414 196.858 102.521 196.858 99.4952C196.858 96.4691 202.171 91.0962 205.779 86.8997C206.733 86.5567 207.742 86.3903 208.756 86.4085C208.756 86.6329 208.756 86.6632 208.726 86.8936C208.544 86.9057 208.441 86.8936 208.12 86.8936Z" fill="white"/>
<path d="M170.661 141.127L190.066 129.847L204.002 137.895L184.59 149.174L170.661 141.127Z" fill="#ADB3BC"/>
<path d="M187.562 130.672C186.349 130.951 185.136 131.042 184.117 131.8C183.741 132.135 183.335 132.436 182.904 132.697C182.71 132.8 182.522 132.922 182.298 133.007C182 133.111 181.733 133.288 181.522 133.522C181.302 133.837 181.181 134.211 181.176 134.595C181.081 135.058 181.059 135.533 181.109 136.002C181.279 136.7 182.001 136.645 182.383 136.16C182.576 135.917 182.688 135.621 182.704 135.311C182.714 135.016 182.793 134.728 182.935 134.47C183.078 134.212 183.279 133.991 183.523 133.825L188.162 130.945C188.103 130.842 188.014 130.76 187.906 130.711C187.798 130.662 187.678 130.649 187.562 130.672Z" fill="#FFCEA9"/>
<path d="M225.27 104.947C225.27 104.947 225.112 122.357 225.749 127.991C226.385 133.625 234.421 150.132 227.344 172.527C226.301 173.74 225.342 176.196 216.428 177.227C211.11 177.227 209.181 176.414 209.181 176.414C209.181 176.414 211.237 138.858 208.253 105.881C208.253 96.7844 216.076 97.8396 217.526 87.7608C224.433 90.9869 224.439 92.0057 224.439 92.0057L225.27 104.947Z" fill="white"/>
<path opacity="0.1" d="M221.764 91.8121C217.962 92.2366 217.465 97.0577 217.465 97.0577L217.289 104.438C217.289 104.438 217.701 113.85 218.793 116.718L202.298 128.052L205.894 132.243C205.894 132.243 223.323 124.195 224.693 122.922C226.064 121.648 224.693 106.882 224.905 102.631C225.821 94.6017 225.591 91.3876 221.764 91.8121Z" fill="black"/>
<path d="M224.493 95.8934C223.85 93.2555 221.782 94.1044 220.006 92.5581C215.876 98.3979 218.617 114.195 219.175 115.881L203.335 125.978C203.08 126.148 202.535 126.482 202.274 126.645C200.837 127.512 198.071 129.016 196.385 129.21C194.797 129.392 193.96 131.636 192.274 131.824C192.145 131.829 192.02 131.871 191.915 131.946C191.81 132.021 191.73 132.125 191.684 132.245C191.638 132.366 191.629 132.497 191.657 132.623C191.685 132.748 191.75 132.863 191.843 132.952C192.522 133.607 194.336 133.067 195.573 131.618C195.569 131.654 195.569 131.691 195.573 131.727C195.568 132.014 195.665 132.294 195.848 132.516C196.03 132.738 196.285 132.888 196.567 132.94C196.568 133.045 196.597 133.148 196.652 133.237C196.739 133.422 196.872 133.581 197.037 133.701C197.203 133.821 197.396 133.897 197.598 133.922C197.683 134.193 197.859 134.426 198.098 134.58C198.336 134.734 198.62 134.799 198.902 134.765C199.263 134.745 199.603 134.589 199.854 134.329C201.205 133.809 202.398 132.948 203.317 131.83C204.133 130.991 204.991 130.193 205.888 129.441C210.188 127.591 223.08 122.085 223.656 121.303C224.493 120.144 225.409 99.6593 224.493 95.8934Z" fill="#FFCEA9"/>
<path d="M221.128 90.5386C217.326 90.9631 216.828 95.7842 216.828 95.7842L216.652 103.158C216.652 103.158 217.065 112.576 218.15 115.445L201.662 126.779L205.258 130.969C205.258 130.969 222.686 122.922 224.027 121.648C225.367 120.375 225.706 107.252 225.937 103.007C226.883 94.9898 224.936 90.1141 221.128 90.5386Z" fill="white"/>
<path opacity="0.4" d="M102.971 290.732C119.536 290.732 132.965 282.978 132.965 273.412C132.965 263.847 119.536 256.093 102.971 256.093C86.4061 256.093 72.9774 263.847 72.9774 273.412C72.9774 282.978 86.4061 290.732 102.971 290.732Z" fill="#D6D8E5"/>
<path d="M81.6006 144.996C81.2671 147.913 77.7862 160.496 78.5321 164.808C79.278 169.119 91.17 176.33 91.17 176.33L92.8195 168.949L86.2337 162.521L88.0105 150.302L81.6006 144.996Z" fill="#FFCEA9"/>
<path d="M90.8004 132.594C89.1024 131.86 85.949 131.697 84.1783 134.595C82.4075 137.494 80.6125 147.427 80.4487 149.15C80.4487 149.15 82.9048 152.54 86.5858 151.976L90.8004 132.594Z" fill="#FFC618"/>
<path d="M104.378 272.891C106.966 273.603 109.731 273.267 112.074 271.957C113.923 272.011 123.984 267.712 125.355 271.32C126.567 274.492 122.195 277.421 119.866 277.991C114.784 279.204 111.025 281.757 108.981 282.187C107.465 282.509 105.494 282.721 104.281 281.526C102.832 280.095 102.953 274.789 104.378 272.891Z" fill="#50555C"/>
<path d="M108.981 281.314C111.025 280.89 114.785 278.355 119.867 277.124C121.819 276.651 125.179 274.516 125.518 271.969C125.967 274.886 122.038 277.476 119.867 277.997C114.785 279.21 111.025 281.763 108.981 282.194C107.465 282.515 105.494 282.727 104.281 281.533C103.968 281.185 103.74 280.77 103.614 280.32C105.385 281.787 107.465 281.636 108.981 281.314Z" fill="#111111"/>
<path d="M88.0594 265.571C90.6465 266.289 93.4126 265.956 95.7549 264.643C97.6106 264.698 107.665 260.398 109.036 264.037C110.249 267.209 105.876 270.138 103.548 270.708C98.4656 271.921 94.7058 274.474 92.6682 274.904C91.1461 275.226 89.1752 275.438 87.9684 274.237C86.513 272.77 86.6403 267.463 88.0594 265.571Z" fill="#50555C"/>
<path d="M92.6683 273.989C94.7059 273.558 98.4657 271.029 103.548 269.798C105.5 269.325 108.86 267.184 109.199 264.643C109.654 267.56 105.719 270.15 103.548 270.671C98.4657 271.884 94.7059 274.437 92.6683 274.868C91.1461 275.189 89.1753 275.401 87.9685 274.201C87.651 273.857 87.4221 273.44 87.3014 272.988C89.0661 274.455 91.1461 274.31 92.6683 273.989Z" fill="#111111"/>
<path d="M87.8593 238.24C88.2947 234.503 89.0722 230.815 90.182 227.221C90.182 227.221 89.4906 217.706 89.145 208.695C88.7508 198.464 85.2032 189.459 87.9988 181.296L119.569 188.319C119.569 188.319 117.659 229.107 117.235 234.043C117.006 237.885 116.537 241.709 115.828 245.492C114.384 253.412 112.044 272.248 112.044 272.248C108.702 274.189 104.324 273.115 104.324 273.115C104.324 273.115 104.566 249.295 104.779 243.588C105.039 236.62 105.252 237.154 105.252 237.154L104.209 219.804L103.529 211.169C103.529 211.169 102.656 217.506 102.086 223.164C101.589 228.1 100.4 232.563 99.054 241.745C97.9018 249.713 96.0218 265.723 96.0218 265.723C92.6865 267.663 88.1383 266.056 88.1383 266.056C88.1383 266.056 86.9558 245.153 87.8593 238.24Z" fill="#ADB3BC"/>
<path d="M92.4679 132.764C94.8936 132.885 96.6643 133.504 96.9676 132.764C97.2243 131.523 97.4066 130.267 97.5134 129.004C97.2344 128.307 96.9979 127.561 96.9979 127.561C93.9658 125.699 93.0258 122.437 92.6256 118.64C91.9524 112.146 95.4576 106.457 101.952 105.778C108.059 105.172 112.553 109.417 113.747 115.329C114.396 118.234 115.682 123.734 113.941 128.519C112.971 131.193 111.722 133.316 110.467 133.728C109.259 133.693 108.054 133.588 106.858 133.413C106.858 133.413 106.537 135.232 106.313 136.372C106.088 137.512 106.179 138.143 108.484 139.568C110.788 140.993 104.997 143.904 101.206 143.619C97.4163 143.334 93.1713 141.048 92.0009 138.598C90.7092 135.899 90.8184 132.685 92.4679 132.764Z" fill="#FFCEA9"/>
<path d="M95.949 133.122C95.2819 134.783 96.9739 136.815 101.492 138.234C106.01 139.653 106.41 137.828 106.41 137.828C106.41 137.828 113.032 140.86 115.185 142.345C117.896 144.244 119.096 149.726 119.466 158.98C119.885 169.689 119.921 185.578 119.569 188.319C119.569 188.319 114.506 193.364 108.047 192.83C101.589 192.297 90.661 186.566 88.0351 182.133C88.1079 172.746 89.2055 171.217 87.6834 165.808C84.2025 153.425 82.3711 148.355 84.0449 140.126C85.4396 133.34 87.3923 132.497 90.0727 132.564C92.04 132.646 94.0015 132.832 95.949 133.122Z" fill="#FFFAF3"/>
<path d="M129.654 167.834C124.336 169.174 123.086 165.82 122.377 163.043C120.685 156.318 119.775 150.247 118.514 146.433C117.028 141.933 115.482 141.212 113.287 140.338C110.715 139.307 108.508 141.478 109.363 147.203C110.376 153.983 111.704 158.725 114.214 166.76C114.875 168.852 116.355 172.576 118.581 174.371C121.322 176.59 125.458 176.493 131.71 174.941C134.378 174.274 137.301 172.679 142.347 170.326C143.699 169.72 144.772 169.277 147.35 168.064C149.927 166.851 152.656 164.832 154.02 162.861C155.385 160.89 155.561 159.962 155.282 159.513C154.936 158.95 154.317 159.071 153.59 159.902C152.54 161.305 151.243 162.505 149.763 163.443C149.763 163.443 151.443 161.709 152.353 160.581C153.169 159.581 153.846 158.475 154.366 157.294C154.845 156.142 153.857 154.583 153.105 155.402C152.353 156.221 151.995 157.057 150.618 158.707C149.891 159.584 149.063 160.372 148.15 161.054C149.003 159.903 149.764 158.686 150.424 157.415C151.297 155.632 151.285 154.717 151.249 154.116C151.213 153.516 150.364 152.8 149.569 153.934C148.847 154.959 148.356 156.56 146.713 158.301C145.5 159.562 144.463 160.29 144.433 159.938C144.402 159.586 145.166 158.895 145.603 157.427C146.04 155.96 145.603 154.395 144.79 154.238C143.978 154.08 144.136 154.116 143.481 155.487C142.826 156.857 141.831 157.876 141.055 159.883C140.382 161.648 140.079 162.364 138.866 163.649C137.598 165.02 134.712 166.56 129.654 167.834Z" fill="#FFCEA9"/>
<path d="M111.322 139.416C114.876 138.895 117.386 140.496 118.951 145.875C120.515 151.254 121.619 155.675 121.619 155.675C120.213 157.702 118.084 159.114 115.67 159.622C111.425 160.653 109.891 158.622 109.891 158.622C109.891 158.622 108.678 152.982 107.975 149.143C107.271 145.305 106.925 140.083 111.322 139.416Z" fill="#FFC618"/>
<path d="M113.542 114.498C113.542 114.498 119.157 105.966 106.998 104.225C98.2295 102.976 92.5897 108.61 91.9409 114.723C91.3344 120.562 94.9184 126.627 97.5139 129.034C98.7814 129.489 101.51 129.75 105.094 128.119C105.238 126.528 105.292 124.931 105.258 123.334C105.258 123.334 100.983 114.341 113.542 114.498Z" fill="#111111"/>
<path opacity="0.4" d="M207.671 303.212C215.692 303.212 222.195 299.457 222.195 294.825C222.195 290.193 215.692 286.439 207.671 286.439C199.65 286.439 193.147 290.193 193.147 294.825C193.147 299.457 199.65 303.212 207.671 303.212Z" fill="#D6D8E5"/>
<path d="M209.83 302.672C217.851 302.672 224.354 298.917 224.354 294.285C224.354 289.653 217.851 285.899 209.83 285.899C201.809 285.899 195.306 289.653 195.306 294.285C195.306 298.917 201.809 302.672 209.83 302.672Z" fill="#D9DCE8"/>
<path d="M195.306 294.152V289.944L199.921 291.49L195.306 294.152Z" fill="#D9DCE8"/>
<path d="M224.342 290.241V294.019L219.023 292.976L224.342 290.241Z" fill="#D9DCE8"/>
<path d="M209.83 298.361C217.851 298.361 224.354 294.606 224.354 289.974C224.354 285.342 217.851 281.587 209.83 281.587C201.809 281.587 195.306 285.342 195.306 289.974C195.306 294.606 201.809 298.361 209.83 298.361Z" fill="#EFF1F9"/>
<path d="M200.309 296.305L198.732 295.395L219.211 283.576L220.782 284.486L200.309 296.305Z" fill="#D3D6E2"/>
<path d="M198.732 295.395V299.701L200.163 300.55L200.363 300.647V296.305L198.732 295.395Z" fill="#C5C8D3"/>
<path opacity="0.4" d="M14.5239 288.021C22.5453 288.021 29.0478 284.266 29.0478 279.634C29.0478 275.002 22.5453 271.247 14.5239 271.247C6.50258 271.247 0 275.002 0 279.634C0 284.266 6.50258 288.021 14.5239 288.021Z" fill="#D6D8E5"/>
<path d="M16.6829 287.481C24.7042 287.481 31.2068 283.726 31.2068 279.095C31.2068 274.463 24.7042 270.708 16.6829 270.708C8.66154 270.708 2.15896 274.463 2.15896 279.095C2.15896 283.726 8.66154 287.481 16.6829 287.481Z" fill="#D9DCE8"/>
<path d="M2.15896 278.955V274.74L6.77386 276.293L2.15896 278.955Z" fill="#D9DCE8"/>
<path d="M31.1946 275.05V278.828L25.8762 277.779L31.1946 275.05Z" fill="#D9DCE8"/>
<path d="M16.6829 283.17C24.7042 283.17 31.2068 279.415 31.2068 274.783C31.2068 270.151 24.7042 266.396 16.6829 266.396C8.66154 266.396 2.15896 270.151 2.15896 274.783C2.15896 279.415 8.66154 283.17 16.6829 283.17Z" fill="#EFF1F9"/>
<path d="M7.16204 281.114L5.59139 280.204L26.0644 268.385L27.6411 269.295L7.16204 281.114Z" fill="#D3D6E2"/>
<path d="M5.59139 280.204V284.51L7.0165 285.353L7.21662 285.456V281.114L5.59139 280.204Z" fill="#C5C8D3"/>
<path opacity="0.4" d="M284.329 279.652C292.351 279.652 298.853 275.897 298.853 271.266C298.853 266.634 292.351 262.879 284.329 262.879C276.308 262.879 269.805 266.634 269.805 271.266C269.805 275.897 276.308 279.652 284.329 279.652Z" fill="#D6D8E5"/>
<path d="M147.631 321.326C155.652 321.326 162.154 317.571 162.154 312.939C162.154 308.307 155.652 304.552 147.631 304.552C139.609 304.552 133.107 308.307 133.107 312.939C133.107 317.571 139.609 321.326 147.631 321.326Z" fill="#D9DCE8"/>
<path d="M271.964 270.592C271.964 270.556 271.964 266.378 271.964 266.378L276.585 267.93L271.964 270.592Z" fill="#D9DCE8"/>
<path d="M301 266.681V270.459L295.682 269.41L301 266.681Z" fill="#D9DCE8"/>
<path d="M147.631 317.014C155.652 317.014 162.154 313.259 162.154 308.627C162.154 303.996 155.652 300.241 147.631 300.241C139.609 300.241 133.107 303.996 133.107 308.627C133.107 313.259 139.609 317.014 147.631 317.014Z" fill="#EFF1F9"/>
<path d="M138.116 314.958L136.539 314.049L157.012 302.23L158.589 303.139L138.116 314.958Z" fill="#D3D6E2"/>
<path d="M136.539 314.049V318.355L137.97 319.198L138.17 319.301V314.959L136.539 314.049Z" fill="#C5C8D3"/>
</svg>
