<svg width="21" height="20" viewBox="0 0 21 20" fill="none" xmlns="http://www.w3.org/2000/svg">
<path fill-rule="evenodd" clip-rule="evenodd" d="M21.0001 16.9697C21.0001 17.5552 20.5308 18.0303 19.9501 18.0303C19.3694 18.0303 18.9001 17.5552 18.9001 16.9697C18.9001 15.2155 17.4868 13.7879 15.7501 13.7879C15.0329 13.7879 14.3515 14.0361 13.8013 14.4762C14.3725 15.5326 14.7001 16.7438 14.7001 18.0303C14.7001 18.6158 14.2307 19.091 13.6501 19.091C13.0694 19.091 12.6001 18.6158 12.6001 18.0303C12.6001 15.1062 10.2449 12.7273 7.35004 12.7273C4.45517 12.7273 2.10001 15.1062 2.10001 18.0303C2.10001 18.6158 1.63066 19.091 1.05001 19.091C0.469352 19.091 0 18.6158 0 18.0303C0 13.9364 3.29807 10.6061 7.35004 10.6061C9.3734 10.6061 11.2067 11.4365 12.5371 12.7761C13.4495 12.0633 14.573 11.6667 15.7501 11.6667C18.6449 11.6667 21.0001 14.0456 21.0001 16.9697ZM15.75 6.3636C16.3296 6.3636 16.8 6.83981 16.8 7.42421C16.8 8.00861 16.3296 8.48482 15.75 8.48482C15.1704 8.48482 14.7 8.00861 14.7 7.42421C14.7 6.83981 15.1704 6.3636 15.75 6.3636ZM15.7501 10.6061C17.4868 10.6061 18.9001 9.17855 18.9001 7.4243C18.9001 5.67005 17.4868 4.24247 15.7501 4.24247C14.0134 4.24247 12.6001 5.67005 12.6001 7.4243C12.6001 9.17855 14.0134 10.6061 15.7501 10.6061ZM7.35008 2.12113C8.50824 2.12113 9.45009 3.0725 9.45009 4.24235C9.45009 5.41221 8.50824 6.36357 7.35008 6.36357C6.19192 6.36357 5.25007 5.41221 5.25007 4.24235C5.25007 3.0725 6.19192 2.12113 7.35008 2.12113ZM7.34994 8.48489C9.66625 8.48489 11.55 6.58215 11.55 4.24245C11.55 1.90274 9.66625 0 7.34994 0C5.03362 0 3.14991 1.90274 3.14991 4.24245C3.14991 6.58215 5.03362 8.48489 7.34994 8.48489Z" fill="#7ACEFA"/>
</svg>
