<svg width="16" height="14" viewBox="0 0 16 14" fill="none" xmlns="http://www.w3.org/2000/svg">
<path d="M1.99788 14C1.46801 14 0.959843 13.8156 0.585167 13.4874C0.210491 13.1592 0 12.7141 0 12.25L0 1.74999C0 1.28587 0.210491 0.840749 0.585167 0.512562C0.959843 0.184374 1.46801 0 1.99788 0L13.9852 0C14.5151 0 15.0232 0.184374 15.3979 0.512562C15.7726 0.840749 15.9831 1.28587 15.9831 1.74999V12.25C15.9831 12.7141 15.7726 13.1592 15.3979 13.4874C15.0232 13.8156 14.5151 14 13.9852 14H1.99788ZM10.0853 4.54736L5.99365 8.13135V5.70936C5.99365 5.59333 5.94103 5.48205 5.84736 5.4C5.75369 5.31795 5.62665 5.27186 5.49418 5.27186C5.36172 5.27186 5.23467 5.31795 5.141 5.4C5.04734 5.48205 4.99471 5.59333 4.99471 5.70936L4.99471 9.18747C4.99471 9.3035 5.04734 9.41478 5.141 9.49683C5.23467 9.57888 5.36172 9.62497 5.49418 9.62497H9.46498C9.59745 9.62497 9.72449 9.57888 9.81816 9.49683C9.91183 9.41478 9.96445 9.3035 9.96445 9.18747C9.96445 9.07144 9.91183 8.96016 9.81816 8.87811C9.72449 8.79607 9.59745 8.74997 9.46498 8.74997H6.69991L10.7916 5.16598C10.8393 5.12563 10.8773 5.07735 10.9035 5.02397C10.9297 4.9706 10.9435 4.91319 10.944 4.8551C10.9446 4.79701 10.932 4.7394 10.9069 4.68563C10.8818 4.63186 10.8447 4.58302 10.7978 4.54194C10.7509 4.50086 10.6951 4.46837 10.6337 4.44638C10.5723 4.42438 10.5066 4.41331 10.4402 4.41381C10.3739 4.41432 10.3084 4.42639 10.2474 4.44932C10.1865 4.47225 10.1314 4.50558 10.0853 4.54736Z" fill="#FF0000" fill-opacity="0.75"/>
</svg>
