<svg width="20" height="20" viewBox="0 0 20 20" fill="none" xmlns="http://www.w3.org/2000/svg">
<path fill-rule="evenodd" clip-rule="evenodd" d="M5.72266 14.0432H5.39248C5.21054 14.0432 5.06229 14.1772 5.06229 14.3418C5.06229 14.5063 5.21054 14.6403 5.39248 14.6403H5.72266C5.90459 14.6403 6.05285 14.5063 6.05285 14.3418C6.05285 14.1772 5.90459 14.0432 5.72266 14.0432ZM5.72266 12.5549H5.39248C5.21054 12.5549 5.06229 12.689 5.06229 12.8535C5.06229 13.018 5.21054 13.152 5.39248 13.152H5.72266C5.90459 13.152 6.05285 13.018 6.05285 12.8535C6.05285 12.689 5.90459 12.5549 5.72266 12.5549ZM5.72266 11.0671H5.39248C5.21054 11.0671 5.06229 11.2012 5.06229 11.3657C5.06229 11.5302 5.21054 11.6643 5.39248 11.6643H5.72266C5.90459 11.6643 6.05285 11.5302 6.05285 11.3657C6.05285 11.2012 5.90459 11.0671 5.72266 11.0671ZM11.6456 14.0432H7.03685C6.85546 14.0432 6.70766 14.1768 6.70766 14.3409C6.70766 14.5049 6.85546 14.6385 7.03685 14.6385H11.6456C11.827 14.6385 11.9748 14.5049 11.9748 14.3409C11.9748 14.1768 11.827 14.0432 11.6456 14.0432ZM7.0368 13.1502H10.9865C11.1679 13.1502 11.3157 13.0165 11.3157 12.8525C11.3157 12.6885 11.1679 12.5549 10.9865 12.5549H7.0368C6.85544 12.5549 6.70766 12.6885 6.70766 12.8525C6.70766 13.0165 6.85544 13.1502 7.0368 13.1502ZM11.6456 11.0671H7.03685C6.85546 11.0671 6.70766 11.2008 6.70766 11.3648C6.70766 11.5288 6.85546 11.6625 7.03685 11.6625H11.6456C11.827 11.6625 11.9748 11.5288 11.9748 11.3648C11.9748 11.2008 11.827 11.0671 11.6456 11.0671ZM7.36582 6.60801H8.22251C8.4036 6.60801 8.55176 6.47404 8.55176 6.31029V5.53562H9.47232V6.31029C9.47232 6.47404 9.62048 6.60801 9.80157 6.60801H10.6583V7.44044H9.80157C9.62048 7.44044 9.47232 7.57441 9.47232 7.73816V8.51282H8.55176V7.73816C8.55176 7.57441 8.4036 7.44044 8.22251 7.44044H7.36582V6.60801ZM7.03698 8.03499H7.89342V8.80942C7.89342 8.97342 8.03989 9.10706 8.22256 9.10706H9.80114C9.98382 9.10706 10.1303 8.97342 10.1303 8.80942V8.03499H10.9867C11.1681 8.03499 11.3159 7.90254 11.3159 7.73735V6.30991C11.3159 6.14473 11.1681 6.01228 10.9867 6.01228H10.1303V5.23784C10.1303 5.07385 9.98382 4.94021 9.80114 4.94021H8.22256C8.03989 4.94021 7.89342 5.07385 7.89342 5.23784V6.01228H7.03698C6.85562 6.01228 6.70783 6.14473 6.70783 6.30991V7.73735C6.70783 7.90254 6.85562 8.03499 7.03698 8.03499Z" fill="#151921"/>
<path fill-rule="evenodd" clip-rule="evenodd" d="M14.9358 14.3422C14.0265 14.3422 13.2896 13.6759 13.2896 12.8536C13.2896 12.0313 14.0265 11.365 14.9358 11.365C15.8452 11.365 16.5821 12.0313 16.5821 12.8536C16.5821 13.6759 15.8452 14.3422 14.9358 14.3422ZM14.6057 16.8429C14.6057 17.3354 14.1635 17.7356 13.6185 17.7356H4.40443C3.85948 17.7356 3.41721 17.3354 3.41721 16.8429V4.04751C3.41721 3.55474 3.85948 3.15481 4.40443 3.15481H5.91883C5.93035 3.1932 5.94581 3.23129 5.96358 3.26759C5.98431 3.30479 6.00735 3.34079 6.03302 3.37442C6.22849 3.61634 6.5421 3.75679 6.87249 3.74995H11.1504C11.4822 3.7559 11.7971 3.61515 11.9925 3.37204C12.0218 3.33603 12.0465 3.29675 12.0656 3.25599C12.0824 3.22325 12.0952 3.18963 12.1041 3.15481H13.6185C14.1635 3.15481 14.6057 3.55474 14.6057 4.04751V10.7904C14.5801 10.7868 14.5531 10.7868 14.5274 10.7904C14.4965 10.7904 14.4669 10.7963 14.4372 10.8056C14.3744 10.8172 14.3112 10.8323 14.251 10.8496C14.1829 10.8683 14.1147 10.8904 14.0493 10.9148C13.9153 10.9683 13.787 11.0323 13.6649 11.1055C13.553 11.1736 13.4487 11.2507 13.3523 11.334C13.3138 11.3671 13.2766 11.4019 13.243 11.4391L13.2006 11.4807C13.1608 11.5215 13.1236 11.5647 13.089 11.6087C13.0555 11.6471 13.0258 11.6867 12.9962 11.7274L12.9502 11.8018C12.9307 11.8304 12.9126 11.861 12.8975 11.8911C12.8666 11.9446 12.837 11.9994 12.8126 12.055C12.7971 12.0842 12.7856 12.1131 12.7764 12.1446C12.7599 12.1794 12.7458 12.2166 12.7366 12.2538C12.7264 12.2758 12.7201 12.299 12.7175 12.3226C12.7033 12.3618 12.6931 12.4011 12.6879 12.4422C12.6737 12.5014 12.6635 12.563 12.6569 12.6231C12.6402 12.7641 12.6402 12.9061 12.6569 13.045C12.6635 13.1066 12.6737 13.1673 12.6879 13.2281C12.6931 13.2673 12.7033 13.3081 12.7175 13.3465C12.7201 13.3697 12.7264 13.3926 12.7366 13.4149C12.7458 13.4521 12.7599 13.4893 12.7764 13.5256C12.7856 13.5557 12.7971 13.586 12.8126 13.6137C12.837 13.6708 12.8666 13.7253 12.8975 13.7774C12.9117 13.8104 12.9294 13.8404 12.9502 13.8708C12.9502 13.894 12.9798 13.9184 12.9962 13.9416C13.013 13.9648 13.0555 14.022 13.089 14.06C13.1236 14.1056 13.1608 14.1481 13.2006 14.188L13.243 14.23C13.2766 14.2672 13.3138 14.302 13.3523 14.3341C13.4487 14.4183 13.553 14.4948 13.6649 14.5635C13.787 14.6379 13.9153 14.7007 14.0493 14.754C14.1147 14.7784 14.1829 14.8007 14.251 14.8188C14.3138 14.8379 14.377 14.8519 14.4372 14.8647C14.4669 14.8676 14.4978 14.8676 14.5274 14.8647C14.5531 14.8668 14.5801 14.8668 14.6057 14.8647V16.8429ZM6.54331 2.46247C6.54331 2.36722 6.67827 2.26245 6.87248 2.26245H11.1516C11.3459 2.26245 11.4808 2.36722 11.4808 2.46247V2.95538C11.4795 2.98455 11.4693 3.01253 11.4512 3.03693C11.3778 3.117 11.2675 3.16135 11.1516 3.1554H6.87248C6.75925 3.16224 6.64865 3.11819 6.57689 3.03902C6.55615 3.01461 6.54463 2.98574 6.54331 2.95538V2.46247ZM15.2657 10.7948V4.0475C15.2657 3.22552 14.5291 2.55948 13.6201 2.55948H12.1391V2.46186C12.1055 1.99671 11.6658 1.64345 11.1517 1.66666H6.87324C6.35916 1.64345 5.91946 1.99671 5.88589 2.46186V2.55948H4.40487C3.49585 2.55948 2.75929 3.22552 2.75929 4.0475V16.8445C2.75929 17.6665 3.49585 18.3325 4.40487 18.3325H13.6201C14.5291 18.3325 15.2657 17.6665 15.2657 16.8445V14.9136C16.3906 14.7574 17.2223 13.8824 17.2223 12.8536C17.2223 11.8248 16.3906 10.9492 15.2657 10.7948Z" fill="#151921"/>
<path fill-rule="evenodd" clip-rule="evenodd" d="M16.165 12.082C16.0362 11.9664 15.829 11.9664 15.7006 12.082L14.5412 13.0616L14.2118 12.7009C14.0935 12.5764 13.885 12.5609 13.7474 12.6684C13.6084 12.7753 13.5929 12.9639 13.7115 13.0884L14.2737 13.684C14.333 13.7457 14.4153 13.7841 14.5053 13.7883H14.5247C14.608 13.7883 14.6881 13.7597 14.7483 13.7085L16.161 12.5171C16.2279 12.4608 16.2668 12.3822 16.2677 12.2991C16.2677 12.2181 16.2305 12.1386 16.165 12.082Z" fill="#151921"/>
</svg>
