<svg width="20" height="20" viewBox="0 0 20 20" fill="none" xmlns="http://www.w3.org/2000/svg">
<path fill-rule="evenodd" clip-rule="evenodd" d="M7.37244 14.321C7.2738 14.321 7.18109 14.2841 7.11211 14.2191C7.0424 14.1587 7.00161 14.0749 7.00161 13.9857C7.00161 13.9387 7.01718 13.8965 7.03053 13.8576C7.0513 13.8153 7.078 13.7764 7.11211 13.7449C7.25377 13.6242 7.5 13.6242 7.63944 13.7449C7.70545 13.81 7.74327 13.8965 7.74327 13.9857C7.74327 14.0722 7.70545 14.1587 7.63944 14.2191C7.60458 14.2526 7.56082 14.2794 7.51484 14.2948C7.46811 14.3056 7.4251 14.321 7.37244 14.321ZM7.37256 12.9833C7.27392 12.9833 7.18121 12.9464 7.11224 12.8813C7.04252 12.821 7.00173 12.7371 7.00173 12.6479C7.00173 12.601 7.01731 12.5587 7.03066 12.5198C7.05142 12.4776 7.07812 12.438 7.11224 12.4072C7.2539 12.2864 7.50013 12.2864 7.63956 12.4072C7.70557 12.4722 7.7434 12.5587 7.7434 12.6479C7.7434 12.7344 7.70557 12.821 7.63956 12.8813C7.6047 12.9148 7.56095 12.941 7.51496 12.9571C7.46824 12.9678 7.42522 12.9833 7.37256 12.9833ZM7.37258 11.6454C7.27394 11.6454 7.18123 11.6085 7.11225 11.5435C7.04254 11.4831 7.00174 11.3993 7.00174 11.3101C7.00174 11.2155 7.04847 11.1344 7.11225 11.0693C7.25391 10.9486 7.50014 10.9486 7.63958 11.0693C7.70558 11.1344 7.74341 11.2209 7.74341 11.3101C7.74341 11.3966 7.70558 11.4831 7.63958 11.5435C7.60472 11.577 7.56096 11.6038 7.51498 11.6193C7.46825 11.63 7.42524 11.6454 7.37258 11.6454ZM7.37245 10.3082C7.27381 10.3082 7.1811 10.2713 7.11213 10.2062C7.08024 10.1747 7.05131 10.1405 7.03054 10.0989C7.01349 10.0593 7.00459 10.0171 7.00162 9.97284C7.00162 9.87827 7.04834 9.79712 7.11213 9.73207C7.24785 9.61135 7.50002 9.61135 7.63945 9.73207C7.66838 9.7656 7.70027 9.80517 7.71436 9.84474C7.73513 9.88632 7.74328 9.92589 7.74328 9.97284C7.74328 10.0124 7.73513 10.0593 7.72326 10.0989C7.70027 10.1405 7.67134 10.1747 7.63945 10.2062C7.60459 10.2398 7.56084 10.2666 7.51485 10.282C7.46813 10.3001 7.42511 10.3082 7.37245 10.3082ZM7.37238 8.96993C7.3264 8.96725 7.27671 8.95652 7.23369 8.94378C7.14395 8.90689 7.07127 8.84184 7.03344 8.76002C7.01713 8.72112 7.00452 8.67887 7.00155 8.63461C7.00155 8.54004 7.04828 8.45889 7.11503 8.39384C7.20996 8.29928 7.38128 8.27312 7.51478 8.32543C7.5667 8.33885 7.60452 8.36702 7.63938 8.39384C7.67127 8.42737 7.7002 8.46694 7.71429 8.50651C7.73728 8.54809 7.74322 8.58766 7.74322 8.63461C7.74322 8.67417 7.73728 8.72112 7.72319 8.76002C7.7002 8.80227 7.67127 8.83647 7.64161 8.86799C7.60452 8.90153 7.56373 8.92768 7.51478 8.94378C7.46806 8.95451 7.42504 8.96993 7.37238 8.96993ZM12.5892 14.3171H8.88874C8.68373 14.3171 8.51869 14.1678 8.51869 13.9825C8.51869 13.7998 8.68373 13.6478 8.88874 13.6478H12.5892C12.7949 13.6478 12.9592 13.7998 12.9592 13.9825C12.9592 14.1678 12.7949 14.3171 12.5892 14.3171ZM12.5893 12.9793H8.88886C8.68386 12.9793 8.51882 12.8301 8.51882 12.6447C8.51882 12.462 8.68386 12.3101 8.88886 12.3101H12.5893C12.7951 12.3101 12.9594 12.462 12.9594 12.6447C12.9594 12.8301 12.7951 12.9793 12.5893 12.9793ZM12.5894 11.6418H8.88889C8.68389 11.6418 8.51885 11.4925 8.51885 11.3071C8.51885 11.1244 8.68389 10.9725 8.88889 10.9725H12.5894C12.7951 10.9725 12.9594 11.1244 12.9594 11.3071C12.9594 11.4925 12.7951 11.6418 12.5894 11.6418ZM12.5896 10.304H8.88914C8.68414 10.304 8.5191 10.1548 8.5191 9.96938C8.5191 9.78668 8.68414 9.63477 8.88914 9.63477H12.5896C12.7954 9.63477 12.9597 9.78668 12.9597 9.96938C12.9597 10.1548 12.7954 10.304 12.5896 10.304ZM12.5896 8.96563H8.88909C8.68409 8.96563 8.51904 8.81639 8.51904 8.63101C8.51904 8.44831 8.68409 8.29639 8.88909 8.29639H12.5896C12.7953 8.29639 12.9596 8.44831 12.9596 8.63101C12.9596 8.81639 12.7953 8.96563 12.5896 8.96563Z" fill="#151921"/>
<path fill-rule="evenodd" clip-rule="evenodd" d="M9.99886 15.6543C10.0506 15.6543 10.1061 15.665 10.1549 15.6858L14.4369 17.473V2.33478H5.56081V17.473L9.84278 15.6858C9.8916 15.665 9.94412 15.6543 9.99886 15.6543ZM14.808 18.332C14.7532 18.332 14.7007 18.3213 14.6519 18.3006L9.9995 16.3593L5.34711 18.3006C5.2317 18.3501 5.09855 18.3427 4.99128 18.2798C4.88475 18.2196 4.82113 18.1126 4.82113 17.9975V2.00055C4.82113 1.81526 4.9861 1.66608 5.19102 1.66608H14.808C15.0129 1.66608 15.1779 1.81526 15.1779 2.00055V17.9975C15.1779 18.1828 15.0129 18.332 14.808 18.332Z" fill="#151921"/>
<path fill-rule="evenodd" clip-rule="evenodd" d="M9.99986 5.72111C10.0576 5.72111 10.1183 5.7345 10.1701 5.75793L10.7112 6.01429L10.6068 5.47279C10.5869 5.36301 10.6276 5.25324 10.7142 5.17492L11.1509 4.79339L10.5461 4.71508C10.4277 4.69902 10.3241 4.62873 10.2686 4.53168L9.99986 4.0377L9.73116 4.529C9.67565 4.62873 9.57201 4.69634 9.45358 4.71508L8.84882 4.79339L9.28555 5.17492C9.37215 5.25324 9.41287 5.36301 9.39288 5.47279L9.28851 6.01429L9.82961 5.75793C9.88143 5.7345 9.93917 5.72111 9.99986 5.72111ZM11.2021 6.96004C11.1415 6.96004 11.0838 6.94733 11.032 6.92057L9.99981 6.43216L8.96765 6.92057C8.84409 6.98078 8.69315 6.97075 8.58069 6.89715C8.46526 6.82155 8.41051 6.69376 8.43345 6.56797L8.62952 5.53294L7.79714 4.79899C7.69651 4.71001 7.65878 4.57686 7.70243 4.45643C7.74534 4.33333 7.86077 4.24434 8.00283 4.22628L9.15263 4.07507L9.6676 3.13103C9.7919 2.90422 10.2077 2.90422 10.332 3.13103L10.847 4.07507L11.9968 4.22628C12.1241 4.11923 12.315 4.10116 12.4592 4.1868C12.6043 4.27311 12.662 4.44038 12.6013 4.5869C12.5406 4.73342 12.3727 4.81973 12.2025 4.79899L11.3701 5.53294L11.5662 6.56797C11.5869 6.66766 11.5551 6.76668 11.4855 6.84229C11.416 6.91856 11.3117 6.96004 11.2021 6.96004Z" fill="#151921"/>
</svg>
