<svg width="46" height="46" viewBox="0 0 46 46" fill="none" xmlns="http://www.w3.org/2000/svg">
<g clip-path="url(#clip0_1_6602)">
<path d="M20.5849 21.5583C20.557 21.2603 20.6529 20.9975 20.8728 20.7699C21.3113 20.3179 21.7711 19.8693 22.252 19.4241C22.7257 18.9839 22.8848 18.2557 22.2855 17.8439C21.8012 17.5125 21.2963 17.4835 20.7707 17.7569C19.628 18.3539 18.9205 19.332 18.6482 20.6912C18.5154 21.3608 18.6744 21.9204 19.1252 22.3701C19.8735 23.1183 21.549 22.6229 22.3876 22.2044C24.1519 21.3262 25.7147 20.2102 27.0762 18.8566C28.6847 17.2547 29.987 14.7841 29.5937 12.511C29.3158 10.9024 28.0403 9.60849 26.4551 9.20843C23.7167 8.51712 20.9464 9.90141 18.7319 11.4782C17.9095 12.0629 17.2533 12.7838 16.7634 13.6408C16.2294 14.5765 15.9164 15.8838 16.9492 16.5902C17.8698 17.2196 19.1989 16.8631 20.1078 16.3877C21.5808 15.6143 22.9534 14.4728 24.567 13.7681C25.6383 13.2994 27.0393 13.1119 27.2218 14.687C27.3122 15.4626 27.084 16.2789 26.5372 17.1359C25.3476 19.0006 23.7401 20.4401 21.7147 21.4545C21.4123 21.6051 21.0842 21.6833 20.7305 21.6888C20.6941 21.6898 20.6588 21.6768 20.6317 21.6525C20.6046 21.6283 20.5878 21.5945 20.5849 21.5583Z" stroke="#F28080" stroke-width="0.334775"/>
<path d="M18.1775 27.2361C18.1775 27.0956 18.1499 26.9566 18.0961 26.8268C18.0424 26.697 17.9636 26.5791 17.8643 26.4798C17.7649 26.3805 17.647 26.3017 17.5173 26.2479C17.3875 26.1942 17.2484 26.1665 17.1079 26.1665C16.9675 26.1665 16.8284 26.1942 16.6986 26.2479C16.5688 26.3017 16.4509 26.3805 16.3516 26.4798C16.2523 26.5791 16.1735 26.697 16.1198 26.8268C16.066 26.9566 16.0383 27.0956 16.0383 27.2361C16.0383 27.5198 16.151 27.7918 16.3516 27.9924C16.5522 28.193 16.8243 28.3057 17.1079 28.3057C17.3916 28.3057 17.6637 28.193 17.8643 27.9924C18.0649 27.7918 18.1775 27.5198 18.1775 27.2361Z" stroke="#F28080" stroke-width="0.334775"/>
<path d="M36.0598 34.3953C35.6028 34.407 35.1007 34.2279 35.099 33.7157C35.0934 31.5196 35.0917 29.3257 35.094 27.134C35.094 27.0303 35.0426 26.9867 34.94 27.0035L33.5825 27.2278C33.482 27.2445 33.4312 27.3042 33.4301 27.4069C33.4268 29.5149 33.4273 31.5698 33.4318 33.5718C33.4352 35.2004 34.6588 35.6959 36.0698 35.4666C36.1524 35.4532 36.1931 35.4052 36.192 35.3226L36.187 34.5175C36.187 34.4338 36.1446 34.3931 36.0598 34.3953Z" stroke="#F28080" stroke-width="0.334775"/>
<path d="M25.4823 30.0801L26.3309 30.0768C26.4537 30.0768 26.515 30.0149 26.515 29.891V28.967C26.515 28.8644 26.4637 28.8141 26.361 28.8164L25.5258 28.8281C25.5109 28.8283 25.4962 28.8256 25.4824 28.82C25.4686 28.8145 25.456 28.8063 25.4454 28.7958C25.4348 28.7854 25.4264 28.773 25.4207 28.7592C25.4149 28.7455 25.412 28.7308 25.412 28.7159L25.427 27.1157C25.4272 27.1001 25.424 27.0846 25.4175 27.0703C25.4111 27.056 25.4015 27.0432 25.3896 27.0329C25.3777 27.0226 25.3637 27.0149 25.3485 27.0104C25.3332 27.0059 25.3172 27.0047 25.3015 27.0069L23.8 27.2346C23.7702 27.2393 23.743 27.2546 23.7233 27.2776C23.7037 27.3006 23.6929 27.3299 23.6929 27.3601C23.6996 29.2092 23.699 31.1302 23.6912 33.1232C23.689 33.7426 23.752 34.1945 23.8804 34.4791C24.3239 35.4616 25.4923 35.6156 26.4732 35.4499C26.5044 35.4455 26.5201 35.4271 26.5201 35.3947L26.51 34.4272C26.5098 34.4228 26.5087 34.4185 26.5068 34.4145C26.505 34.4105 26.5023 34.407 26.499 34.404C26.4958 34.401 26.492 34.3988 26.4878 34.3973C26.4837 34.3958 26.4793 34.3952 26.4749 34.3954C25.7808 34.44 25.4309 34.1867 25.4254 33.6354C25.412 32.4559 25.4086 31.2931 25.4153 30.1471C25.4153 30.1293 25.4224 30.1123 25.4349 30.0998C25.4475 30.0872 25.4645 30.0801 25.4823 30.0801Z" stroke="#F28080" stroke-width="0.334775"/>
<path d="M12.9917 31.0936C11.5505 30.9814 9.95191 31.4033 9.77113 33.0236C9.62216 34.3761 10.6566 35.4691 11.9773 35.5545C13.0184 35.6214 14.1098 35.362 14.8982 34.6673C14.9931 34.5836 15.041 34.4787 15.0422 34.3526C15.05 33.2044 15.0466 32.0578 15.0321 30.9128C14.9953 28.1911 11.9204 28.402 10.2934 29.3561C10.2696 29.3705 10.2518 29.393 10.2435 29.4195C10.2352 29.446 10.2368 29.4747 10.2482 29.5001L10.5913 30.2433C10.6069 30.2772 10.6344 30.304 10.6685 30.3186C10.7026 30.3332 10.7407 30.3344 10.7755 30.3219C11.3797 30.1043 12.0175 29.8298 12.6636 29.9185C12.9772 29.9621 13.178 30.1361 13.2662 30.4408C13.2896 30.52 13.3125 30.5976 13.3348 30.6735C13.423 30.9792 13.3086 31.1193 12.9917 31.0936Z" stroke="#F28080" stroke-width="0.334775"/>
<path d="M21.0801 30.2386C21.5476 29.9607 22.0453 29.8636 22.5732 29.9473C22.7283 29.9719 22.8365 29.9122 22.8979 29.7682L23.1758 29.1188C23.2461 28.9536 23.1936 28.8521 23.0184 28.8141C21.8501 28.5608 20.7883 28.7829 19.833 29.4803C19.6087 29.6444 19.2773 29.8687 19.2756 30.175C19.2756 31.898 19.2756 33.6226 19.2756 35.3489C19.2768 35.4282 19.3169 35.4678 19.3962 35.4678L20.8608 35.4694C20.8905 35.4694 20.9191 35.4575 20.9401 35.4361C20.9611 35.4148 20.9729 35.3858 20.9729 35.3556L20.9746 30.4244C20.9746 30.3418 21.0098 30.2799 21.0801 30.2386Z" stroke="#F28080" stroke-width="0.334775"/>
<path d="M28.9405 32.3393L32.2581 32.3426C32.2757 32.3428 32.2932 32.3396 32.3095 32.3331C32.3258 32.3265 32.3407 32.3169 32.3533 32.3046C32.3659 32.2923 32.3759 32.2777 32.3829 32.2615C32.3898 32.2453 32.3935 32.228 32.3937 32.2104C32.3987 31.0755 32.2113 29.569 31.1366 29.0401C29.7574 28.3605 28.1571 28.8007 27.4926 30.2821C26.8264 31.7651 26.8984 33.7303 28.1052 34.9204C28.3753 35.1871 28.6894 35.3645 29.0476 35.4527C30.1959 35.735 31.2945 35.5464 32.3435 34.8869C32.4116 34.8434 32.4289 34.7848 32.3954 34.7112L32.0388 33.9328C32.0328 33.9191 32.0239 33.9069 32.0127 33.897C32.0015 33.887 31.9882 33.8796 31.9738 33.8752C31.9594 33.8707 31.9442 33.8694 31.9291 33.8713C31.9141 33.8731 31.8995 33.8781 31.8865 33.8859C31.1417 34.3211 29.667 34.7748 29.1263 33.8709C28.9154 33.5194 28.8105 33.0518 28.8116 32.4682C28.8116 32.3822 28.8546 32.3393 28.9405 32.3393Z" stroke="#F28080" stroke-width="0.334775"/>
<path d="M17.9349 28.9444C17.9348 28.9312 17.9319 28.9182 17.9264 28.9063C17.9208 28.8944 17.9128 28.8838 17.9028 28.8752C17.8928 28.8666 17.8811 28.8603 17.8684 28.8566C17.8558 28.853 17.8425 28.8521 17.8295 28.854L16.3431 29.0582C16.3211 29.0615 16.3009 29.0726 16.2865 29.0895C16.272 29.1064 16.2642 29.128 16.2644 29.1503V35.3486C16.2644 35.3731 16.2741 35.3965 16.2914 35.4137C16.3086 35.431 16.3321 35.4407 16.3565 35.4407L17.8429 35.439C17.8673 35.439 17.8907 35.4293 17.908 35.4121C17.9252 35.3948 17.9349 35.3714 17.9349 35.347V28.9444Z" stroke="#F28080" stroke-width="0.334775"/>
<path d="M13.33 34.0758L13.3367 32.576C13.3369 32.5342 13.3289 32.4928 13.3131 32.4542C13.2974 32.4155 13.2741 32.3803 13.2447 32.3506C13.2154 32.3209 13.1804 32.2973 13.1419 32.2811C13.1034 32.265 13.0621 32.2565 13.0203 32.2563L12.5399 32.2529C12.407 32.2523 12.2751 32.2774 12.152 32.3269C12.0289 32.3765 11.9169 32.4494 11.8224 32.5416C11.7279 32.6337 11.6527 32.7433 11.6012 32.8641C11.5497 32.9849 11.5229 33.1145 11.5222 33.2455V33.3862C11.5209 33.6507 11.6263 33.905 11.8153 34.093C12.0043 34.2811 12.2613 34.3875 12.5299 34.3888L13.0103 34.3922C13.0521 34.3924 13.0935 34.3844 13.1321 34.3686C13.1708 34.3528 13.206 34.3296 13.2357 34.3002C13.2654 34.2708 13.289 34.2359 13.3052 34.1974C13.3213 34.1589 13.3298 34.1176 13.33 34.0758Z" stroke="#F28080" stroke-width="0.334775"/>
<path d="M29.0159 31.2947L30.5693 31.288C30.5964 31.288 30.6223 31.2773 30.6415 31.2581C30.6606 31.239 30.6714 31.213 30.6714 31.1859V31.1391C30.6703 30.8378 30.5783 30.5493 30.4157 30.3368C30.2532 30.1243 30.0333 30.0053 29.8043 30.0059H29.7742C29.6607 30.0061 29.5484 30.0359 29.4437 30.0933C29.339 30.1508 29.244 30.2348 29.1641 30.3407C29.0842 30.4466 29.021 30.5722 28.978 30.7103C28.9351 30.8484 28.9133 30.9964 28.9138 31.1458V31.1926C28.9138 31.206 28.9165 31.2193 28.9216 31.2317C28.9267 31.2441 28.9343 31.2554 28.9437 31.2648C28.9532 31.2743 28.9645 31.2818 28.9769 31.287C28.9893 31.2921 29.0025 31.2947 29.0159 31.2947Z" stroke="#F28080" stroke-width="0.334775"/>
<path d="M31.0847 1.48302C34.0731 2.53645 36.7022 4.16289 38.972 6.36236C42.6969 9.97012 44.9556 14.3557 45.7479 19.519C45.903 20.5289 45.9827 21.8206 45.9872 23.394C45.9883 23.9765 45.9571 24.5501 45.8935 25.1148C45.8064 25.8781 45.7964 26.6313 45.6324 27.4013C45.2507 29.1834 44.767 30.7691 44.1811 32.1584C43.3832 34.0488 42.3292 35.8075 41.0192 37.4345C37.6112 41.666 33.2094 44.3526 27.814 45.4942C27.2203 45.6192 26.3566 45.7347 25.2228 45.8407C24.3457 45.9221 23.3765 45.9472 22.3153 45.916C21.2072 45.8848 20.2436 45.8039 19.4245 45.6733C16.9126 45.276 14.6289 44.5585 12.5733 43.5207C8.86851 41.6504 5.89738 38.9326 3.65997 35.3672C2.52062 33.5505 1.68759 31.7305 1.16088 29.9071C0.800993 28.6651 0.416003 27.3092 0.332309 26.0019C0.283767 25.237 0.163247 24.5038 0.153203 23.7388C0.127537 22.0203 0.217369 20.4966 0.422697 19.1675C0.975076 15.5804 2.48826 11.933 4.75301 9.00206C8.03492 4.75154 12.3301 1.99076 17.6385 0.719736C18.3951 0.537283 19.1483 0.450242 19.9099 0.321353C20.2302 0.267789 20.5572 0.235428 20.8908 0.224268C22.953 0.157313 24.5533 0.170146 25.6915 0.262767C27.3687 0.400025 29.1665 0.806777 31.0847 1.48302ZM20.5845 21.5578C20.5566 21.2598 20.6526 20.997 20.8724 20.7694C21.311 20.3174 21.7707 19.8689 22.2517 19.4236C22.7254 18.9834 22.8844 18.2552 22.2852 17.8435C21.8009 17.512 21.2959 17.483 20.7703 17.7564C19.6276 18.3534 18.9201 19.3315 18.6478 20.6907C18.515 21.3603 18.6741 21.9199 19.1249 22.3696C19.8731 23.1178 21.5487 22.6224 22.3873 22.2039C24.1515 21.3257 25.7144 20.2098 27.0758 18.8562C28.6844 17.2543 29.9867 14.7836 29.5933 12.5105C29.3154 10.9019 28.0399 9.60801 26.4548 9.20795C23.7163 8.51664 20.9461 9.90093 18.7315 11.4777C17.9091 12.0625 17.2529 12.7833 16.7631 13.6404C16.2291 14.5761 15.9161 15.8834 16.9489 16.5897C17.8695 17.2191 19.1985 16.8626 20.1075 16.3872C21.5805 15.6139 22.953 14.4723 24.5667 13.7676C25.6379 13.2989 27.039 13.1114 27.2214 14.6865C27.3118 15.4621 27.0836 16.2784 26.5368 17.1354C25.3472 19.0001 23.7398 20.4396 21.7144 21.454C21.412 21.6047 21.0839 21.6828 20.7301 21.6884C20.6938 21.6893 20.6584 21.6763 20.6313 21.6521C20.6042 21.6278 20.5875 21.594 20.5845 21.5578ZM18.1775 27.2356C18.1775 27.0951 18.1498 26.956 18.0961 26.8262C18.0423 26.6965 17.9635 26.5786 17.8642 26.4792C17.7649 26.3799 17.647 26.3011 17.5172 26.2474C17.3874 26.1936 17.2483 26.166 17.1079 26.166C16.9674 26.166 16.8283 26.1936 16.6986 26.2474C16.5688 26.3011 16.4509 26.3799 16.3515 26.4792C16.2522 26.5786 16.1734 26.6965 16.1197 26.8262C16.0659 26.956 16.0383 27.0951 16.0383 27.2356C16.0383 27.5192 16.151 27.7913 16.3515 27.9919C16.5521 28.1925 16.8242 28.3052 17.1079 28.3052C17.3915 28.3052 17.6636 28.1925 17.8642 27.9919C18.0648 27.7913 18.1775 27.5192 18.1775 27.2356ZM36.0595 34.3947C35.6025 34.4064 35.1003 34.2273 35.0987 33.7151C35.0931 31.519 35.0914 29.3251 35.0936 27.1335C35.0936 27.0297 35.0423 26.9862 34.9396 27.0029L33.5821 27.2272C33.4817 27.2439 33.4309 27.3036 33.4298 27.4063C33.4265 29.5143 33.427 31.5692 33.4315 33.5712C33.4348 35.1999 34.6584 35.6953 36.0695 35.466C36.1521 35.4526 36.1928 35.4046 36.1917 35.3221L36.1867 34.5169C36.1867 34.4332 36.1443 34.3925 36.0595 34.3947ZM25.4823 30.0795L26.3309 30.0761C26.4537 30.0761 26.515 30.0142 26.515 29.8903V28.9664C26.515 28.8637 26.4637 28.8135 26.361 28.8157L25.5258 28.8274C25.5109 28.8276 25.4962 28.8249 25.4824 28.8194C25.4686 28.8138 25.456 28.8056 25.4454 28.7952C25.4348 28.7847 25.4264 28.7723 25.4207 28.7586C25.4149 28.7449 25.412 28.7301 25.412 28.7153L25.427 27.1151C25.4272 27.0994 25.424 27.0839 25.4175 27.0696C25.4111 27.0553 25.4016 27.0426 25.3896 27.0323C25.3777 27.0219 25.3637 27.0143 25.3485 27.0098C25.3332 27.0053 25.3172 27.0041 25.3015 27.0062L23.8 27.2339C23.7702 27.2387 23.743 27.2539 23.7233 27.2769C23.7037 27.2999 23.6929 27.3292 23.6929 27.3594C23.6996 29.2085 23.699 31.1296 23.6912 33.1226C23.689 33.7419 23.752 34.1939 23.8804 34.4784C24.3239 35.461 25.4923 35.615 26.4732 35.4493C26.5044 35.4448 26.5201 35.4264 26.5201 35.394L26.51 34.4265C26.5098 34.4221 26.5087 34.4178 26.5068 34.4138C26.505 34.4099 26.5023 34.4063 26.499 34.4033C26.4958 34.4004 26.492 34.3981 26.4878 34.3966C26.4837 34.3951 26.4793 34.3945 26.4749 34.3947C25.7808 34.4394 25.4309 34.1861 25.4254 33.6348C25.412 32.4553 25.4086 31.2925 25.4153 30.1464C25.4153 30.1287 25.4224 30.1116 25.4349 30.0991C25.4475 30.0865 25.4645 30.0795 25.4823 30.0795ZM12.9918 31.0938C11.5506 30.9817 9.95206 31.4035 9.77128 33.0238C9.62231 34.3763 10.6568 35.4694 11.9774 35.5547C13.0186 35.6217 14.11 35.3622 14.8984 34.6676C14.9932 34.5839 15.0412 34.479 15.0423 34.3529C15.0501 33.2046 15.0468 32.058 15.0323 30.9131C14.9954 28.1914 11.9205 28.4023 10.2935 29.3564C10.2697 29.3707 10.252 29.3933 10.2437 29.4198C10.2353 29.4463 10.237 29.4749 10.2483 29.5003L10.5915 30.2435C10.607 30.2774 10.6346 30.3043 10.6686 30.3188C10.7027 30.3334 10.7409 30.3346 10.7756 30.3222C11.3799 30.1046 12.0176 29.8301 12.6637 29.9188C12.9773 29.9623 13.1782 30.1364 13.2663 30.441C13.2898 30.5203 13.3126 30.5978 13.335 30.6737C13.4231 30.9795 13.3087 31.1195 12.9918 31.0938ZM21.08 30.2385C21.5475 29.9606 22.0452 29.8636 22.5731 29.9472C22.7282 29.9718 22.8364 29.9121 22.8978 29.7681L23.1757 29.1187C23.246 28.9535 23.1935 28.852 23.0183 28.814C21.85 28.5607 20.7882 28.7828 19.8329 29.4802C19.6086 29.6443 19.2772 29.8686 19.2755 30.1749C19.2755 31.8979 19.2755 33.6225 19.2755 35.3488C19.2767 35.4281 19.3168 35.4677 19.3961 35.4677L20.8607 35.4694C20.8904 35.4694 20.919 35.4574 20.94 35.436C20.961 35.4147 20.9728 35.3857 20.9728 35.3555L20.9745 30.4243C20.9745 30.3417 21.0097 30.2798 21.08 30.2385ZM28.9405 32.3392L32.2581 32.3426C32.2757 32.3428 32.2931 32.3395 32.3095 32.333C32.3258 32.3265 32.3407 32.3168 32.3533 32.3045C32.3659 32.2922 32.3759 32.2776 32.3829 32.2614C32.3898 32.2453 32.3935 32.2279 32.3937 32.2103C32.3987 31.0754 32.2112 29.569 31.1366 29.04C29.7573 28.3604 28.1571 28.8006 27.4926 30.282C26.8264 31.7651 26.8984 33.7302 28.1052 34.9203C28.3753 35.187 28.6894 35.3645 29.0476 35.4526C30.1959 35.7349 31.2945 35.5464 32.3435 34.8868C32.4115 34.8433 32.4288 34.7847 32.3954 34.7111L32.0388 33.9327C32.0328 33.9191 32.0239 33.9068 32.0126 33.8969C32.0014 33.887 31.9882 33.8795 31.9738 33.8751C31.9594 33.8707 31.9441 33.8694 31.9291 33.8712C31.9141 33.8731 31.8995 33.8781 31.8865 33.8859C31.1416 34.3211 29.6669 34.7747 29.1263 33.8708C28.9154 33.5193 28.8105 33.0517 28.8116 32.4681C28.8116 32.3822 28.8546 32.3392 28.9405 32.3392ZM17.9348 28.9446C17.9347 28.9314 17.9317 28.9184 17.9262 28.9065C17.9207 28.8946 17.9126 28.884 17.9026 28.8754C17.8926 28.8668 17.8809 28.8605 17.8683 28.8568C17.8556 28.8532 17.8423 28.8523 17.8293 28.8542L16.3429 29.0584C16.3209 29.0617 16.3008 29.0728 16.2863 29.0897C16.2718 29.1066 16.264 29.1282 16.2642 29.1505V35.3488C16.2642 35.3733 16.2739 35.3967 16.2912 35.4139C16.3085 35.4312 16.3319 35.4409 16.3563 35.4409L17.8427 35.4392C17.8671 35.4392 17.8905 35.4295 17.9078 35.4123C17.9251 35.395 17.9348 35.3716 17.9348 35.3472V28.9446Z" fill="#E40000"/>
<path d="M20.7305 21.6888C21.0842 21.6833 21.4123 21.6051 21.7147 21.4545C23.7401 20.4401 25.3476 19.0006 26.5372 17.1359C27.084 16.2789 27.3122 15.4626 27.2218 14.687C27.0393 13.1119 25.6383 13.2994 24.567 13.7681C22.9534 14.4728 21.5808 15.6143 20.1078 16.3877C19.1989 16.8631 17.8698 17.2196 16.9492 16.5902C15.9164 15.8838 16.2294 14.5765 16.7634 13.6408C17.2533 12.7838 17.9095 12.0629 18.7319 11.4782C20.9464 9.90141 23.7167 8.51712 26.4551 9.20843C28.0403 9.60849 29.3158 10.9024 29.5937 12.511C29.987 14.7841 28.6847 17.2547 27.0761 18.8566C25.7147 20.2102 24.1519 21.3262 22.3876 22.2044C21.549 22.6229 19.8735 23.1183 19.1252 22.3701C18.6744 21.9204 18.5154 21.3608 18.6482 20.6912C18.9205 19.332 19.628 18.3539 20.7707 17.7569C21.2963 17.4835 21.8012 17.5125 22.2855 17.8439C22.8848 18.2557 22.7257 18.9839 22.252 19.4241C21.7711 19.8693 21.3113 20.3179 20.8728 20.7699C20.6529 20.9975 20.557 21.2603 20.5849 21.5583C20.5878 21.5945 20.6046 21.6283 20.6317 21.6525C20.6588 21.6768 20.6941 21.6898 20.7305 21.6888Z" fill="white"/>
<path d="M17.1079 28.3057C17.6987 28.3057 18.1775 27.8268 18.1775 27.2361C18.1775 26.6454 17.6987 26.1665 17.1079 26.1665C16.5172 26.1665 16.0383 26.6454 16.0383 27.2361C16.0383 27.8268 16.5172 28.3057 17.1079 28.3057Z" fill="white"/>
<path d="M35.099 33.7157C35.1007 34.2279 35.6028 34.407 36.0598 34.3953C36.1446 34.3931 36.187 34.4338 36.187 34.5175L36.192 35.3226C36.1931 35.4052 36.1524 35.4532 36.0698 35.4666C34.6588 35.6959 33.4352 35.2004 33.4318 33.5718C33.4273 31.5698 33.4268 29.5149 33.4301 27.4069C33.4312 27.3042 33.482 27.2445 33.5825 27.2278L34.94 27.0035C35.0426 26.9867 35.094 27.0303 35.094 27.134C35.0917 29.3257 35.0934 31.5196 35.099 33.7157Z" fill="white"/>
<path d="M25.4823 30.0801C25.4645 30.0801 25.4475 30.0872 25.4349 30.0998C25.4224 30.1123 25.4153 30.1293 25.4153 30.1471C25.4086 31.2931 25.412 32.4559 25.4254 33.6354C25.4309 34.1867 25.7808 34.44 26.4749 34.3954C26.4793 34.3952 26.4837 34.3958 26.4878 34.3973C26.492 34.3988 26.4958 34.401 26.499 34.404C26.5023 34.407 26.505 34.4105 26.5068 34.4145C26.5087 34.4185 26.5098 34.4228 26.51 34.4272L26.5201 35.3947C26.5201 35.4271 26.5044 35.4455 26.4732 35.4499C25.4923 35.6156 24.3239 35.4616 23.8804 34.4791C23.752 34.1945 23.689 33.7426 23.6912 33.1232C23.699 31.1302 23.6996 29.2092 23.6929 27.3601C23.6929 27.3299 23.7037 27.3006 23.7233 27.2776C23.743 27.2546 23.7702 27.2393 23.8 27.2346L25.3015 27.0069C25.3172 27.0047 25.3332 27.0059 25.3485 27.0104C25.3637 27.0149 25.3777 27.0226 25.3896 27.0329C25.4015 27.0432 25.4111 27.056 25.4175 27.0703C25.424 27.0846 25.4272 27.1001 25.427 27.1157L25.412 28.7159C25.412 28.7308 25.4149 28.7455 25.4207 28.7592C25.4264 28.773 25.4348 28.7854 25.4454 28.7958C25.456 28.8063 25.4686 28.8145 25.4824 28.82C25.4962 28.8256 25.5109 28.8283 25.5258 28.8281L26.361 28.8164C26.4637 28.8141 26.515 28.8644 26.515 28.967V29.891C26.515 30.0149 26.4537 30.0768 26.3309 30.0768L25.4823 30.0801Z" fill="white"/>
<path d="M12.9917 31.0936C13.3086 31.1193 13.423 30.9792 13.3348 30.6735C13.3125 30.5976 13.2896 30.52 13.2662 30.4408C13.178 30.1361 12.9772 29.9621 12.6636 29.9185C12.0175 29.8298 11.3797 30.1043 10.7755 30.3219C10.7407 30.3344 10.7026 30.3332 10.6685 30.3186C10.6344 30.304 10.6069 30.2772 10.5913 30.2433L10.2482 29.5001C10.2368 29.4747 10.2352 29.446 10.2435 29.4195C10.2518 29.393 10.2696 29.3705 10.2934 29.3561C11.9204 28.402 14.9953 28.1911 15.0321 30.9128C15.0466 32.0577 15.05 33.2044 15.0422 34.3526C15.041 34.4787 14.9931 34.5836 14.8982 34.6673C14.1098 35.362 13.0184 35.6214 11.9773 35.5545C10.6566 35.4691 9.62216 34.3761 9.77113 33.0236C9.95191 31.4033 11.5505 30.9814 12.9917 31.0936ZM13.3298 34.0748L13.3365 32.575C13.3367 32.5332 13.3287 32.4918 13.3129 32.4531C13.2971 32.4145 13.2739 32.3793 13.2445 32.3496C13.2151 32.3199 13.1802 32.2963 13.1417 32.2801C13.1032 32.2639 13.0619 32.2555 13.0201 32.2553L12.5397 32.2519C12.4067 32.2512 12.2749 32.2764 12.1518 32.3259C12.0287 32.3754 11.9166 32.4484 11.8221 32.5405C11.7276 32.6327 11.6525 32.7423 11.601 32.8631C11.5495 32.9839 11.5227 33.1135 11.522 33.2445V33.3851C11.5207 33.6497 11.6261 33.904 11.8151 34.092C12.0041 34.28 12.2611 34.3864 12.5297 34.3878L13.0101 34.3911C13.0518 34.3913 13.0932 34.3833 13.1319 34.3676C13.1706 34.3518 13.2058 34.3285 13.2355 34.2992C13.2651 34.2698 13.2888 34.2349 13.3049 34.1963C13.3211 34.1578 13.3296 34.1165 13.3298 34.0748Z" fill="white"/>
<path d="M20.9746 30.4244L20.9729 35.3556C20.9729 35.3858 20.9611 35.4148 20.9401 35.4361C20.9191 35.4575 20.8905 35.4694 20.8608 35.4694L19.3962 35.4678C19.3169 35.4678 19.2768 35.4282 19.2756 35.3489C19.2756 33.6226 19.2756 31.898 19.2756 30.175C19.2773 29.8687 19.6087 29.6444 19.833 29.4803C20.7883 28.7829 21.8501 28.5608 23.0184 28.8141C23.1936 28.8521 23.2461 28.9536 23.1758 29.1188L22.8979 29.7682C22.8365 29.9122 22.7283 29.9719 22.5732 29.9473C22.0453 29.8636 21.5476 29.9607 21.0801 30.2386C21.0098 30.2799 20.9746 30.3418 20.9746 30.4244Z" fill="white"/>
<path d="M28.8116 32.4682C28.8105 33.0518 28.9154 33.5194 29.1263 33.8709C29.667 34.7748 31.1417 34.3211 31.8865 33.8859C31.8995 33.8781 31.9141 33.8731 31.9291 33.8713C31.9442 33.8694 31.9594 33.8707 31.9738 33.8752C31.9882 33.8796 32.0015 33.887 32.0127 33.897C32.0239 33.9069 32.0328 33.9191 32.0388 33.9328L32.3954 34.7112C32.4289 34.7848 32.4116 34.8434 32.3435 34.8869C31.2945 35.5464 30.1959 35.735 29.0476 35.4527C28.6894 35.3645 28.3753 35.1871 28.1052 34.9204C26.8984 33.7303 26.8264 31.7651 27.4926 30.2821C28.1571 28.8007 29.7574 28.3605 31.1366 29.0401C32.2113 29.569 32.3987 31.0755 32.3937 32.2104C32.3935 32.228 32.3898 32.2453 32.3829 32.2615C32.3759 32.2777 32.3659 32.2923 32.3533 32.3046C32.3407 32.3169 32.3258 32.3265 32.3095 32.3331C32.2932 32.3396 32.2757 32.3428 32.2581 32.3426L28.9405 32.3393C28.8546 32.3393 28.8116 32.3822 28.8116 32.4682ZM29.0158 31.2948L30.5692 31.2881C30.5963 31.2881 30.6222 31.2773 30.6414 31.2582C30.6605 31.239 30.6713 31.2131 30.6713 31.186V31.1391C30.6702 30.8379 30.5782 30.5493 30.4156 30.3368C30.2531 30.1243 30.0331 30.0053 29.8042 30.0059H29.7741C29.6606 30.0062 29.5483 30.0359 29.4436 30.0934C29.3389 30.1508 29.2439 30.2349 29.164 30.3407C29.0841 30.4466 29.0209 30.5722 28.9779 30.7103C28.935 30.8485 28.9132 30.9965 28.9137 31.1458V31.1927C28.9137 31.2061 28.9164 31.2194 28.9215 31.2317C28.9266 31.2441 28.9341 31.2554 28.9436 31.2649C28.9531 31.2744 28.9644 31.2819 28.9768 31.287C28.9891 31.2921 29.0024 31.2948 29.0158 31.2948Z" fill="white"/>
<path d="M17.9349 28.9444V35.347C17.9349 35.3714 17.9252 35.3948 17.908 35.4121C17.8907 35.4293 17.8673 35.439 17.8429 35.439L16.3565 35.4407C16.3321 35.4407 16.3086 35.431 16.2914 35.4137C16.2741 35.3965 16.2644 35.3731 16.2644 35.3486V29.1503C16.2642 29.128 16.272 29.1064 16.2865 29.0895C16.3009 29.0726 16.3211 29.0615 16.3431 29.0582L17.8295 28.854C17.8425 28.8521 17.8558 28.853 17.8684 28.8566C17.8811 28.8603 17.8928 28.8666 17.9028 28.8752C17.9128 28.8838 17.9208 28.8944 17.9264 28.9063C17.9319 28.9182 17.9348 28.9312 17.9349 28.9444Z" fill="white"/>
<path d="M29.0159 31.2947C29.0025 31.2947 28.9893 31.2921 28.9769 31.287C28.9645 31.2818 28.9532 31.2743 28.9437 31.2648C28.9343 31.2554 28.9267 31.2441 28.9216 31.2317C28.9165 31.2193 28.9138 31.206 28.9138 31.1926V31.1458C28.9133 30.9964 28.9351 30.8484 28.978 30.7103C29.021 30.5722 29.0842 30.4466 29.1641 30.3407C29.244 30.2348 29.339 30.1508 29.4437 30.0933C29.5484 30.0359 29.6607 30.0061 29.7742 30.0059H29.8043C30.0333 30.0053 30.2532 30.1243 30.4157 30.3368C30.5783 30.5493 30.6703 30.8378 30.6714 31.1391V31.1859C30.6714 31.213 30.6606 31.239 30.6415 31.2581C30.6223 31.2773 30.5964 31.288 30.5693 31.288L29.0159 31.2947Z" fill="#E40000"/>
<path d="M13.33 34.0758C13.3298 34.1176 13.3213 34.1589 13.3052 34.1974C13.289 34.2359 13.2654 34.2708 13.2357 34.3002C13.206 34.3296 13.1708 34.3528 13.1321 34.3686C13.0935 34.3844 13.0521 34.3924 13.0103 34.3922L12.5299 34.3888C12.2613 34.3875 12.0043 34.2811 11.8153 34.093C11.6263 33.905 11.5209 33.6507 11.5222 33.3862V33.2455C11.5229 33.1145 11.5497 32.9849 11.6012 32.8641C11.6527 32.7433 11.7279 32.6337 11.8224 32.5416C11.9169 32.4494 12.0289 32.3765 12.152 32.3269C12.2751 32.2774 12.407 32.2523 12.5399 32.2529L13.0203 32.2563C13.0621 32.2565 13.1034 32.265 13.1419 32.2811C13.1804 32.2973 13.2154 32.3209 13.2447 32.3506C13.2741 32.3803 13.2974 32.4155 13.3131 32.4542C13.3289 32.4928 13.3369 32.5342 13.3367 32.576L13.33 34.0758Z" fill="#E40000"/>
</g>
<defs>
<clipPath id="clip0_1_6602">
<rect width="46" height="46" fill="white"/>
</clipPath>
</defs>
</svg>
