<svg width="68" height="68" viewBox="0 0 68 68" fill="none" xmlns="http://www.w3.org/2000/svg">
<path d="M33.9999 21.6363C27.169 21.6363 21.6363 27.169 21.6363 33.9999C21.6363 40.8308 27.169 46.3635 33.9999 46.3635C40.8308 46.3635 46.3635 40.8308 46.3635 33.9999C46.3635 27.169 40.8308 21.6363 33.9999 21.6363ZM61.6325 30.909C60.9324 24.641 58.1217 18.7974 53.662 14.3377C49.2024 9.87805 43.3587 7.06738 37.0908 6.36725V3.0909C37.0908 1.3909 35.6999 0 33.9999 0C32.2999 0 30.909 1.3909 30.909 3.0909V6.36725C24.641 7.06738 18.7974 9.87805 14.3377 14.3377C9.87805 18.7974 7.06738 24.641 6.36725 30.909H3.0909C1.3909 30.909 0 32.2999 0 33.9999C0 35.6999 1.3909 37.0908 3.0909 37.0908H6.36725C7.06738 43.3587 9.87805 49.2024 14.3377 53.662C18.7974 58.1217 24.641 60.9324 30.909 61.6325V64.9089C30.909 66.6089 32.2999 67.9998 33.9999 67.9998C35.6999 67.9998 37.0908 66.6089 37.0908 64.9089V61.6325C43.3587 60.9324 49.2024 58.1217 53.662 53.662C58.1217 49.2024 60.9324 43.3587 61.6325 37.0908H64.9089C66.6089 37.0908 67.9998 35.6999 67.9998 33.9999C67.9998 32.2999 66.6089 30.909 64.9089 30.909H61.6325ZM33.9999 55.6362C22.0381 55.6362 12.3636 45.9617 12.3636 33.9999C12.3636 22.0381 22.0381 12.3636 33.9999 12.3636C45.9617 12.3636 55.6362 22.0381 55.6362 33.9999C55.6362 45.9617 45.9617 55.6362 33.9999 55.6362Z" fill="#0E82FD"/>
</svg>
