<svg width="20" height="20" viewBox="0 0 20 20" fill="none" xmlns="http://www.w3.org/2000/svg">
<path fill-rule="evenodd" clip-rule="evenodd" d="M19.2105 9.21053H10.7895V0.789474C10.7895 0.353459 10.436 0 10 0C9.56399 0 9.21053 0.353459 9.21053 0.789474V9.21053H0.789474C0.353459 9.21053 0 9.56399 0 10C0 10.436 0.353459 10.7895 0.789474 10.7895H9.21053V19.2105C9.21053 19.6465 9.56399 20 10 20C10.436 20 10.7895 19.6465 10.7895 19.2105V10.7895H19.2105C19.6465 10.7895 20 10.436 20 10C20 9.56399 19.6465 9.21053 19.2105 9.21053Z" fill="#504DE5"/>
</svg>
