<svg width="20" height="20" viewBox="0 0 20 20" fill="none" xmlns="http://www.w3.org/2000/svg">
<path fill-rule="evenodd" clip-rule="evenodd" d="M18.0722 6.45118L17.2123 7.31115L14.5202 4.61907L15.3802 3.7591C15.5547 3.58458 15.7665 3.49737 16.0158 3.49737C16.2651 3.49737 16.4769 3.58458 16.6514 3.7591L18.0722 5.17992C18.2468 5.35444 18.334 5.56625 18.334 5.81555C18.334 6.06485 18.2468 6.27666 18.0722 6.45118ZM13.9233 5.21546L16.614 7.90616L10.3357 14.1845H7.64502V11.4938L13.9233 5.21546ZM14.8207 12.1111V13.8862C14.8207 14.6273 14.5575 15.2611 14.0312 15.7874C13.505 16.3136 12.8712 16.5768 12.1301 16.5768H4.35719C3.61604 16.5768 2.98229 16.3136 2.45601 15.7874C1.92974 15.2611 1.66658 14.6273 1.66658 13.8862V6.11333C1.66658 5.3722 1.92974 4.73841 2.45601 4.21216C2.98229 3.6859 3.61604 3.42272 4.35719 3.42272H12.1301C12.5224 3.42272 12.8868 3.50055 13.2231 3.65628C13.3165 3.69991 13.3726 3.77148 13.3913 3.87116C13.41 3.97701 13.3819 4.06735 13.3072 4.14209L12.8494 4.59987C12.7623 4.68703 12.6626 4.71197 12.5505 4.6746C12.4072 4.63723 12.2671 4.61855 12.1301 4.61855H4.35719C3.94612 4.61855 3.59422 4.76495 3.3015 5.05764C3.00878 5.35034 2.86241 5.70227 2.86241 6.11333V13.8862C2.86241 14.2973 3.00878 14.6492 3.3015 14.9419C3.59422 15.2346 3.94612 15.381 4.35719 15.381H12.1301C12.5411 15.381 12.893 15.2346 13.1857 14.9419C13.4784 14.6492 13.6248 14.2973 13.6248 13.8862V12.7091C13.6248 12.6281 13.6529 12.5596 13.7089 12.5035L14.3068 11.9056C14.4003 11.8122 14.5093 11.7904 14.6338 11.8402C14.7583 11.89 14.8207 11.9803 14.8207 12.1111ZM14.0737 6.56091C13.974 6.46118 13.8711 6.46435 13.7652 6.57026L10.4936 9.84185C10.3877 9.94777 10.3846 10.0506 10.4843 10.1503C10.584 10.25 10.6868 10.2469 10.7928 10.141L14.0644 6.86938C14.1703 6.76347 14.1734 6.66065 14.0737 6.56091ZM9.96254 13.2891L11.047 12.2046L9.62597 10.7836L8.54148 11.8681V12.3916H9.43899V13.2891H9.96254Z" fill="white"/>
</svg>
