<svg width="304" height="292" viewBox="0 0 304 292" fill="none" xmlns="http://www.w3.org/2000/svg">
<g clip-path="url(#clip0_1_4725)" filter="url(#filter0_d_1_4725)">
<path d="M217.937 292C265.468 292 304 288.474 304 284.124C304 279.774 265.468 276.247 217.937 276.247C170.406 276.247 131.875 279.774 131.875 284.124C131.875 288.474 170.406 292 217.937 292Z" fill="white"/>
<path opacity="0.1" d="M217.937 292C265.468 292 304 288.474 304 284.124C304 279.774 265.468 276.247 217.937 276.247C170.406 276.247 131.875 279.774 131.875 284.124C131.875 288.474 170.406 292 217.937 292Z" fill="#292A2E"/>
<path d="M75.0698 166.996H47.637V174.913H75.0698V166.996Z" fill="#F4F4F4"/>
<path opacity="0.05" d="M54.9153 166.996H51.3208V174.913H54.9153V166.996Z" fill="#292A2E"/>
<path d="M71.5644 168.717H56.6182V173.408H71.5644V168.717Z" fill="white"/>
<path d="M96.9512 168.029L71.4614 156.987L68.2666 164.242L93.7564 175.284L96.9512 168.029Z" fill="#F4F4F4"/>
<path opacity="0.05" d="M96.9512 168.029L71.4614 156.987L68.2666 164.242L93.7564 175.284L96.9512 168.029Z" fill="#292A2E"/>
<path d="M93.5282 166.546L90.1882 165.099L86.9934 172.354L90.3334 173.801L93.5282 166.546Z" fill="white"/>
<path d="M87.9113 165.991L74.0239 159.975L72.1307 164.274L86.0181 170.29L87.9113 165.991Z" fill="white"/>
<path opacity="0.05" d="M96.9991 267.284H90.1052V271.851H96.9991V267.284Z" fill="#292A2E"/>
<path opacity="0.05" d="M26.5162 267.284H19.6223V271.851H26.5162V267.284Z" fill="#292A2E"/>
<path d="M103.319 175.284H13.3032V267.13H103.319V175.284Z" fill="#F4F4F4"/>
<path opacity="0.03" d="M103.319 175.284H13.3032V267.13H103.319V175.284Z" fill="#292A2E"/>
<path d="M120 175.284H29.9844V267.13H120V175.284Z" fill="#F4F4F4"/>
<path opacity="0.05" d="M113.68 267.284H106.786V271.851H113.68V267.284Z" fill="#292A2E"/>
<path opacity="0.05" d="M43.1976 267.284H36.3037V271.851H43.1976V267.284Z" fill="#292A2E"/>
<path opacity="0.7" d="M116.621 179.586H33.3638V197.231H116.621V179.586Z" fill="white"/>
<path opacity="0.7" d="M116.621 201.55H33.3638V219.196H116.621V201.55Z" fill="white"/>
<path opacity="0.7" d="M116.621 223.514H33.3638V241.16H116.621V223.514Z" fill="white"/>
<path opacity="0.05" d="M74.9923 190.878C76.3671 190.878 77.4816 189.772 77.4816 188.409C77.4816 187.045 76.3671 185.94 74.9923 185.94C73.6174 185.94 72.5029 187.045 72.5029 188.409C72.5029 189.772 73.6174 190.878 74.9923 190.878Z" fill="#292A2E"/>
<path opacity="0.05" d="M74.9923 212.842C76.3671 212.842 77.4816 211.737 77.4816 210.373C77.4816 209.009 76.3671 207.904 74.9923 207.904C73.6174 207.904 72.5029 209.009 72.5029 210.373C72.5029 211.737 73.6174 212.842 74.9923 212.842Z" fill="#292A2E"/>
<path opacity="0.05" d="M74.9923 234.807C76.3671 234.807 77.4816 233.701 77.4816 232.338C77.4816 230.974 76.3671 229.869 74.9923 229.869C73.6174 229.869 72.5029 230.974 72.5029 232.338C72.5029 233.701 73.6174 234.807 74.9923 234.807Z" fill="#292A2E"/>
<path opacity="0.7" d="M116.621 245.974H33.3638V263.619H116.621V245.974Z" fill="white"/>
<path opacity="0.05" d="M74.9925 257.266C76.3673 257.266 77.4818 256.16 77.4818 254.797C77.4818 253.433 76.3673 252.328 74.9925 252.328C73.6177 252.328 72.5032 253.433 72.5032 254.797C72.5032 256.16 73.6177 257.266 74.9925 257.266Z" fill="#292A2E"/>
<path d="M45.257 84.123H98.4836L98.4836 15.4091H45.257L45.257 84.123Z" fill="#F4F4F4"/>
<path d="M45.2572 15.4092H43.5305V84.1231H45.2572V15.4092Z" fill="#F4F4F4"/>
<path opacity="0.05" d="M45.2572 15.4092H43.5305V84.1231H45.2572V15.4092Z" fill="#292A2E"/>
<path opacity="0.05" d="M54.9533 71.606H88.7878V27.9261L54.9533 27.9261L54.9533 71.606Z" fill="#292A2E"/>
<path opacity="0.03" d="M54.9533 71.606H56.7166L56.7166 27.9261H54.9533L54.9533 71.606Z" fill="#292A2E"/>
<path d="M1.72649 144.592H45.2571L45.2571 101.021H1.72649L1.72649 144.592Z" fill="#F4F4F4"/>
<path opacity="0.05" d="M9.65598 136.655H37.3271V108.958H9.65598L9.65598 136.655Z" fill="#292A2E"/>
<path d="M1.72672 101.021H0V144.592H1.72672V101.021Z" fill="#F4F4F4"/>
<path opacity="0.05" d="M1.72672 101.021H0V144.592H1.72672V101.021Z" fill="#292A2E"/>
<path opacity="0.03" d="M9.65618 136.655H11.4194L11.4194 108.958H9.65618L9.65618 136.655Z" fill="#292A2E"/>
<path d="M267.17 15.2456H156.094V125.412H267.17V15.2456Z" fill="#F4F4F4"/>
<path d="M156.094 15.2456H154.821V125.412H156.094V15.2456Z" fill="#F4F4F4"/>
<path opacity="0.05" d="M156.094 15.2456H154.821V125.412H156.094V15.2456Z" fill="#292A2E"/>
<path opacity="0.05" d="M183.003 91.1596V62.3362H206.808V79.082H243.682V108.732H259.355V125.412H243.682H240.663H161.438V91.1596H183.003Z" fill="#292A2E"/>
<path opacity="0.34" d="M203.752 65.4656H186.417V68.595H203.752V65.4656Z" fill="#FFFFFA"/>
<path opacity="0.34" d="M203.752 71.9507H186.417V75.0802H203.752V71.9507Z" fill="#FFFFFA"/>
<path opacity="0.34" d="M203.752 78.436H186.417V81.5655H203.752V78.436Z" fill="#FFFFFA"/>
<path opacity="0.34" d="M167.707 94.1973H164.511V97.3267H167.707V94.1973Z" fill="#FFFFFA"/>
<path opacity="0.34" d="M167.707 100.682H164.511V103.812H167.707V100.682Z" fill="#FFFFFA"/>
<path opacity="0.34" d="M167.707 107.167H164.511V110.297H167.707V107.167Z" fill="#FFFFFA"/>
<path opacity="0.34" d="M173.618 94.1973H170.422V97.3267H173.618V94.1973Z" fill="#FFFFFA"/>
<path opacity="0.34" d="M173.618 100.682H170.422V103.812H173.618V100.682Z" fill="#FFFFFA"/>
<path opacity="0.34" d="M173.618 107.167H170.422V110.297H173.618V107.167Z" fill="#FFFFFA"/>
<path opacity="0.34" d="M179.369 94.1973H176.174V97.3267H179.369V94.1973Z" fill="#FFFFFA"/>
<path opacity="0.34" d="M179.369 100.682H176.174V103.812H179.369V100.682Z" fill="#FFFFFA"/>
<path opacity="0.34" d="M179.369 107.167H176.174V110.297H179.369V107.167Z" fill="#FFFFFA"/>
<path d="M156.094 69.7109H178.444V15.2454H180.293V69.7109H240.663V15.2454H242.512V69.7109H267.17V71.5441H242.512V125.412H240.663V71.5441H180.293V125.412H178.444V71.5441H156.094V69.7109Z" fill="white"/>
<path d="M271.595 125.279H151.669V128.943H271.595V125.279Z" fill="#F4F4F4"/>
<path opacity="0.1" d="M271.595 125.279H151.669V128.943H271.595V125.279Z" fill="#292A2E"/>
<path opacity="0.1" d="M151.669 125.279H149.938V128.943H151.669V125.279Z" fill="#292A2E"/>
<path opacity="0.1" d="M151.669 125.279H149.938V128.943H151.669V125.279Z" fill="#292A2E"/>
<path d="M248.123 144.152C231.118 144.152 217.333 148.753 217.333 154.429V166.664H278.914V154.429C278.914 148.753 265.128 144.152 248.123 144.152Z" fill="#0E82FD"/>
<path opacity="0.49" d="M248.123 144.152C231.118 144.152 217.333 148.753 217.333 154.429V166.664H278.914V154.429C278.914 148.753 265.128 144.152 248.123 144.152Z" fill="white"/>
<path opacity="0.49" d="M270.526 154.431V166.664H217.332V154.431C217.332 149.228 228.909 144.929 243.929 144.25C258.95 144.929 270.526 149.228 270.526 154.431Z" fill="white"/>
<path d="M278.914 285.548H279.947L278.914 165.579L277.889 166.604L278.62 250.405L242.141 251.02L241.405 166.595L240.38 166.604L241.117 251.038L219.096 251.409L218.357 166.595L217.332 165.588L218.365 285.548L219.381 285.539L219.105 252.425L241.125 252.054L241.405 285.548L242.43 285.539L242.15 252.037L278.628 251.422L278.914 285.548Z" fill="#292A2E"/>
<path d="M186.039 267.587C186.039 267.587 184.207 277.001 175.32 277.526C166.433 278.05 168.36 285.072 168.36 285.072H202.322V268.243L186.039 267.587Z" fill="#0E82FD"/>
<path d="M205.415 239.271C205.415 239.271 207.962 248.52 200.221 252.882C192.48 257.243 197.335 262.701 197.335 262.701L227.809 247.831L220.319 232.73L205.415 239.271Z" fill="#0E82FD"/>
<path d="M202.191 245.384L179.229 159.453C177.487 149.96 180.109 145.845 184.15 141.848C191.248 134.825 220.664 119.878 220.664 119.878L255.953 119.782C265.31 119.782 274.509 128.934 274.509 138.214C274.509 147.494 264.996 155.365 255.639 155.365L212.183 159.667L223.963 238.348L202.191 245.384Z" fill="#262626"/>
<path d="M223.963 238.347L219.325 207.371L195.832 221.586L202.191 245.384L223.963 238.347Z" fill="#0C0C0C"/>
<path d="M229.288 137.267C229.288 137.267 214.454 140.546 199.762 155.118C190.854 163.953 191.584 179.941 192.921 210.691L207.513 189.314L223.518 160.685L229.288 137.267Z" fill="#0C0C0C"/>
<path d="M280.652 119.773L256.686 119.661L256.677 119.974H249.42C249.42 119.974 231.242 136.563 216.608 147.017C205.963 154.621 199.469 161.87 198.907 169.771C197.537 189.031 182.088 271.174 182.088 271.174L205.339 274.666L225.744 176.499C225.744 176.499 257.648 161.91 265.028 156.834C271.977 152.054 276.886 150.206 279.186 144.989C283.157 135.978 280.652 119.773 280.652 119.773Z" fill="#262626"/>
<path d="M253.765 125.76L214.887 126.271L236.696 139.189L254.843 129.895C255.28 129.662 255.626 129.291 255.825 128.84C256.024 128.389 256.064 127.885 255.94 127.408C255.816 126.932 255.534 126.51 255.14 126.211C254.745 125.912 254.261 125.753 253.765 125.76Z" fill="#292A2E"/>
<path opacity="0.2" d="M253.765 125.76L214.887 126.271L236.696 139.189L254.843 129.895C255.28 129.662 255.626 129.291 255.825 128.84C256.024 128.389 256.064 127.885 255.94 127.408C255.816 126.932 255.534 126.51 255.14 126.211C254.745 125.912 254.261 125.753 253.765 125.76Z" fill="white"/>
<path d="M215.109 56.582L204.112 91.9215L182.086 120.524L194.953 135.173L221.157 106.165C222.365 105.219 223.309 103.983 223.901 102.575L224.309 101.595L239.446 65.272L215.109 56.582Z" fill="#0E82FD"/>
<path d="M232.05 19.07C232.05 19.07 227.618 15.7505 226.521 8.11566C225.67 2.2039 231.169 6.03386 231.169 6.03386C231.169 6.03386 230.598 1.77101 233.73 2.19408C236.862 2.61715 238.614 7.09508 238.614 7.09508" fill="#0C0C0C"/>
<path d="M249.915 2.69312C249.915 2.69312 265.452 4.34507 259.835 25.2267L258.461 25.3182L255.67 25.5038" fill="#0C0C0C"/>
<path d="M234.652 47.0346C234.72 47.0258 235.478 59.4996 250.088 58.4133C260.205 57.6617 263.811 47.017 264.043 47.017C262.952 46.787 261.604 46.4381 261.069 46.3185C259.901 46.0498 258.844 45.4349 258.038 44.5556C257.231 43.6763 256.714 42.5743 256.554 41.3962C256.258 39.628 256.759 30.5814 256.606 28.7922L241.08 32.2296C241.297 36.0084 242.815 44.7682 237.494 46.3185C236.607 46.5746 235.653 46.8117 234.652 47.0346Z" fill="#FFCEA9"/>
<path opacity="0.52" d="M240.862 42.7386C241.105 41.9611 241.262 41.1595 241.329 40.3482C241.5 38.4969 241.465 36.6326 241.227 34.7887C244.383 34.3669 247.357 33.0754 249.81 31.061C250.098 32.1172 251.684 36.732 251.244 37.7339C250.415 39.6308 246.515 42.7386 240.862 42.7386Z" fill="#0C0C0C"/>
<path d="M244.067 40.2695C250.193 39.7245 257.525 35.8857 257.631 27.6381L257.726 20.1964C257.832 11.9491 253.55 5.20815 245.721 5.10924C237.891 5.01067 231.953 11.6226 231.847 19.8702L231.805 23.1646C231.811 24.2961 231.894 25.4258 232.054 26.5461C232.456 29.5099 233.079 34.016 235.107 37.0642C237.021 39.942 240.153 40.6174 244.067 40.2695Z" fill="#FFCEA9"/>
<path opacity="0.52" d="M241.225 32.7308C239.96 32.7876 238.7 32.5489 237.546 32.034C237.499 32.0129 237.462 31.9743 237.443 31.9265C237.425 31.8787 237.425 31.8256 237.446 31.7784C237.466 31.7312 237.504 31.6938 237.552 31.6742C237.6 31.6545 237.653 31.6542 237.701 31.6733C240.188 32.725 242.446 32.5712 244.23 31.2282C244.266 31.2 244.304 31.1736 244.342 31.1493C244.387 31.1283 244.439 31.1249 244.486 31.1396C244.533 31.1544 244.573 31.1862 244.598 31.2288C244.623 31.2715 244.63 31.3218 244.62 31.3698C244.609 31.4178 244.58 31.46 244.539 31.488C244.525 31.4968 244.502 31.5148 244.471 31.5391C243.533 32.2481 242.402 32.663 241.225 32.7308Z" fill="#0C0C0C"/>
<path opacity="0.52" d="M241.283 34.5888C241.054 34.6028 240.825 34.5973 240.598 34.5725C240.572 34.5698 240.547 34.5621 240.524 34.5498C240.501 34.5375 240.481 34.5209 240.465 34.5009C240.448 34.4809 240.436 34.4579 240.429 34.4332C240.422 34.4086 240.419 34.3827 240.422 34.3571C240.425 34.3315 240.433 34.3067 240.445 34.2842C240.457 34.2616 240.474 34.2416 240.494 34.2254C240.514 34.2093 240.538 34.1972 240.562 34.1899C240.587 34.1826 240.613 34.1803 240.639 34.183C242.007 34.327 242.661 33.7054 242.688 33.6786C242.725 33.6419 242.776 33.6212 242.828 33.6211C242.88 33.621 242.931 33.6416 242.968 33.6783C243.005 33.715 243.026 33.7648 243.026 33.8168C243.026 33.8687 243.005 33.9186 242.968 33.9554C242.497 34.3533 241.901 34.5771 241.283 34.5888Z" fill="#0C0C0C"/>
<path d="M234.433 24.7505C234.966 24.7505 235.397 24.3223 235.397 23.794C235.397 23.2657 234.966 22.8374 234.433 22.8374C233.9 22.8374 233.469 23.2657 233.469 23.794C233.469 24.3223 233.9 24.7505 234.433 24.7505Z" fill="#0C0C0C"/>
<path d="M243.855 24.1641C244.388 24.1641 244.82 23.7358 244.82 23.2075C244.82 22.6792 244.388 22.251 243.855 22.251C243.322 22.251 242.891 22.6792 242.891 23.2075C242.891 23.7358 243.322 24.1641 243.855 24.1641Z" fill="#0C0C0C"/>
<path d="M257.112 30.1463C259.492 30.1764 261.453 27.6759 261.484 25.3161C261.515 22.9562 259.601 21.6304 257.222 21.6006L255.976 23.1662L255.067 30.1205L257.112 30.1463Z" fill="#FFCEA9"/>
<path d="M254.745 26.3527C254.745 26.3527 253.942 14.6827 250.373 13.9619C247.997 13.4819 242.235 16.8251 236.897 15.8154C234.562 15.375 232.345 15.9468 232.12 17.0409C232.03 17.4741 230.576 11.2487 234.233 6.52551C237.144 2.76567 246.671 1.70207 251.006 2.93503C263.008 6.35005 257.712 22.1126 257.712 22.1126L257.177 26.136L254.745 26.3527Z" fill="#0C0C0C"/>
<g opacity="0.52">
<path d="M239.786 29.9772C239.781 29.9775 239.776 29.9775 239.771 29.9772C239.004 29.9697 237.719 29.8718 237.724 29.3031C237.73 28.8316 239.082 23.7565 239.236 23.1793C239.25 23.1296 239.282 23.0872 239.327 23.0614C239.372 23.0356 239.425 23.0285 239.475 23.0416C239.525 23.0548 239.568 23.0871 239.594 23.1316C239.62 23.176 239.627 23.2289 239.614 23.2786C239.013 25.5263 238.118 28.9867 238.115 29.3078C238.189 29.4433 238.981 29.5829 239.775 29.591C239.825 29.5921 239.872 29.6122 239.908 29.6472C239.944 29.6821 239.964 29.7293 239.966 29.779C239.967 29.8286 239.949 29.8769 239.916 29.9139C239.883 29.951 239.836 29.9738 239.786 29.9778V29.9772Z" fill="#0C0C0C"/>
</g>
<path d="M237.171 18.6074C236.365 18.3874 235.514 18.3874 234.708 18.6074C234.312 18.7129 233.935 18.8769 233.588 19.0938C233.245 19.3061 232.931 19.5606 232.652 19.8512C232.601 19.9029 232.572 19.9723 232.571 20.0449C232.57 20.1175 232.597 20.1878 232.647 20.241C232.696 20.2942 232.765 20.3263 232.838 20.3307C232.911 20.3351 232.983 20.3113 233.039 20.2644L233.056 20.2495C233.314 20.0127 233.601 19.809 233.91 19.6435C234.213 19.4787 234.54 19.3604 234.879 19.2926C235.546 19.1539 236.239 19.1923 236.886 19.404L236.913 19.4135C237.019 19.4474 237.134 19.439 237.234 19.39C237.334 19.341 237.41 19.2553 237.447 19.1512C237.484 19.0471 237.479 18.9327 237.433 18.8324C237.386 18.7321 237.302 18.6538 237.198 18.6141L237.171 18.6074Z" fill="#0C0C0C"/>
<path d="M242.876 19.0874C243.49 18.7919 244.171 18.6623 244.851 18.7118C245.196 18.734 245.535 18.808 245.858 18.9313C246.186 19.0547 246.497 19.2186 246.784 19.419L246.803 19.4312C246.864 19.4706 246.939 19.4849 247.011 19.471C247.083 19.4572 247.147 19.4163 247.189 19.3569C247.232 19.2976 247.249 19.2243 247.238 19.1523C247.227 19.0804 247.189 19.0154 247.131 18.9709C246.816 18.7197 246.47 18.5091 246.102 18.3439C245.729 18.1748 245.333 18.0622 244.926 18.0099C244.098 17.898 243.255 18.01 242.486 18.3341C242.434 18.3563 242.388 18.3884 242.349 18.4285C242.31 18.4687 242.279 18.516 242.258 18.5679C242.238 18.6198 242.228 18.6752 242.229 18.731C242.23 18.7868 242.242 18.8418 242.264 18.893C242.309 18.9963 242.394 19.0775 242.5 19.1188C242.552 19.1393 242.608 19.1493 242.664 19.1483C242.72 19.1473 242.776 19.1354 242.828 19.1131L242.851 19.102L242.876 19.0874Z" fill="#0C0C0C"/>
<path d="M242.486 6.57855C243.027 4.00756 242.039 1.62751 240.277 1.26256C238.516 0.897609 236.649 2.68596 236.108 5.25694C235.566 7.82792 236.555 10.208 238.316 10.5729C240.077 10.9379 241.944 9.14953 242.486 6.57855Z" fill="#0C0C0C"/>
<path d="M216.497 74.4516C216.958 79.8143 220.22 113.273 220.664 119.879H280.625C280.97 113.921 282.517 87.8691 283.823 76.217C285.071 65.0994 286.818 60.0402 285.382 56.5856C282.849 50.4919 274.785 47.7709 269.324 47.0376C265.99 46.5898 260.974 46.269 260.974 46.269C260.974 46.269 260.55 54.789 250.425 55.2632C236.641 55.9068 237.562 46.269 237.493 46.269C235.26 46.269 223.106 47.8797 220.066 49.8443C215.774 52.6191 214.505 56.401 214.455 59.8753C214.398 63.8766 215.976 68.3684 216.497 74.4516Z" fill="#0E82FD"/>
<path d="M219.538 106.693C219.495 106.693 219.454 106.678 219.422 106.649C219.391 106.62 219.371 106.581 219.367 106.539L217.095 80.7687C217.091 80.7239 217.105 80.6795 217.135 80.645C217.164 80.6106 217.205 80.5891 217.25 80.5851C217.273 80.5828 217.296 80.585 217.317 80.5916C217.339 80.5982 217.359 80.6089 217.376 80.6233C217.393 80.6377 217.407 80.6554 217.418 80.6753C217.428 80.6952 217.434 80.7169 217.436 80.7392L219.707 106.509C219.711 106.554 219.697 106.598 219.668 106.633C219.639 106.667 219.597 106.689 219.552 106.693C219.547 106.693 219.543 106.693 219.538 106.693Z" fill="#0C0C0C"/>
<path d="M223.886 121.662L232.119 115.037L230.733 115.426C230.284 115.542 229.806 115.485 229.397 115.266C228.988 115.046 228.679 114.681 228.531 114.244C228.462 114.016 228.441 113.776 228.469 113.54C228.498 113.303 228.574 113.075 228.694 112.869C228.814 112.663 228.975 112.483 229.167 112.34C229.359 112.198 229.579 112.096 229.812 112.04L247.109 107.868L248.597 113.332C249.06 115.029 249 116.824 248.427 118.488C247.854 120.151 246.794 121.607 245.381 122.669L238.972 127.466C238.644 127.721 238.237 127.856 237.82 127.848C237.403 127.841 237.002 127.69 236.684 127.423C236.401 127.175 236.206 126.844 236.127 126.478C236.048 126.112 236.089 125.731 236.244 125.39C236.216 125.382 236.191 125.367 236.172 125.346C236.155 125.325 236.143 125.301 236.137 125.274C236.132 125.248 236.133 125.221 236.141 125.195L234.96 126.082C234.595 126.368 234.135 126.506 233.671 126.468C233.208 126.429 232.777 126.218 232.465 125.877C232.196 125.562 232.049 125.163 232.047 124.751C232.046 124.339 232.192 123.939 232.458 123.623C232.44 123.62 232.422 123.614 232.405 123.605L231.92 123.969C231.592 124.225 231.185 124.36 230.768 124.352C230.351 124.344 229.95 124.193 229.632 123.926C229.29 123.625 229.078 123.205 229.042 122.753C229.005 122.301 229.146 121.852 229.436 121.501C229.429 121.491 229.423 121.481 229.419 121.469L225.99 124.228C225.82 124.365 225.625 124.467 225.415 124.529C225.205 124.591 224.985 124.611 224.767 124.589C224.55 124.566 224.339 124.501 224.146 124.398C223.954 124.295 223.784 124.155 223.646 123.986C223.508 123.817 223.405 123.624 223.342 123.415C223.28 123.207 223.26 122.989 223.282 122.773C223.305 122.557 223.37 122.348 223.475 122.157C223.579 121.966 223.72 121.798 223.89 121.661L223.886 121.662Z" fill="#FFCEA9"/>
<path opacity="0.2" d="M229.624 121.568C229.642 121.562 229.659 121.552 229.674 121.54L232.973 118.822C232.99 118.808 233.003 118.791 233.014 118.772C233.024 118.753 233.03 118.732 233.032 118.71C233.034 118.689 233.032 118.667 233.025 118.646C233.019 118.626 233.008 118.606 232.994 118.59C232.98 118.573 232.963 118.559 232.944 118.549C232.924 118.539 232.903 118.533 232.882 118.531C232.86 118.529 232.838 118.532 232.817 118.538C232.796 118.544 232.777 118.555 232.76 118.569L229.462 121.287C229.432 121.311 229.411 121.346 229.404 121.384C229.398 121.422 229.404 121.461 229.424 121.495C229.443 121.528 229.474 121.554 229.51 121.568C229.547 121.581 229.587 121.581 229.624 121.568Z" fill="#0A0A0A"/>
<path opacity="0.2" d="M232.531 123.621C232.549 123.615 232.566 123.605 232.58 123.594L235.19 121.477C235.224 121.45 235.245 121.41 235.25 121.366C235.254 121.323 235.241 121.279 235.213 121.246C235.185 121.212 235.145 121.19 235.101 121.186C235.057 121.182 235.014 121.195 234.98 121.222L232.37 123.339C232.34 123.363 232.319 123.398 232.312 123.436C232.304 123.474 232.311 123.513 232.33 123.547C232.35 123.581 232.38 123.607 232.417 123.621C232.454 123.634 232.494 123.634 232.531 123.621Z" fill="#0A0A0A"/>
<path opacity="0.2" d="M236.351 125.396C236.37 125.389 236.388 125.378 236.403 125.365L237.612 124.337C237.628 124.323 237.642 124.306 237.652 124.287C237.662 124.268 237.667 124.247 237.669 124.225C237.671 124.204 237.668 124.182 237.661 124.161C237.655 124.141 237.644 124.122 237.63 124.105C237.616 124.089 237.598 124.076 237.579 124.066C237.559 124.056 237.538 124.05 237.517 124.049C237.495 124.047 237.473 124.05 237.452 124.056C237.432 124.063 237.412 124.074 237.396 124.088L236.187 125.116C236.158 125.141 236.138 125.175 236.132 125.213C236.125 125.251 236.132 125.29 236.152 125.323C236.171 125.356 236.202 125.382 236.238 125.395C236.275 125.408 236.314 125.408 236.351 125.396Z" fill="#0A0A0A"/>
<path d="M296.654 105.435L296.591 105.157L285.646 57.1455L263.994 62.0001L272.536 99.4762L238.317 107.816L242.528 126.967L288.129 118.34C288.232 118.32 288.384 118.29 288.488 118.266C289.873 117.956 291.184 117.377 292.344 116.564C293.504 115.751 294.492 114.72 295.25 113.528C296.008 112.337 296.523 111.009 296.764 109.62C297.004 108.231 296.967 106.809 296.654 105.435Z" fill="#0E82FD"/>
<path d="M238.149 107.852C238.14 107.809 238.148 107.764 238.172 107.727C238.195 107.69 238.233 107.663 238.275 107.653L272.343 99.3541L266.804 75.0893C266.797 75.0672 266.796 75.0441 266.799 75.0213C266.802 74.9986 266.809 74.9767 266.821 74.9569C266.833 74.9372 266.849 74.9201 266.868 74.9066C266.886 74.8931 266.908 74.8835 266.93 74.8785C266.953 74.8734 266.976 74.8729 266.999 74.8771C267.022 74.8812 267.043 74.8899 267.063 74.9026C267.082 74.9154 267.098 74.9318 267.111 74.951C267.124 74.9703 267.132 74.9918 267.136 75.0144L272.712 99.4415C272.723 99.485 272.715 99.5307 272.692 99.5688C272.668 99.6069 272.631 99.6342 272.587 99.6448L238.517 107.944C238.517 107.944 238.745 108.931 238.81 109.265C238.815 109.308 238.803 109.352 238.775 109.386C238.748 109.42 238.708 109.442 238.664 109.447C238.62 109.452 238.576 109.44 238.542 109.413C238.507 109.385 238.485 109.346 238.48 109.302C238.402 108.937 238.149 107.852 238.149 107.852Z" fill="#0C0C0C"/>
<path d="M239.485 134.594L226.328 94.4816C226.096 93.7766 225.646 93.1624 225.042 92.7267C224.437 92.2911 223.709 92.0566 222.961 92.0566H169.359C168.8 92.0566 168.249 92.1878 167.751 92.4394C167.254 92.691 166.823 93.056 166.495 93.5044C166.166 93.9528 165.95 94.4719 165.862 95.0193C165.775 95.5667 165.82 96.1268 165.993 96.6538L179.15 136.767C179.381 137.471 179.831 138.086 180.436 138.521C181.041 138.957 181.769 139.191 182.516 139.191H236.118C236.677 139.191 237.228 139.06 237.726 138.809C238.223 138.557 238.654 138.192 238.982 137.744C239.311 137.295 239.527 136.776 239.615 136.229C239.702 135.681 239.657 135.121 239.485 134.594Z" fill="#292A2E"/>
<path opacity="0.2" d="M239.485 134.594L226.328 94.4816C226.096 93.7766 225.646 93.1624 225.042 92.7267C224.437 92.2911 223.709 92.0566 222.961 92.0566H169.359C168.8 92.0566 168.249 92.1878 167.751 92.4394C167.254 92.691 166.823 93.056 166.495 93.5044C166.166 93.9528 165.95 94.4719 165.862 95.0193C165.775 95.5667 165.82 96.1268 165.993 96.6538L179.15 136.767C179.381 137.471 179.831 138.086 180.436 138.521C181.041 138.957 181.769 139.191 182.516 139.191H236.118C236.677 139.191 237.228 139.06 237.726 138.809C238.223 138.557 238.654 138.192 238.982 137.744C239.311 137.295 239.527 136.776 239.615 136.229C239.702 135.681 239.657 135.121 239.485 134.594Z" fill="white"/>
<path d="M201.194 121.2C204.299 121.2 206.816 118.703 206.816 115.624C206.816 112.545 204.299 110.048 201.194 110.048C198.09 110.048 195.573 112.545 195.573 115.624C195.573 118.703 198.09 121.2 201.194 121.2Z" fill="white"/>
<path d="M148.272 4.23877H41.8849C36.9562 4.23877 32.9607 8.20159 32.9607 13.09V141.185C32.9607 146.074 36.9562 150.037 41.8849 150.037H148.272C153.201 150.037 157.196 146.074 157.196 141.185V13.09C157.196 8.20159 153.201 4.23877 148.272 4.23877Z" fill="#292A2E"/>
<path d="M152.204 0.338623H45.817C40.8883 0.338623 36.8928 4.30144 36.8928 9.18983V137.285C36.8928 142.174 40.8883 146.136 45.817 146.136H152.204C157.133 146.136 161.129 142.174 161.129 137.285V9.18983C161.129 4.30144 157.133 0.338623 152.204 0.338623Z" fill="white"/>
<path d="M152.204 146.475H45.817C43.3603 146.473 41.0051 145.503 39.268 143.78C37.5309 142.058 36.5539 139.722 36.5513 137.285V9.18993C36.554 6.75343 37.5311 4.4175 39.2681 2.69464C41.0052 0.971775 43.3604 0.00268969 45.817 0L152.204 0C154.661 0.00277933 157.016 0.971905 158.753 2.69476C160.49 4.41761 161.467 6.75349 161.47 9.18993V137.285C161.467 139.721 160.49 142.057 158.753 143.78C157.016 145.503 154.661 146.472 152.204 146.475ZM45.817 0.677449C43.5415 0.679959 41.3599 1.57761 39.7509 3.17347C38.1419 4.76933 37.2368 6.93305 37.2343 9.18993V137.285C37.2368 139.542 38.1419 141.706 39.7509 143.301C41.3599 144.897 43.5415 145.795 45.817 145.797H152.204C154.48 145.795 156.661 144.897 158.27 143.301C159.879 141.706 160.784 139.542 160.787 137.285V9.18993C160.784 6.93308 159.879 4.76936 158.27 3.17349C156.661 1.57762 154.48 0.679959 152.204 0.677449H45.817Z" fill="#292A2E"/>
<path d="M35.4599 164.465C47.6967 164.465 57.6166 154.627 57.6166 142.49C57.6166 130.353 47.6967 120.515 35.4599 120.515C23.2231 120.515 13.3032 130.353 13.3032 142.49C13.3032 154.627 23.2231 164.465 35.4599 164.465Z" fill="#292A2E"/>
<path d="M30.8603 139.622C30.5686 139.622 30.2889 139.507 30.0826 139.303C29.8763 139.098 29.7603 138.821 29.7603 138.531V133.25C29.7603 130.33 32.3172 127.954 35.4599 127.954C38.6025 127.954 41.1594 130.33 41.1594 133.25V138.169C41.162 138.314 41.1355 138.458 41.0814 138.592C41.0272 138.727 40.9466 138.85 40.8442 138.953C40.7419 139.056 40.6197 139.138 40.485 139.194C40.3503 139.25 40.2057 139.279 40.0596 139.279C39.9135 139.279 39.7689 139.25 39.6342 139.194C39.4994 139.138 39.3773 139.056 39.2749 138.953C39.1725 138.85 39.0919 138.727 39.0378 138.592C38.9837 138.458 38.9572 138.314 38.9597 138.169V133.25C38.9597 131.533 37.3887 130.136 35.4599 130.136C33.531 130.136 31.96 131.533 31.96 133.25V138.532C31.9598 138.821 31.8439 139.099 31.6376 139.303C31.4314 139.507 31.1518 139.622 30.8603 139.622Z" fill="white"/>
<path d="M42.4767 137.619H28.443C27.6246 137.619 26.9612 138.277 26.9612 139.088V152.199C26.9612 153.011 27.6246 153.669 28.443 153.669H42.4767C43.2951 153.669 43.9585 153.011 43.9585 152.199V139.088C43.9585 138.277 43.2951 137.619 42.4767 137.619Z" fill="white"/>
<path d="M34.0627 144.346C34.0626 144.606 34.1362 144.861 34.2751 145.081C34.414 145.302 34.6126 145.479 34.8482 145.593V147.722C34.8482 147.883 34.9125 148.036 35.0269 148.15C35.1413 148.263 35.2964 148.327 35.4582 148.327C35.62 148.327 35.7751 148.263 35.8895 148.15C36.0039 148.036 36.0681 147.883 36.0681 147.722V145.593C36.2926 145.485 36.4838 145.319 36.6219 145.113C36.7599 144.907 36.8399 144.668 36.8533 144.421C36.8668 144.174 36.8133 143.928 36.6984 143.708C36.5835 143.488 36.4114 143.303 36.2 143.172C35.9885 143.041 35.7455 142.968 35.4961 142.961C35.2467 142.954 35.0001 143.014 34.7818 143.134C34.5635 143.253 34.3815 143.429 34.2548 143.642C34.128 143.855 34.0611 144.098 34.061 144.346H34.0627Z" fill="#292A2E"/>
<path d="M142.914 73.0876H55.1075C53.0115 73.0876 51.3123 74.773 51.3123 76.8519V89.0609C51.3123 91.1398 53.0115 92.8251 55.1075 92.8251H142.914C145.01 92.8251 146.71 91.1398 146.71 89.0609V76.8519C146.71 74.773 145.01 73.0876 142.914 73.0876Z" fill="white"/>
<path d="M142.914 93.1634H55.1075C54.0108 93.1622 52.9593 92.7295 52.1837 91.9603C51.4082 91.1911 50.972 90.1483 50.9707 89.0605V76.8518C50.972 75.764 51.4082 74.7211 52.1837 73.9519C52.9592 73.1826 54.0107 72.7499 55.1075 72.7485H142.914C144.011 72.7498 145.062 73.1825 145.838 73.9518C146.613 74.721 147.05 75.764 147.051 76.8518V89.0605C147.05 90.1483 146.613 91.1913 145.838 91.9605C145.062 92.7296 144.011 93.1623 142.914 93.1634ZM55.1075 73.426C54.1918 73.427 53.3138 73.7882 52.6663 74.4305C52.0188 75.0728 51.6546 75.9436 51.6537 76.8518V89.0605C51.6547 89.9687 52.0189 90.8394 52.6664 91.4816C53.3139 92.1238 54.1918 92.485 55.1075 92.486H142.914C143.83 92.485 144.708 92.1238 145.355 91.4816C146.003 90.8394 146.367 89.9687 146.368 89.0605V76.8518C146.367 75.9435 146.003 75.0727 145.355 74.4305C144.708 73.7882 143.83 73.427 142.914 73.426H55.1075Z" fill="#292A2E"/>
<path d="M142.914 101.294H55.1075C53.0115 101.294 51.3123 102.98 51.3123 105.059V117.268C51.3123 119.347 53.0115 121.032 55.1075 121.032H142.914C145.01 121.032 146.71 119.347 146.71 117.268V105.059C146.71 102.98 145.01 101.294 142.914 101.294Z" fill="white"/>
<path d="M142.914 121.37H55.1075C54.0106 121.369 52.9589 120.936 52.1834 120.167C51.4078 119.398 50.9717 118.354 50.9707 117.266V105.059C50.972 103.971 51.4082 102.928 52.1837 102.159C52.9593 101.39 54.0108 100.957 55.1075 100.956H142.914C144.011 100.957 145.062 101.39 145.838 102.159C146.613 102.928 147.05 103.971 147.051 105.059V117.266C147.05 118.354 146.614 119.398 145.838 120.167C145.063 120.936 144.011 121.369 142.914 121.37ZM55.1075 101.633C54.1918 101.634 53.3139 101.995 52.6664 102.638C52.0189 103.28 51.6547 104.151 51.6537 105.059V117.266C51.6547 118.175 52.0189 119.045 52.6664 119.688C53.3139 120.33 54.1918 120.691 55.1075 120.692H142.914C143.83 120.691 144.708 120.33 145.355 119.688C146.003 119.045 146.367 118.175 146.368 117.266V105.059C146.367 104.151 146.003 103.28 145.355 102.638C144.708 101.995 143.83 101.634 142.914 101.633H55.1075Z" fill="#292A2E"/>
<path d="M99.0106 58.4062C110.27 58.4062 119.397 49.3535 119.397 38.1864C119.397 27.0193 110.27 17.9666 99.0106 17.9666C87.7514 17.9666 78.624 27.0193 78.624 38.1864C78.624 49.3535 87.7514 58.4062 99.0106 58.4062Z" fill="white"/>
<path d="M99.0106 58.745C94.9109 58.745 90.9034 57.5393 87.4947 55.2803C84.0859 53.0213 81.4292 49.8105 79.8603 46.0539C78.2914 42.2973 77.881 38.1637 78.6808 34.1757C79.4806 30.1877 81.4547 26.5246 84.3536 23.6494C87.2525 20.7742 90.9459 18.8162 94.9667 18.023C98.9876 17.2297 103.155 17.6368 106.943 19.1929C110.73 20.7489 113.968 23.3839 116.245 26.7648C118.523 30.1456 119.739 34.1204 119.739 38.1865C119.733 43.6371 117.547 48.8627 113.661 52.7168C109.775 56.571 104.506 58.7389 99.0106 58.745ZM99.0106 18.3054C95.046 18.3054 91.1705 19.4714 87.8741 21.656C84.5777 23.8405 82.0085 26.9455 80.4914 30.5783C78.9742 34.2111 78.5772 38.2085 79.3507 42.0651C80.1241 45.9216 82.0332 49.4641 84.8366 52.2445C87.6399 55.0249 91.2116 56.9184 95.1 57.6856C98.9883 58.4527 103.019 58.059 106.681 56.5542C110.344 55.0494 113.475 52.5012 115.677 49.2318C117.88 45.9624 119.056 42.1186 119.056 38.1865C119.05 32.9155 116.936 27.8621 113.178 24.135C109.42 20.4078 104.325 18.3113 99.0106 18.3054Z" fill="#292A2E"/>
<path opacity="0.5" d="M118.944 38.1864C118.95 42.8665 117.276 47.3957 114.221 50.9628C112.34 48.7873 110.006 47.0412 107.381 45.8443C104.755 44.6474 101.899 44.028 99.0095 44.0285C96.1197 44.029 93.2643 44.6495 90.639 45.8473C88.0138 47.0452 85.6808 48.7921 83.8002 50.9682C81.7259 48.5401 80.2733 45.6512 79.5657 42.5471C78.8581 39.4429 78.9165 36.2153 79.7358 33.1383C80.5552 30.0613 82.1113 27.226 84.272 24.8732C86.4327 22.5204 89.1341 20.7196 92.1466 19.624C95.1592 18.5283 98.3939 18.1701 101.576 18.5798C104.758 18.9895 107.793 20.155 110.424 21.9772C113.055 23.7994 115.203 26.2245 116.686 29.0465C118.17 31.8685 118.944 35.0039 118.944 38.1864Z" fill="#0E82FD"/>
<path d="M114.221 50.9628C112.35 53.1542 110.021 54.915 107.394 56.1229C104.768 57.3307 101.907 57.9567 99.0121 57.9572C96.1169 57.9577 93.2564 57.3328 90.6294 56.1258C88.0025 54.9189 85.6721 53.1589 83.8003 50.9683C85.6809 48.7922 88.0139 47.0453 90.6391 45.8474C93.2644 44.6495 96.1198 44.0291 99.0096 44.0286C101.899 44.028 104.755 44.6475 107.381 45.8444C110.006 47.0413 112.34 48.7874 114.221 50.9628Z" fill="white"/>
<path d="M99.011 40.3397C103.461 40.3397 107.068 36.7618 107.068 32.3482C107.068 27.9346 103.461 24.3567 99.011 24.3567C94.561 24.3567 90.9536 27.9346 90.9536 32.3482C90.9536 36.7618 94.561 40.3397 99.011 40.3397Z" fill="white"/>
<g opacity="0.4">
<path d="M58.7034 113.567C60.0419 113.567 61.1269 112.491 61.1269 111.163C61.1269 109.836 60.0419 108.76 58.7034 108.76C57.365 108.76 56.28 109.836 56.28 111.163C56.28 112.491 57.365 113.567 58.7034 113.567Z" fill="#292A2E"/>
<path d="M66.284 113.567C67.6224 113.567 68.7074 112.491 68.7074 111.163C68.7074 109.836 67.6224 108.76 66.284 108.76C64.9456 108.76 63.8606 109.836 63.8606 111.163C63.8606 112.491 64.9456 113.567 66.284 113.567Z" fill="#292A2E"/>
<path d="M73.8648 113.567C75.2032 113.567 76.2882 112.491 76.2882 111.163C76.2882 109.836 75.2032 108.76 73.8648 108.76C72.5264 108.76 71.4414 109.836 71.4414 111.163C71.4414 112.491 72.5264 113.567 73.8648 113.567Z" fill="#292A2E"/>
<path d="M81.4454 113.567C82.7838 113.567 83.8688 112.491 83.8688 111.163C83.8688 109.836 82.7838 108.76 81.4454 108.76C80.107 108.76 79.022 109.836 79.022 111.163C79.022 112.491 80.107 113.567 81.4454 113.567Z" fill="#292A2E"/>
<path d="M89.0257 113.567C90.3641 113.567 91.4491 112.491 91.4491 111.163C91.4491 109.836 90.3641 108.76 89.0257 108.76C87.6873 108.76 86.6023 109.836 86.6023 111.163C86.6023 112.491 87.6873 113.567 89.0257 113.567Z" fill="#292A2E"/>
<path d="M96.6065 113.567C97.9449 113.567 99.0299 112.491 99.0299 111.163C99.0299 109.836 97.9449 108.76 96.6065 108.76C95.2681 108.76 94.1831 109.836 94.1831 111.163C94.1831 112.491 95.2681 113.567 96.6065 113.567Z" fill="#292A2E"/>
<path d="M104.187 113.567C105.526 113.567 106.61 112.491 106.61 111.163C106.61 109.836 105.526 108.76 104.187 108.76C102.849 108.76 101.764 109.836 101.764 111.163C101.764 112.491 102.849 113.567 104.187 113.567Z" fill="#292A2E"/>
</g>
<g opacity="0.3">
<path d="M61.1069 82.8115V83.6245H57.9946V82.8115H61.1069Z" fill="black"/>
<path d="M64.9746 82.8115V83.6245H61.8623V82.8115H64.9746Z" fill="black"/>
<path d="M68.842 82.8115V83.6245H65.7297V82.8115H68.842Z" fill="black"/>
<path d="M72.7092 82.8115V83.6245H69.5969V82.8115H72.7092Z" fill="black"/>
<path d="M76.5772 82.8115V83.6245H73.4646V82.8115H76.5772Z" fill="black"/>
<path d="M83.5569 87.3981C82.8646 87.7509 82.0934 87.9233 81.3155 87.8991C79.249 87.8991 77.4973 86.3993 77.4973 83.9997C77.4973 81.4254 79.2995 79.2007 82.0965 79.2007C84.2891 79.2007 85.7634 80.7249 85.7634 82.8125C85.7634 84.6873 84.7047 85.7868 83.5203 85.7868C83.0166 85.7868 82.5504 85.4481 82.588 84.6873H82.5374C82.3745 85.0168 82.1218 85.2945 81.8079 85.4888C81.494 85.6831 81.1316 85.7864 80.7615 85.7868C80.0307 85.7868 79.4006 85.1995 79.4006 84.2124C79.3992 83.8231 79.4755 83.4373 79.6251 83.0772C79.7747 82.7172 79.9946 82.3901 80.2722 82.1148C80.5498 81.8395 80.8796 81.6213 81.2426 81.473C81.6056 81.3246 81.9946 81.2489 82.3872 81.2503C82.8501 81.2436 83.3094 81.333 83.7355 81.5128L83.3069 83.7748C83.118 84.7232 83.2693 85.1636 83.6849 85.1748C84.3277 85.187 85.0459 84.3371 85.0459 82.8877C85.0459 81.0755 83.9496 79.7758 81.9965 79.7758C79.9426 79.7758 78.2162 81.3878 78.2162 83.9249C78.2162 86.0121 79.5898 87.2992 81.4548 87.2992C82.116 87.3145 82.7704 87.1641 83.3574 86.8619L83.5569 87.3981ZM82.8639 81.9992C82.6594 81.9396 82.447 81.9102 82.2338 81.9118C81.1249 81.9118 80.2305 82.949 80.2305 84.1613C80.2305 84.711 80.5078 85.1097 81.0621 85.1097C81.7929 85.1097 82.4606 84.185 82.5989 83.41L82.8639 81.9992Z" fill="black"/>
<path d="M89.7294 82.8115V83.6245H86.6172V82.8115H89.7294Z" fill="black"/>
<path d="M93.5972 82.8115V83.6245H90.4846V82.8115H93.5972Z" fill="black"/>
<path d="M97.4645 82.8115V83.6245H94.3523V82.8115H97.4645Z" fill="black"/>
</g>
</g>
<defs>
<filter id="filter0_d_1_4725" x="-4" y="0" width="312" height="300" filterUnits="userSpaceOnUse" color-interpolation-filters="sRGB">
<feFlood flood-opacity="0" result="BackgroundImageFix"/>
<feColorMatrix in="SourceAlpha" type="matrix" values="0 0 0 0 0 0 0 0 0 0 0 0 0 0 0 0 0 0 127 0" result="hardAlpha"/>
<feOffset dy="4"/>
<feGaussianBlur stdDeviation="2"/>
<feComposite in2="hardAlpha" operator="out"/>
<feColorMatrix type="matrix" values="0 0 0 0 0 0 0 0 0 0 0 0 0 0 0 0 0 0 0.25 0"/>
<feBlend mode="normal" in2="BackgroundImageFix" result="effect1_dropShadow_1_4725"/>
<feBlend mode="normal" in="SourceGraphic" in2="effect1_dropShadow_1_4725" result="shape"/>
</filter>
<clipPath id="clip0_1_4725">
<rect width="304" height="292" fill="white"/>
</clipPath>
</defs>
</svg>
