<svg width="315" height="252" viewBox="0 0 315 252" fill="none" xmlns="http://www.w3.org/2000/svg">
<ellipse cx="155.119" cy="137.198" rx="62.9192" ry="62.9358" fill="#0E82FD"/>
<g filter="url(#filter0_d_1_5649)">
<path d="M133.29 141.694L148.763 155.18L176.948 119.217" stroke="white" stroke-width="5.85568" stroke-linecap="round" stroke-linejoin="round"/>
</g>
<rect width="6.29184" height="7.34228" rx="1.17114" transform="matrix(0.982096 -0.189383 0.189287 0.982114 161.775 37.3547)" fill="url(#paint0_linear_1_5649)"/>
<rect width="6.29217" height="7.34189" rx="1.17114" transform="matrix(0.873968 0.486373 -0.486177 0.874077 260.646 194.285)" fill="url(#paint1_linear_1_5649)"/>
<rect width="6.29217" height="7.34189" rx="1.17114" transform="matrix(0.873968 0.486373 -0.486177 0.874077 84.0266 242.944)" fill="url(#paint2_linear_1_5649)"/>
<rect x="119.851" y="57.9834" width="2.90352" height="3.38834" rx="1.17114" fill="url(#paint3_linear_1_5649)"/>
<rect width="5.34656" height="6.23862" rx="1.17114" transform="matrix(0.891126 0.454171 -0.453981 0.891223 256.306 34.0094)" fill="url(#paint4_linear_1_5649)"/>
<rect x="248.039" y="61.411" width="2.90352" height="3.38834" rx="1.17114" fill="url(#paint5_linear_1_5649)"/>
<rect x="239.471" y="188.702" width="2.90352" height="3.38834" rx="1.17114" fill="url(#paint6_linear_1_5649)"/>
<rect x="262.722" y="139.744" width="2.90352" height="3.38834" rx="1.17114" fill="url(#paint7_linear_1_5649)"/>
<rect x="295.76" y="95.6819" width="2.90352" height="3.38834" rx="1.17114" fill="url(#paint8_linear_1_5649)"/>
<rect x="268.839" y="174.015" width="2.90352" height="3.38834" rx="1.17114" fill="url(#paint9_linear_1_5649)"/>
<rect x="209.05" y="238.666" width="2.90352" height="3.38834" rx="1.17114" fill="url(#paint10_linear_1_5649)"/>
<rect width="4.14534" height="4.83713" rx="1.17114" transform="matrix(0.923013 -0.38526 0.385087 0.923085 86.3693 45.7687)" fill="url(#paint11_linear_1_5649)"/>
<rect width="4.14528" height="4.83721" rx="1.17114" transform="matrix(0.954673 0.29829 -0.298147 0.954718 7.61765 218.632)" fill="url(#paint12_linear_1_5649)"/>
<rect width="1.56987" height="1.83191" rx="0.784933" transform="matrix(0.954673 0.29829 -0.298147 0.954718 73.6062 74.875)" fill="url(#paint13_linear_1_5649)"/>
<rect width="1.56987" height="1.83191" rx="0.784933" transform="matrix(0.954673 0.29829 -0.298147 0.954718 233.901 84.6659)" fill="url(#paint14_linear_1_5649)"/>
<rect width="1.56987" height="1.83191" rx="0.784933" transform="matrix(0.954673 0.29829 -0.298147 0.954718 298.752 112.817)" fill="url(#paint15_linear_1_5649)"/>
<rect width="1.56987" height="1.83191" rx="0.784933" transform="matrix(0.954673 0.29829 -0.298147 0.954718 86.5947 189.151)" fill="url(#paint16_linear_1_5649)"/>
<rect width="1.56987" height="1.83191" rx="0.784933" transform="matrix(0.954673 0.29829 -0.298147 0.954718 29.5547 17.3487)" fill="url(#paint17_linear_1_5649)"/>
<rect width="2.98104" height="3.47863" rx="1.17114" transform="matrix(0.954673 0.29829 -0.298147 0.954718 41.0566 135.724)" fill="url(#paint18_linear_1_5649)"/>
<rect width="2.98104" height="3.47863" rx="1.17114" transform="matrix(0.954673 0.29829 -0.298147 0.954718 44.904 179.991)" fill="url(#paint19_linear_1_5649)"/>
<rect width="2.98104" height="3.47863" rx="1.17114" transform="matrix(0.954673 0.29829 -0.298147 0.954718 132.818 222.677)" fill="url(#paint20_linear_1_5649)"/>
<rect width="4.14528" height="4.83721" rx="1.17114" transform="matrix(0.954673 0.29829 -0.298147 0.954718 183.402 16.1251)" fill="url(#paint21_linear_1_5649)"/>
<rect width="5.34038" height="6.2318" rx="1.17114" transform="matrix(0.954673 0.29829 -0.298147 0.954718 56.56 57.7384)" fill="url(#paint22_linear_1_5649)"/>
<rect width="5.34167" height="6.23031" rx="1.17114" transform="matrix(-0.0462313 -0.99912 0.999119 -0.0462557 154.306 5.57234)" fill="url(#paint23_linear_1_5649)"/>
<rect width="8.23589" height="9.60857" rx="1.17114" transform="matrix(-0.710579 0.703885 -0.703698 -0.710765 12.1288 109.86)" fill="url(#paint24_linear_1_5649)"/>
<rect width="8.23491" height="9.60972" rx="1.17114" transform="matrix(0.979269 -0.203494 0.203391 0.979291 304.324 229.469)" fill="url(#paint25_linear_1_5649)"/>
<defs>
<filter id="filter0_d_1_5649" x="126.847" y="116.289" width="56.5434" height="50.0197" filterUnits="userSpaceOnUse" color-interpolation-filters="sRGB">
<feFlood flood-opacity="0" result="BackgroundImageFix"/>
<feColorMatrix in="SourceAlpha" type="matrix" values="0 0 0 0 0 0 0 0 0 0 0 0 0 0 0 0 0 0 127 0" result="hardAlpha"/>
<feOffset dy="4.68454"/>
<feGaussianBlur stdDeviation="1.7567"/>
<feColorMatrix type="matrix" values="0 0 0 0 0 0 0 0 0 0 0 0 0 0 0 0 0 0 0.15 0"/>
<feBlend mode="normal" in2="BackgroundImageFix" result="effect1_dropShadow_1_5649"/>
<feBlend mode="normal" in="SourceGraphic" in2="effect1_dropShadow_1_5649" result="shape"/>
</filter>
<linearGradient id="paint0_linear_1_5649" x1="3.14592" y1="0" x2="3.14592" y2="7.34228" gradientUnits="userSpaceOnUse">
<stop stop-color="#4157FF"/>
<stop offset="1" stop-color="#A3ADFF"/>
</linearGradient>
<linearGradient id="paint1_linear_1_5649" x1="3.14609" y1="0" x2="3.14609" y2="7.34189" gradientUnits="userSpaceOnUse">
<stop stop-color="#4157FF"/>
<stop offset="1" stop-color="#A3ADFF"/>
</linearGradient>
<linearGradient id="paint2_linear_1_5649" x1="3.14609" y1="0" x2="3.14609" y2="7.34189" gradientUnits="userSpaceOnUse">
<stop stop-color="#4157FF"/>
<stop offset="1" stop-color="#A3ADFF"/>
</linearGradient>
<linearGradient id="paint3_linear_1_5649" x1="121.302" y1="57.9834" x2="121.302" y2="61.3717" gradientUnits="userSpaceOnUse">
<stop stop-color="#4157FF"/>
<stop offset="1" stop-color="#A3ADFF"/>
</linearGradient>
<linearGradient id="paint4_linear_1_5649" x1="2.67328" y1="0" x2="2.67328" y2="6.23862" gradientUnits="userSpaceOnUse">
<stop stop-color="#4157FF"/>
<stop offset="1" stop-color="#A3ADFF"/>
</linearGradient>
<linearGradient id="paint5_linear_1_5649" x1="249.49" y1="61.411" x2="249.49" y2="64.7994" gradientUnits="userSpaceOnUse">
<stop stop-color="#4157FF"/>
<stop offset="1" stop-color="#A3ADFF"/>
</linearGradient>
<linearGradient id="paint6_linear_1_5649" x1="240.923" y1="188.702" x2="240.923" y2="192.091" gradientUnits="userSpaceOnUse">
<stop stop-color="#4157FF"/>
<stop offset="1" stop-color="#A3ADFF"/>
</linearGradient>
<linearGradient id="paint7_linear_1_5649" x1="264.174" y1="139.744" x2="264.174" y2="143.133" gradientUnits="userSpaceOnUse">
<stop stop-color="#4157FF"/>
<stop offset="1" stop-color="#A3ADFF"/>
</linearGradient>
<linearGradient id="paint8_linear_1_5649" x1="297.212" y1="95.6819" x2="297.212" y2="99.0702" gradientUnits="userSpaceOnUse">
<stop stop-color="#4157FF"/>
<stop offset="1" stop-color="#A3ADFF"/>
</linearGradient>
<linearGradient id="paint9_linear_1_5649" x1="270.29" y1="174.015" x2="270.29" y2="177.403" gradientUnits="userSpaceOnUse">
<stop stop-color="#4157FF"/>
<stop offset="1" stop-color="#A3ADFF"/>
</linearGradient>
<linearGradient id="paint10_linear_1_5649" x1="210.501" y1="238.666" x2="210.501" y2="242.055" gradientUnits="userSpaceOnUse">
<stop stop-color="#4157FF"/>
<stop offset="1" stop-color="#A3ADFF"/>
</linearGradient>
<linearGradient id="paint11_linear_1_5649" x1="2.07267" y1="0" x2="2.07267" y2="4.83713" gradientUnits="userSpaceOnUse">
<stop stop-color="#4157FF"/>
<stop offset="1" stop-color="#A3ADFF"/>
</linearGradient>
<linearGradient id="paint12_linear_1_5649" x1="2.07264" y1="0" x2="2.07264" y2="4.83721" gradientUnits="userSpaceOnUse">
<stop stop-color="#4157FF"/>
<stop offset="1" stop-color="#A3ADFF"/>
</linearGradient>
<linearGradient id="paint13_linear_1_5649" x1="0.784933" y1="0" x2="0.784933" y2="1.83191" gradientUnits="userSpaceOnUse">
<stop stop-color="#4157FF"/>
<stop offset="1" stop-color="#A3ADFF"/>
</linearGradient>
<linearGradient id="paint14_linear_1_5649" x1="0.784933" y1="0" x2="0.784933" y2="1.83191" gradientUnits="userSpaceOnUse">
<stop stop-color="#4157FF"/>
<stop offset="1" stop-color="#A3ADFF"/>
</linearGradient>
<linearGradient id="paint15_linear_1_5649" x1="0.784933" y1="0" x2="0.784933" y2="1.83191" gradientUnits="userSpaceOnUse">
<stop stop-color="#4157FF"/>
<stop offset="1" stop-color="#A3ADFF"/>
</linearGradient>
<linearGradient id="paint16_linear_1_5649" x1="0.784933" y1="0" x2="0.784933" y2="1.83191" gradientUnits="userSpaceOnUse">
<stop stop-color="#4157FF"/>
<stop offset="1" stop-color="#A3ADFF"/>
</linearGradient>
<linearGradient id="paint17_linear_1_5649" x1="0.784933" y1="0" x2="0.784933" y2="1.83191" gradientUnits="userSpaceOnUse">
<stop stop-color="#4157FF"/>
<stop offset="1" stop-color="#A3ADFF"/>
</linearGradient>
<linearGradient id="paint18_linear_1_5649" x1="1.49052" y1="0" x2="1.49052" y2="3.47863" gradientUnits="userSpaceOnUse">
<stop stop-color="#4157FF"/>
<stop offset="1" stop-color="#A3ADFF"/>
</linearGradient>
<linearGradient id="paint19_linear_1_5649" x1="1.49052" y1="0" x2="1.49052" y2="3.47863" gradientUnits="userSpaceOnUse">
<stop stop-color="#4157FF"/>
<stop offset="1" stop-color="#A3ADFF"/>
</linearGradient>
<linearGradient id="paint20_linear_1_5649" x1="1.49052" y1="0" x2="1.49052" y2="3.47863" gradientUnits="userSpaceOnUse">
<stop stop-color="#4157FF"/>
<stop offset="1" stop-color="#A3ADFF"/>
</linearGradient>
<linearGradient id="paint21_linear_1_5649" x1="2.07264" y1="0" x2="2.07264" y2="4.83721" gradientUnits="userSpaceOnUse">
<stop stop-color="#4157FF"/>
<stop offset="1" stop-color="#A3ADFF"/>
</linearGradient>
<linearGradient id="paint22_linear_1_5649" x1="2.67019" y1="0" x2="2.67019" y2="6.2318" gradientUnits="userSpaceOnUse">
<stop stop-color="#4157FF"/>
<stop offset="1" stop-color="#A3ADFF"/>
</linearGradient>
<linearGradient id="paint23_linear_1_5649" x1="2.67083" y1="0" x2="2.67083" y2="6.23031" gradientUnits="userSpaceOnUse">
<stop stop-color="#4157FF"/>
<stop offset="1" stop-color="#A3ADFF"/>
</linearGradient>
<linearGradient id="paint24_linear_1_5649" x1="4.11795" y1="0" x2="4.11795" y2="9.60857" gradientUnits="userSpaceOnUse">
<stop stop-color="#4157FF"/>
<stop offset="1" stop-color="#A3ADFF"/>
</linearGradient>
<linearGradient id="paint25_linear_1_5649" x1="4.11745" y1="0" x2="4.11745" y2="9.60972" gradientUnits="userSpaceOnUse">
<stop stop-color="#4157FF"/>
<stop offset="1" stop-color="#A3ADFF"/>
</linearGradient>
</defs>
</svg>
