<svg width="24" height="26" viewBox="0 0 24 26" fill="none" xmlns="http://www.w3.org/2000/svg">
<path d="M1 2.0033L23 24.0033" stroke="#6F8BA4" stroke-width="2" stroke-linecap="round" stroke-linejoin="round"/>
<path d="M10 13.0027H9L9 13.0038L10 13.0027ZM11.2349 14.8485L11.6174 13.9245H11.6174L11.2349 14.8485ZM13.4133 14.4157L14.12 15.1232L13.4133 14.4157ZM14.8275 14.4166L14.12 15.1232H14.12L14.8275 14.4166ZM14.8267 15.8308L14.12 15.1232L14.8267 15.8308ZM10.4697 16.6963L10.8523 15.7724H10.8523L10.4697 16.6963ZM8 13.0041L7 13.0045L7 13.005L8 13.0041ZM8 13.0032H7L7 13.0036L8 13.0032ZM12.402 1.02048L12.3015 2.01542L12.402 1.02048ZM8.08 4.20425L7.1 4.00525C7.04378 4.28213 7.1073 4.56987 7.27487 4.79734C7.44243 5.02482 7.6984 5.17079 7.9795 5.19919L8.08 4.20425ZM16 5.00374H15C15 5.55586 15.4474 6.0035 15.9996 6.00374C16.5517 6.00399 16.9995 5.55674 17 5.00462L16 5.00374ZM16 5.00324H17C17 4.45096 16.5523 4.00324 16 4.00324V5.00324ZM15 5.00324V4.00324C14.4479 4.00324 14.0003 4.45065 14 5.00274C13.9997 5.55483 14.4469 6.00269 14.999 6.00324L15 5.00324ZM16 5.00425L15.999 6.00425C16.5319 6.00478 16.9716 5.5873 16.9987 5.05506C17.0258 4.52283 16.6307 4.06287 16.1005 4.00931L16 5.00425ZM11 10.0032C11 8.89867 10.1046 8.00324 9 8.00324V10.0032H11ZM11 13.0027V10.0032H9V13.0027H11ZM11.6174 13.9245C11.244 13.7699 11.0004 13.4058 11 13.0017L9 13.0038C9.00129 14.2161 9.73215 15.3086 10.8523 15.7724L11.6174 13.9245ZM12.7067 13.7082C12.4207 13.9938 11.9909 14.0792 11.6174 13.9245L10.8523 15.7724C11.9726 16.2363 13.2621 15.9801 14.12 15.1232L12.7067 13.7082ZM15.5351 13.7099C14.7545 12.9284 13.4882 12.9276 12.7067 13.7082L14.12 15.1232H14.12L15.5351 13.7099ZM15.5333 16.5383C16.3149 15.7578 16.3157 14.4914 15.5351 13.7099L14.12 15.1232L15.5333 16.5383ZM10.0872 17.6202C11.9544 18.3934 14.1034 17.9665 15.5333 16.5383L14.12 15.1232C13.2621 15.9801 11.9726 16.2363 10.8523 15.7724L10.0872 17.6202ZM7 13.005C7.00178 15.0259 8.21997 16.8471 10.0872 17.6202L10.8523 15.7724C9.73198 15.3085 9.00107 14.2158 9 13.0032L7 13.005ZM7 13.0036L7 13.0045L9 13.0037L9 13.0028L7 13.0036ZM7 10.0032V13.0032H9V10.0032H7ZM9 8.00324C7.89543 8.00324 7 8.89867 7 10.0032H9V8.00324ZM12.5025 0.0255428C9.94673 -0.232615 7.61117 1.48786 7.1 4.00525L9.06 4.40324C9.3667 2.89281 10.768 1.86052 12.3015 2.01542L12.5025 0.0255428ZM17 5.00462C17.0023 2.43613 15.058 0.283679 12.5025 0.0255428L12.3015 2.01542C13.8348 2.1703 15.0014 3.46177 15 5.00286L17 5.00462ZM17 5.00374V5.00324H15V5.00374H17ZM16 4.00324H15V6.00324H16V4.00324ZM14.999 6.00324L15.999 6.00425L16.001 4.00425L15.001 4.00324L14.999 6.00324ZM16.1005 4.00931L8.1805 3.20931L7.9795 5.19919L15.8995 5.99919L16.1005 4.00931Z" fill="#6F8BA4"/>
<path d="M6.00019 13.0106L5.9913 14.0106C6.25805 14.0129 6.51468 13.9086 6.70415 13.7209C6.89361 13.5331 7.00019 13.2774 7.00019 13.0106H6.00019ZM6.00016 13.0106L6.00905 12.0107C5.74357 12.0083 5.48805 12.1116 5.29881 12.2978C5.10956 12.484 5.00213 12.7378 5.00019 13.0033L6.00016 13.0106ZM9.71202 18.6011L9.33068 19.5256H9.33069L9.71202 18.6011ZM16.2859 17.2535L15.5716 16.5536L15.5716 16.5536L16.2859 17.2535ZM17.7 17.239L18.3998 16.5247L18.3998 16.5247L17.7 17.239ZM17.7145 18.6531L18.4288 19.3529L17.7145 18.6531ZM8.94935 20.45L9.33068 19.5256L8.94935 20.45ZM4.00019 12.9998L5.00019 13.0066V12.9998H4.00019ZM20.0002 13.0033L21.0002 13.0037V13.0033H20.0002ZM20.0002 13.0042L21.0002 13.005V13.0046L20.0002 13.0042ZM19.8745 14.4099L20.8588 14.5865L19.8745 14.4099ZM17.9059 14.0567L16.9216 13.8801V13.8801L17.9059 14.0567ZM18.0002 13.0028L19.0002 13.0038V13.0028H18.0002ZM7.00019 11.0033C7.00019 9.89873 6.10476 9.0033 5.00019 9.0033V11.0033H5.00019H7.00019ZM7.00019 13.0033V11.0033H5.00019V13.0033H7.00019ZM7.00019 13.0106V13.0033H5.00019V13.0106H7.00019ZM5.99127 14.0106H5.9913L6.00908 12.0107L6.00905 12.0107L5.99127 14.0106ZM10.0933 17.6767C8.20906 16.8994 6.98522 15.0562 7.00014 13.0179L5.00019 13.0033C4.97931 15.8568 6.69269 18.4374 9.33068 19.5256L10.0933 17.6767ZM15.5716 16.5536C14.1451 18.0096 11.9776 18.454 10.0933 17.6767L9.33069 19.5256C11.9687 20.6138 15.0031 19.9917 17.0002 17.9533L15.5716 16.5536ZM18.3998 16.5247C17.6108 15.7517 16.3446 15.7646 15.5716 16.5536L17.0002 17.9533H17.0002L18.3998 16.5247ZM18.4288 19.3529C19.2018 18.5639 19.1889 17.2977 18.3998 16.5247L17.0002 17.9533V17.9533L18.4288 19.3529ZM8.56802 21.3745C11.9597 22.7735 15.8612 21.9737 18.4288 19.3529L17.0002 17.9533C15.0031 19.9917 11.9687 20.6138 9.33068 19.5256L8.56802 21.3745ZM3.00021 12.9929C2.9751 16.6601 5.17762 19.9759 8.56802 21.3745L9.33068 19.5256C6.69371 18.4378 4.98064 15.8588 5.00017 13.0066L3.00021 12.9929ZM3.00019 11.0033V12.9998H5.00019V11.0033H3.00019ZM5.00019 9.0033C3.89562 9.0033 3.00019 9.89873 3.00019 11.0033H5.00019V9.0033ZM21.0002 11.0033C21.0002 9.89873 20.1048 9.0033 19.0002 9.0033V11.0033H21.0002ZM21.0002 13.0033V11.0033H19.0002V13.0033H21.0002ZM21.0002 13.0046L21.0002 13.0037L19.0002 13.0029V13.0038L21.0002 13.0046ZM20.8588 14.5865C20.9524 14.0645 20.9997 13.5353 21.0002 13.005L19.0002 13.0033C18.9998 13.4157 18.963 13.8273 18.8902 14.2333L20.8588 14.5865ZM18.537 16.2019C19.6242 16.3969 20.6637 15.6737 20.8588 14.5865L18.8902 14.2333L18.537 16.2019ZM16.9216 13.8801C16.7266 14.9673 17.4498 16.0068 18.537 16.2019L18.8902 14.2333L16.9216 13.8801ZM17.0002 13.0019C16.9999 13.2964 16.9736 13.5903 16.9216 13.8801L18.8902 14.2333C18.963 13.8275 18.9998 13.416 19.0002 13.0038L17.0002 13.0019ZM17.0002 11.0033V13.0028H19.0002V11.0033H17.0002ZM19.0002 9.0033C17.8956 9.0033 17.0002 9.89873 17.0002 11.0033H19.0002V9.0033Z" fill="#6F8BA4"/>
<path d="M12 20.0033V24.0033" stroke="#6F8BA4" stroke-width="2" stroke-linecap="round" stroke-linejoin="round"/>
<path d="M8 24.0033H16" stroke="#6F8BA4" stroke-width="2" stroke-linecap="round" stroke-linejoin="round"/>
</svg>
