<svg width="23" height="22" viewBox="0 0 23 22" fill="none" xmlns="http://www.w3.org/2000/svg">
<path d="M11.0172 0.350927C11.1691 -0.116818 11.8309 -0.116821 11.9828 0.350925L14.3496 7.6351C14.4176 7.84428 14.6125 7.98591 14.8325 7.98591H22.4915C22.9833 7.98591 23.1878 8.61526 22.7899 8.90434L16.5936 13.4062C16.4157 13.5355 16.3412 13.7646 16.4092 13.9738L18.776 21.258C18.9279 21.7257 18.3926 22.1147 17.9947 21.8256L11.7984 17.3238C11.6205 17.1945 11.3795 17.1945 11.2016 17.3238L5.0053 21.8256C4.60741 22.1147 4.07205 21.7257 4.22403 21.258L6.5908 13.9738C6.65877 13.7646 6.58431 13.5355 6.40637 13.4062L0.210084 8.90434C-0.187804 8.61526 0.0166821 7.98591 0.508499 7.98591H8.16753C8.38748 7.98591 8.58241 7.84428 8.65038 7.6351L11.0172 0.350927Z" fill="#FFC000"/>
</svg>
