<svg width="21" height="20" viewBox="0 0 21 20" fill="none" xmlns="http://www.w3.org/2000/svg">
<path fill-rule="evenodd" clip-rule="evenodd" d="M10.4998 14.753C10.6668 14.753 10.8337 14.7929 10.986 14.8717L14.9436 16.9402L14.1907 12.5752C14.1309 12.2329 14.2453 11.8843 14.4952 11.6417L17.6832 8.55881L13.2698 7.91619C12.9286 7.86684 12.6335 7.65368 12.4802 7.34497L10.4998 3.36111L8.51946 7.34497C8.36615 7.65368 8.07109 7.86684 7.72982 7.91619L3.3165 8.55881L6.50443 11.6417C6.75434 11.8843 6.86879 12.2329 6.80894 12.5752L6.05606 16.9402L10.0137 14.8717C10.1659 14.7929 10.3329 14.753 10.4998 14.753ZM16.3403 19.9035C16.1733 19.9035 16.0064 19.8647 15.8541 19.7849L10.4999 16.9876L5.14578 19.7849C4.79086 19.9697 4.36245 19.9371 4.04218 19.7019C3.71877 19.4667 3.55811 19.0688 3.62532 18.675L4.64596 12.7654L0.319787 8.58094C0.0310254 8.30268 -0.0718787 7.88476 0.0509762 7.5036C0.172781 7.12243 0.502494 6.84522 0.89836 6.78747L6.88465 5.91803L9.5591 0.535521C9.91402 -0.178507 11.0859 -0.178507 11.4408 0.535521L14.1152 5.91803L20.1015 6.78747C20.4974 6.84522 20.8271 7.12243 20.9489 7.5036C21.0718 7.88476 20.9688 8.30268 20.6801 8.58094L16.3539 12.7654L17.3746 18.675C17.4418 19.0688 17.2811 19.4667 16.9577 19.7019C16.776 19.8363 16.5587 19.9035 16.3403 19.9035Z" fill="#F7C480"/>
</svg>
