<svg width="20" height="20" viewBox="0 0 20 20" fill="none" xmlns="http://www.w3.org/2000/svg">
<path d="M2.83569 4.58948C2.19281 4.58948 1.66608 5.11621 1.66608 5.75909V12.7767C1.66608 13.4196 2.19281 13.9464 2.83569 13.9464H3.12809V14.2388C3.12809 14.8816 3.65482 15.4084 4.2977 15.4084H17.1634C17.8063 15.4084 18.333 14.8816 18.333 14.2388V7.2211C18.333 6.57822 17.8063 6.05149 17.1634 6.05149H16.871V5.75909C16.871 5.11621 16.3443 4.58948 15.7014 4.58948H2.83569ZM2.83569 5.17429H15.7014C16.0305 5.17429 16.2862 5.43014 16.2862 5.75909V6.3439H2.25089V5.75909C2.25089 5.43014 2.50661 5.17429 2.83569 5.17429ZM16.871 6.6363H17.1634C17.4925 6.6363 17.7482 6.89215 17.7482 7.2211V14.2388C17.7482 14.5678 17.4925 14.8236 17.1634 14.8236H4.2977C3.96862 14.8236 3.7129 14.5678 3.7129 14.2388V13.9464H15.7014C16.3443 13.9464 16.871 13.4196 16.871 12.7767V6.6363ZM2.25089 6.9287H16.2862V7.51351H2.25089V6.9287ZM2.25089 8.09831H16.2862V12.7767C16.2862 13.1058 16.0305 13.3615 15.7014 13.3615H2.83569C2.50661 13.3615 2.25089 13.1058 2.25089 12.7767V8.09831ZM3.09832 9.85272C2.93685 9.86095 2.81257 9.99853 2.8208 10.16C2.82902 10.3215 2.96661 10.4458 3.12808 10.4375H6.3445C6.42283 10.4386 6.49828 10.4083 6.55401 10.3533C6.60975 10.2984 6.64108 10.2234 6.64108 10.1451C6.64108 10.0668 6.60975 9.99188 6.55401 9.93692C6.49827 9.88196 6.42282 9.85168 6.3445 9.85272H3.12808C3.11816 9.8522 3.10824 9.8522 3.09832 9.85272H3.09832ZM3.10302 11.0223C2.94154 11.0306 2.81727 11.1681 2.8255 11.3296C2.83372 11.4911 2.97131 11.6154 3.13278 11.6071H5.21836C5.29668 11.6082 5.37213 11.5779 5.42787 11.5229C5.48361 11.468 5.51494 11.3931 5.51494 11.3147C5.51494 11.2364 5.48361 11.1615 5.42787 11.1065C5.37213 11.0516 5.29668 11.0213 5.21836 11.0223H3.13278C3.12286 11.0218 3.11294 11.0218 3.10302 11.0223H3.10302ZM6.31486 11.0223C6.15339 11.0306 6.02912 11.1681 6.03734 11.3296C6.04557 11.4911 6.18315 11.6154 6.34462 11.6071H6.64159C6.71978 11.6082 6.79524 11.5779 6.85097 11.5229C6.90671 11.468 6.93817 11.3931 6.93817 11.3147C6.93817 11.2364 6.90671 11.1615 6.85097 11.1065C6.79523 11.0516 6.71978 11.0213 6.64159 11.0223H6.34449C6.33457 11.0218 6.32465 11.0218 6.31473 11.0223H6.31486Z" fill="#151921"/>
</svg>
