<svg width="26" height="24" viewBox="0 0 26 24" fill="none" xmlns="http://www.w3.org/2000/svg">
<path fill-rule="evenodd" clip-rule="evenodd" d="M24.9736 9.78445L13.9314 0.41668C13.276 -0.138893 12.315 -0.138893 11.6597 0.41668L0.617402 9.78445C0.0690509 10.2517 -0.13842 11.0063 0.0940334 11.6882C0.326487 12.3701 0.951729 12.8409 1.67128 12.8758V22.2436C1.67128 23.2137 2.45767 24.0001 3.42773 24.0001H22.1633C23.1333 24.0001 23.9197 23.2137 23.9197 22.2436V12.8817C24.6393 12.8467 25.2645 12.3759 25.497 11.6941C25.7294 11.0122 25.522 10.2575 24.9736 9.79031V9.78445ZM12.2098 22.2495H11.0389V16.9801H14.5518V22.2495H12.2098ZM22.163 11.1252V22.2494H16.3081V16.98C16.3081 16.01 15.5217 15.2236 14.5516 15.2236H11.0387C10.0687 15.2236 9.28226 16.01 9.28226 16.98V22.2494H3.42741V11.1252H1.75292L12.7952 1.75741L23.8374 11.1252H22.163Z" fill="#989BA5"/>
</svg>
