<svg width="60" height="60" viewBox="0 0 60 60" fill="none" xmlns="http://www.w3.org/2000/svg">
<path fill-rule="evenodd" clip-rule="evenodd" d="M30 59.9999C46.5685 59.9999 59.9999 46.5685 59.9999 30C59.9999 13.4314 46.5685 0 30 0C13.4314 0 0 13.4314 0 30C0 46.5685 13.4314 59.9999 30 59.9999Z" fill="#D9E4FF"/>
<path fill-rule="evenodd" clip-rule="evenodd" d="M40.5684 40.4947L35.1622 35.1177C38.9502 31.3062 39.0656 25.1879 35.4241 21.2363C31.7825 17.2846 25.6751 16.9009 21.5675 20.3655C17.4599 23.8302 16.8085 29.9149 20.0896 34.1706C23.3707 38.4263 29.4209 39.344 33.8165 36.2528L39.328 41.7643C39.6738 42.0866 40.2127 42.0771 40.5469 41.7428C40.8811 41.4086 40.8906 40.8698 40.5684 40.5239V40.4947ZM19.9086 28.0967C19.9086 23.5728 23.5759 19.9054 28.0998 19.9054C32.6237 19.9054 36.2911 23.5728 36.2911 28.0967C36.2911 32.6206 32.6237 36.2879 28.0998 36.2879C23.5759 36.2879 19.9086 32.6206 19.9086 28.0967Z" fill="#504DE5"/>
</svg>
