<svg width="15" height="15" viewBox="0 0 15 15" fill="none" xmlns="http://www.w3.org/2000/svg">
<path fill-rule="evenodd" clip-rule="evenodd" d="M14.4217 10.9817V13.0892C14.4233 13.4849 14.2586 13.8628 13.9681 14.1303C13.6777 14.3977 13.2883 14.5299 12.8957 14.4943C10.7417 14.2594 8.67259 13.5207 6.85469 12.3376C5.16337 11.2589 3.72942 9.81984 2.65469 8.12242C1.47167 6.28969 0.735457 4.20305 0.505687 2.03157C0.470318 1.63877 0.601077 1.24913 0.866023 0.957847C1.13097 0.666559 1.5057 0.50044 1.89869 0.500069H3.99869C4.70139 0.493128 5.30034 1.01008 5.39869 1.70841C5.48732 2.38287 5.6517 3.04511 5.88869 3.68249C6.081 4.19595 5.958 4.77477 5.57369 5.16481L4.68469 6.05701C5.68118 7.81581 7.1322 9.27206 8.88469 10.2721L9.77369 9.37994C10.1623 8.99424 10.7391 8.8708 11.2507 9.0638C11.8858 9.30164 12.5456 9.46661 13.2177 9.55557C13.9216 9.65523 14.4393 10.2685 14.4217 10.9817Z" stroke="#504DE5" stroke-linecap="round" stroke-linejoin="round"/>
</svg>
