<svg width="373" height="194" viewBox="0 0 373 194" fill="none" xmlns="http://www.w3.org/2000/svg">
<g clip-path="url(#clip0_1_4928)" filter="url(#filter0_d_1_4928)">
<path d="M373 194H0C4.08714 184.305 11.6349 176.079 22.2749 173.64C37.8394 170.075 54.3109 179.877 69.8408 176.191C78.664 174.099 85.6101 168.004 92.9092 162.942C120.446 143.844 158.181 138.199 190.765 148.308C207.797 153.589 223.317 162.825 240.764 166.751C263.326 171.831 286.919 167.619 310.121 166.924C332.717 166.249 365.093 174.814 373 194Z" fill="#F3F5FD"/>
<path d="M302.148 3.95093H78.2578V154.78H302.148V3.95093Z" fill="#DEE8F5"/>
<path d="M255.09 43.7549H125.316V119.508H255.09V43.7549Z" fill="white"/>
<path d="M125.316 43.7549L190.203 79.3655L255.09 43.7549H125.316Z" fill="#0CBC8B"/>
<path d="M302.148 3.95093H78.2578V16.3754H302.148V3.95093Z" fill="#C1D8ED"/>
<path d="M294.65 13.2802C296.5 13.2802 298.001 11.8846 298.001 10.1629C298.001 8.44131 296.5 7.04565 294.65 7.04565C292.799 7.04565 291.299 8.44131 291.299 10.1629C291.299 11.8846 292.799 13.2802 294.65 13.2802Z" fill="white"/>
<path d="M238.698 131.605C252.105 131.605 262.973 121.495 262.973 109.023C262.973 96.5514 252.105 86.4412 238.698 86.4412C225.291 86.4412 214.423 96.5514 214.423 109.023C214.423 121.495 225.291 131.605 238.698 131.605Z" fill="#0CBC8B"/>
<path d="M234.535 121.185C234.075 121.185 233.633 121.021 233.298 120.728L224.077 112.634C223.729 112.329 223.526 111.908 223.512 111.463C223.499 111.018 223.675 110.587 224.003 110.263C224.331 109.94 224.784 109.751 225.262 109.738C225.74 109.725 226.204 109.889 226.552 110.195L234.436 117.115L250.746 100.395C251.068 100.066 251.516 99.8688 251.994 99.8472C252.471 99.8256 252.938 99.9814 253.292 100.28C253.646 100.579 253.858 100.996 253.882 101.441C253.905 101.885 253.737 102.319 253.416 102.649L235.87 120.635C235.709 120.8 235.514 120.934 235.297 121.028C235.08 121.122 234.845 121.175 234.605 121.184C234.582 121.184 234.559 121.185 234.535 121.185Z" fill="white"/>
<path d="M39.078 64.4038C39.078 64.4038 36.3791 60.4153 36.4894 59.3352C36.5997 58.2551 39.9734 57.1626 39.9734 57.1626C39.9734 57.1626 39.4853 56.2072 39.0502 55.159C38.5484 53.9494 38.117 52.6154 38.5877 52.4827C39.0416 52.3542 39.7305 53.4524 40.3613 54.7294C41.172 56.3685 41.8876 58.3001 41.8876 58.3001C41.8876 58.3001 41.9622 56.3923 42.7207 56.5137C43.0325 56.5637 43.1641 56.9084 43.1651 58.2759C43.1651 59.8342 43.4272 62.2641 43.4272 62.2641L39.078 64.4038Z" fill="#FFCEA9"/>
<path d="M47.6467 82.2844C46.8649 82.2845 46.1007 82.0675 45.4521 81.6613C44.8035 81.2551 44.3 80.6781 44.0059 80.0042L36.9404 63.8189L44.2222 61.0691L46.3613 65.9697L48.0404 58.1631L55.7479 59.598L51.5021 79.3459C51.3363 80.1168 50.9078 80.8174 50.2801 81.3438C49.6525 81.8702 48.8591 82.1943 48.0177 82.268C47.8934 82.2792 47.7698 82.2847 47.6467 82.2844Z" fill="#0E82FD"/>
<path d="M34.8922 69.1623L39.2619 68.5138C39.4337 68.4883 39.5977 68.4293 39.7432 68.3408C39.8887 68.2523 40.0125 68.1361 40.1065 68C40.2005 67.8639 40.2624 67.7109 40.2884 67.5509C40.3144 67.391 40.3038 67.2277 40.2572 67.0718L37.5078 57.8927C37.4265 57.6208 37.2404 57.3862 36.985 57.2338C36.7296 57.0814 36.4228 57.0218 36.1232 57.0664L31.7535 57.715C31.5817 57.7405 31.4178 57.7994 31.2722 57.888C31.1267 57.9765 31.0029 58.0926 30.9089 58.2287C30.815 58.3649 30.753 58.5179 30.727 58.6779C30.701 58.8378 30.7116 59.0011 30.7582 59.1569L33.5076 68.3361C33.589 68.608 33.7751 68.8425 34.0305 68.9949C34.2858 69.1472 34.5926 69.2069 34.8922 69.1623Z" fill="#C1D8ED"/>
<path d="M74.4842 151.692C67.9313 150.152 67.2864 149.922 67.0745 149.847L69.7824 143.271C69.7611 143.264 69.7334 143.254 69.6995 143.244C70.2323 143.407 73.5603 144.212 76.3381 144.865L74.4842 151.692Z" fill="#FFCEA9"/>
<path d="M74.1896 160.89C74.1239 161.069 74.0192 161.234 73.882 161.374C73.7448 161.514 73.5781 161.626 73.3922 161.703C73.2064 161.781 73.0054 161.821 72.8018 161.823C72.5982 161.825 72.3965 161.788 72.2091 161.714C71.9494 161.611 71.7266 161.442 71.5669 161.225C71.4073 161.009 71.3174 160.754 71.3079 160.492L71.3129 151.848C71.3137 151.681 71.3533 151.515 71.429 151.364C71.5047 151.212 71.6148 151.077 71.7516 150.969C72.9339 150.149 73.8022 148.999 74.2288 147.686C74.5167 146.65 74.4857 145.559 74.1394 144.538C74.1018 144.446 74.0931 144.346 74.1143 144.25C74.1355 144.153 74.1857 144.065 74.2591 143.994C74.3325 143.923 74.4261 143.873 74.5288 143.85C74.6316 143.827 74.7394 143.831 74.8395 143.863L78.9245 145.137C79.0449 145.175 79.1562 145.234 79.2519 145.312C79.3476 145.389 79.4259 145.484 79.4823 145.59C79.5386 145.696 79.572 145.811 79.5804 145.929C79.5888 146.047 79.572 146.165 79.5312 146.277L74.1896 160.89Z" fill="#C1D8ED"/>
<path d="M56.5462 191.071C56.5462 191.071 56.521 183.779 56.521 183.133H64.0911C64.0911 183.777 64.1164 191.049 64.1164 191.049L56.5462 191.071Z" fill="#FFCEA9"/>
<path d="M76.3814 90.094C71.5242 85.5756 48.957 91.67 48.957 91.67L48.9364 91.8011L48.4743 91.5594C42.7344 102.291 34.6062 118.353 28.9827 129.292C28.5531 130.044 28.2942 130.871 28.2221 131.72C28.1501 132.569 28.2664 133.423 28.5639 134.228C28.8613 135.034 29.3336 135.774 29.9513 136.403C30.5691 137.031 31.3191 137.535 32.1549 137.883L56.7218 148.051C55.4601 160.941 54.0117 173.82 52.8059 186.69L66.041 188.226C68.4461 172.873 70.9194 157.537 73.1277 142.164L73.4881 141.41L73.2506 141.312C74.6049 131.841 76.1629 122.381 76.9253 112.842C77.5731 104.729 78.9945 92.5248 76.3814 90.094ZM44.4553 129.395C49.1917 122.051 54.7651 113.397 59.5872 106.052C59.34 115.697 58.7253 125.335 57.9179 134.967L44.4553 129.395Z" fill="#262626"/>
<path d="M41.9289 66.7567L39.3519 70.0094C39.3519 70.0094 32.4248 68.7177 31.7753 63.7538C31.7003 63.182 31.7652 61.6009 32.5261 61.8132C34.5088 62.3658 36.9759 65.1957 38.7062 65.5723C38.3115 64.9147 37.8299 63.9858 38.1403 63.8161C38.9575 63.3695 41.1543 66.0646 41.9289 66.7567Z" fill="#FFCEA9"/>
<path d="M67.9583 55.2119C67.9583 55.2119 65.0593 54.0537 65.0593 46.969L59.2321 46.4167C59.2321 46.4167 60.4332 52.6771 57.7058 54.9007L67.9583 55.2119Z" fill="#FFCEA9"/>
<g opacity="0.15">
<path d="M58.7656 53.4931L63.2356 49.7373L59.4866 49.9868C59.483 51.1871 59.2385 52.3763 58.7656 53.4931Z" fill="black"/>
</g>
<path d="M68.0755 43.9919C67.8664 46.1572 66.7922 48.2745 64.8283 49.1189C62.6932 50.102 60.332 50.5841 57.9506 50.5233C51.6249 50.5233 51.6963 37.1374 54.4518 34.3282C57.2073 31.5191 66.1072 32.4862 67.5528 36.7229C68.3004 38.9143 68.2752 41.9306 68.0755 43.9919Z" fill="#FFCEA9"/>
<path d="M58.8993 43.0345C59.1878 43.0345 59.4216 42.817 59.4216 42.5486C59.4216 42.2803 59.1878 42.0627 58.8993 42.0627C58.6108 42.0627 58.377 42.2803 58.377 42.5486C58.377 42.817 58.6108 43.0345 58.8993 43.0345Z" fill="#0F1011"/>
<path d="M54.7645 43.0345C55.053 43.0345 55.2869 42.817 55.2869 42.5486C55.2869 42.2803 55.053 42.0627 54.7645 42.0627C54.476 42.0627 54.2422 42.2803 54.2422 42.5486C54.2422 42.817 54.476 43.0345 54.7645 43.0345Z" fill="#0F1011"/>
<path d="M53.7513 41.5861C53.6875 41.5872 53.6257 41.5651 53.5792 41.5245C53.5326 41.4839 53.5049 41.428 53.502 41.3687C53.499 41.3094 53.521 41.2513 53.5634 41.2069C53.6057 41.1625 53.6649 41.1351 53.7286 41.1307L55.1063 41.0093C55.171 41.0044 55.2351 41.0231 55.285 41.0616C55.335 41.1001 55.3667 41.1552 55.3735 41.2152C55.3765 41.2451 55.3733 41.2752 55.3638 41.3039C55.3543 41.3326 55.3389 41.3593 55.3183 41.3824C55.2977 41.4055 55.2725 41.4246 55.244 41.4386C55.2154 41.4526 55.1842 41.4613 55.1521 41.464L53.7747 41.5851L53.7513 41.5861Z" fill="#0F1011"/>
<path d="M59.9256 41.5861C59.9135 41.5861 59.9015 41.5852 59.8895 41.5834L58.5031 41.3822C58.4711 41.3778 58.4404 41.3675 58.4126 41.352C58.3849 41.3365 58.3607 41.316 58.3416 41.2918C58.3224 41.2676 58.3085 41.24 58.3008 41.2108C58.2931 41.1816 58.2916 41.1512 58.2966 41.1215C58.3015 41.0917 58.3127 41.0632 58.3296 41.0375C58.3464 41.0118 58.3686 40.9894 58.3947 40.9717C58.4209 40.954 58.4506 40.9413 58.482 40.9343C58.5135 40.9272 58.5462 40.9261 58.5781 40.9309L59.9649 41.1321C60.0254 41.1413 60.0801 41.1713 60.1181 41.2161C60.156 41.2609 60.1746 41.3173 60.1701 41.3743C60.1656 41.4312 60.1383 41.4845 60.0936 41.5236C60.049 41.5628 59.9902 41.5849 59.9288 41.5858L59.9256 41.5861Z" fill="#0F1011"/>
<path d="M58.9946 46.3811C58.9946 46.3811 57.0898 46.7164 55.7041 46.3811C55.7041 46.3811 55.8184 47.5575 57.3493 47.5575C58.8803 47.5575 58.9946 46.3811 58.9946 46.3811Z" fill="white"/>
<path d="M63.3599 38.7825C63.6707 48.5656 65.1984 49.4612 65.1984 49.4612C65.1984 49.4612 70.173 46.135 70.3399 40.2331C70.4971 34.7001 65.8674 31.7938 62.878 31.4068C51.5195 29.9373 51.1208 39.478 51.1208 39.478C56.8212 40.3871 64.5856 38.8851 64.5856 38.8851" fill="#0F1011"/>
<path d="M61.7119 43.5265C61.7081 43.7992 61.7626 44.0699 61.8722 44.3228C61.9818 44.5758 62.1443 44.806 62.3503 45.0001C62.5563 45.1941 62.8017 45.3482 63.0722 45.4534C63.3427 45.5586 63.6329 45.6127 63.9261 45.6127C64.2193 45.6127 64.5096 45.5586 64.7801 45.4534C65.0506 45.3482 65.2959 45.1941 65.5019 45.0001C65.7079 44.806 65.8704 44.5758 65.98 44.3228C66.0896 44.0699 66.1441 43.7992 66.1404 43.5265C66.1453 43.2547 66.0915 42.9848 65.982 42.7328C65.8725 42.4809 65.7096 42.252 65.503 42.0598C65.2964 41.8676 65.0503 41.7161 64.7794 41.6142C64.5086 41.5123 64.2184 41.4622 63.9263 41.4668C62.3492 41.5393 61.7119 42.3894 61.7119 43.5265Z" fill="#FFCEA9"/>
<path d="M72.3995 40.2333C75.1879 40.2333 77.4484 38.1305 77.4484 35.5366C77.4484 32.9426 75.1879 30.8398 72.3995 30.8398C69.6111 30.8398 67.3506 32.9426 67.3506 35.5366C67.3506 38.1305 69.6111 40.2333 72.3995 40.2333Z" fill="#0F1011"/>
<path d="M76.767 56.5409C75.1196 55.0085 72.2754 54.0192 68.8076 54.0159C68.548 55.8971 56.27 55.9038 56.1763 54.0595C55.7077 54.0662 55.3436 54.0729 55.1165 54.0829C46.7832 54.4183 46.8077 60.6649 47.6275 67.5698L40.7704 64.7567L37.5981 71.4466L48.511 75.924C48.5182 76.1252 48.5233 76.3264 48.5262 76.5276C48.6667 87.4126 45.5053 89.4649 47.063 92.7914C48.573 96.0207 78.2515 97.362 78.648 91.6814C78.9004 88.0665 75.4758 84.911 75.4758 77.8656C75.4758 70.8202 82.4446 61.8225 76.767 56.5409Z" fill="#0E82FD"/>
<path d="M56.1763 54.0595C56.27 55.9038 57.3478 58.6167 60.6751 58.8212C65.109 59.0928 68.548 55.8971 68.8076 54.0159H68.7967C64.4313 54.0159 58.7224 54.0226 56.1763 54.0595Z" fill="#FFCEA9"/>
<g opacity="0.15">
<path d="M56.8119 45.4116C56.7988 45.4116 56.7857 45.4102 56.773 45.4076L55.4882 45.145C55.4633 45.1399 55.4398 45.1299 55.4193 45.1157C55.3988 45.1015 55.3818 45.0835 55.3694 45.0627C55.357 45.0419 55.3494 45.0189 55.3473 44.9953C55.3452 44.9716 55.3485 44.9478 55.357 44.9254L56.0304 43.1558C56.0474 43.1153 56.0808 43.0825 56.1233 43.0645C56.1659 43.0464 56.2143 43.0444 56.2584 43.059C56.3025 43.0735 56.3388 43.1034 56.3596 43.1424C56.3804 43.1814 56.3841 43.2263 56.3699 43.2678L55.7647 44.8583L56.8505 45.0803C56.8937 45.0893 56.9319 45.1128 56.9577 45.1463C56.9836 45.1798 56.9952 45.221 56.9904 45.262C56.9856 45.303 56.9648 45.3409 56.9319 45.3685C56.8989 45.3961 56.8562 45.4114 56.8119 45.4116Z" fill="black"/>
</g>
<path d="M47.3525 193.937C47.1489 193.936 46.9477 193.896 46.7615 193.82C46.5752 193.744 46.4079 193.632 46.27 193.493C46.1321 193.354 46.0266 193.189 45.96 193.01C45.8935 192.831 45.8673 192.642 45.8832 192.453C45.9051 192.191 46.0069 191.941 46.1768 191.731C46.3466 191.521 46.5773 191.361 46.8417 191.269L55.6526 188.524C55.8233 188.471 56.0043 188.454 56.183 188.472C56.3618 188.491 56.5341 188.545 56.6883 188.631C57.8995 189.413 59.3484 189.813 60.8219 189.771C61.9698 189.695 63.0716 189.321 64.0017 188.691C64.0835 188.628 64.1826 188.589 64.2875 188.577C64.3924 188.565 64.4987 188.581 64.5942 188.623C64.6897 188.666 64.7703 188.732 64.8266 188.815C64.883 188.898 64.9129 188.995 64.9126 189.093V193.101C64.9126 193.219 64.8875 193.336 64.8388 193.445C64.79 193.555 64.7186 193.654 64.6285 193.737C64.5384 193.821 64.4315 193.887 64.314 193.932C64.1964 193.977 64.0704 193.999 63.9433 193.999L47.3525 193.937Z" fill="#C1D8ED"/>
<path d="M336.624 191.871C343.764 189.812 350.691 187.123 357.003 179.595C358.298 178.052 359.515 176.076 358.805 174.229C358.271 172.84 356.725 171.949 355.155 171.722C354.571 171.643 353.978 171.628 353.389 171.677C353.386 171.677 353.383 171.679 353.382 171.677C352.477 171.764 351.583 171.927 350.71 172.165L350.461 172.232C346.295 173.333 342.326 175 338.684 177.18C338.354 177.375 337.962 177.461 337.573 177.424C337.184 177.386 336.82 177.227 336.54 176.973C336.26 176.718 336.081 176.383 336.032 176.022C335.982 175.661 336.066 175.295 336.269 174.983C336.64 174.418 337.073 173.89 337.559 173.407C338.277 172.709 339.063 172.075 339.907 171.513C341.03 170.751 342.227 170.071 343.399 169.376C347.756 166.794 351.884 163.893 355.743 160.699C358.497 158.416 361.19 155.884 362.499 152.675C363.1 151.2 363.374 149.498 362.657 148.069C361.473 145.721 358.12 145.063 355.377 145.55C350.572 146.406 346.734 149.683 343.329 152.949C340.507 155.663 337.343 158.668 333.288 158.834C332.596 158.895 331.901 158.765 331.288 158.461C330.131 157.809 329.834 156.299 330.246 155.1C330.659 153.901 331.613 152.943 332.534 152.022C337.887 146.68 343.155 141.122 346.632 134.575C350.108 128.029 351.648 120.3 349.232 113.349C348.524 111.316 347.46 109.339 345.8 107.863C344.139 106.387 341.811 105.461 339.533 105.744C336.428 106.124 334.089 108.561 332.516 111.078C327.109 119.715 327.439 130.296 325.916 140.188C325.49 142.958 324.871 145.798 323.097 148.078C322.934 148.297 322.722 148.481 322.475 148.618C321.016 149.404 319.707 147.819 319.159 146.474C316.996 141.152 316.455 135.067 312.583 130.662C311.105 128.986 309.014 127.585 306.683 127.598C303.837 127.616 301.4 129.828 300.57 132.36C299.739 134.893 300.236 137.644 301.126 140.158C302.778 144.821 305.74 149.011 309.227 152.693C311.065 154.638 313.146 156.601 313.697 159.138C313.866 160 313.795 160.888 313.491 161.718C313.188 162.548 312.661 163.292 311.961 163.879C311.634 164.143 311.253 164.344 310.841 164.47C310.429 164.595 309.994 164.642 309.562 164.608C308.628 164.528 307.783 164.085 306.967 163.655C306.625 163.474 306.282 163.29 305.937 163.11C304.576 162.389 303.216 161.668 301.856 160.946C298.395 159.11 294.22 157.235 290.617 158.815C288.777 159.624 287.574 161.212 287.008 163.036C286.501 164.691 286.501 166.445 287.008 168.099C288.081 171.541 294.845 181.118 297.635 183.588C300.896 186.47 312.195 198.914 336.624 191.871Z" fill="#8DDBE0"/>
</g>
<defs>
<filter id="filter0_d_1_4928" x="-4" y="0" width="381" height="202" filterUnits="userSpaceOnUse" color-interpolation-filters="sRGB">
<feFlood flood-opacity="0" result="BackgroundImageFix"/>
<feColorMatrix in="SourceAlpha" type="matrix" values="0 0 0 0 0 0 0 0 0 0 0 0 0 0 0 0 0 0 127 0" result="hardAlpha"/>
<feOffset dy="4"/>
<feGaussianBlur stdDeviation="2"/>
<feComposite in2="hardAlpha" operator="out"/>
<feColorMatrix type="matrix" values="0 0 0 0 0 0 0 0 0 0 0 0 0 0 0 0 0 0 0.25 0"/>
<feBlend mode="normal" in2="BackgroundImageFix" result="effect1_dropShadow_1_4928"/>
<feBlend mode="normal" in="SourceGraphic" in2="effect1_dropShadow_1_4928" result="shape"/>
</filter>
<clipPath id="clip0_1_4928">
<rect width="373" height="194" fill="white"/>
</clipPath>
</defs>
</svg>
