<svg width="21" height="34" viewBox="0 0 21 34" fill="none" xmlns="http://www.w3.org/2000/svg">
<path opacity="0.4" d="M10.1378 33.9995C15.7368 33.9995 20.2756 31.5825 20.2756 28.601C20.2756 25.6194 15.7368 23.2024 10.1378 23.2024C4.53885 23.2024 0 25.6194 0 28.601C0 31.5825 4.53885 33.9995 10.1378 33.9995Z" fill="#D6D8E5"/>
<path d="M20.2754 8.95937H1.68943C1.68943 8.95937 1.75292 24.0879 1.70506 26.9585C1.6927 27.0876 1.68911 27.2173 1.69432 27.3468C1.69432 27.374 1.69432 27.3946 1.68943 27.4077H1.69725C1.7705 28.67 2.67392 29.9191 4.41141 30.8823C8.03973 32.8938 13.9271 32.8938 17.5505 30.887C19.288 29.9238 20.1875 28.6747 20.2647 27.4124H20.2754V8.95937Z" fill="#37B9C5"/>
<path d="M10.9824 14.0135C16.1148 14.0135 20.2754 11.6993 20.2754 8.8446C20.2754 5.98992 16.1148 3.67574 10.9824 3.67574C5.85005 3.67574 1.68943 5.98992 1.68943 8.8446C1.68943 11.6993 5.85005 14.0135 10.9824 14.0135Z" fill="#8C50FF"/>
<path d="M20.7598 9.70047C20.6619 9.94558 20.5377 10.1804 20.3893 10.4013C20.0928 10.8379 19.7294 11.2297 19.3112 11.5637C19.1877 11.6675 19.0573 11.7674 18.9191 11.8656C18.6441 12.0619 18.3567 12.242 18.0586 12.4047C17.9939 12.4402 17.9302 12.4748 17.8625 12.5085C17.7302 12.5785 17.593 12.6468 17.4529 12.7112C17.1186 12.8673 16.7668 13.0112 16.4071 13.1392C16.2728 13.1878 16.1375 13.2326 15.9993 13.2775C15.6533 13.3887 15.2976 13.4859 14.9329 13.5718C14.8104 13.6017 14.6869 13.6298 14.5625 13.655C14.2057 13.731 13.8444 13.7933 13.4784 13.8419C13.354 13.8597 13.2305 13.8765 13.106 13.8905C12.7473 13.9322 12.3879 13.9634 12.0279 13.9839C11.9044 13.9905 11.7809 13.997 11.6554 13.9998C11.2947 14.0148 10.9331 14.0166 10.5773 14.0092C10.4528 14.0092 10.3293 14.0026 10.2048 13.997C9.84218 13.9811 9.48051 13.9559 9.1208 13.9176C8.99633 13.9045 8.87185 13.8914 8.74836 13.8746C8.38375 13.8298 8.02208 13.7718 7.66532 13.7036C7.54084 13.6802 7.41637 13.6541 7.29385 13.6279C6.92467 13.5476 6.56365 13.4541 6.21081 13.3476C6.08633 13.3102 5.96088 13.271 5.83836 13.2308C5.46494 13.1074 5.10229 12.9691 4.75434 12.8159C4.62889 12.7617 4.50441 12.7047 4.38386 12.6458C4.21854 12.5661 4.05715 12.4829 3.89968 12.3963C3.68797 12.2795 3.489 12.1599 3.29984 12.0347C3.17046 11.9515 3.04598 11.8646 2.92739 11.7759C2.52334 11.4807 2.15922 11.1389 1.84337 10.7583C1.70741 10.5924 1.58394 10.4175 1.47386 10.235C0.321236 8.31844 1.12984 6.12344 3.89968 4.59844C7.81038 2.44924 14.1528 2.44924 18.0654 4.59844C19.1661 5.20396 19.9551 5.91413 20.4373 6.67196C20.5655 6.87244 20.6744 7.08355 20.7627 7.30271C21.0802 8.07349 21.0791 8.93039 20.7598 9.70047Z" fill="#EF990F"/>
<path d="M0.965809 8.27009C0.965809 8.22537 0.965809 5.7431 0.965809 5.7431L4.1037 7.0066L0.965809 8.27009Z" fill="#EF990F"/>
<path d="M20.9996 5.7431L20.9967 8.28865L19.2002 9.64846L18.1031 7.31403L20.9996 5.7431Z" fill="#EF990F"/>
<path d="M1.93081 7.1215V10.7971C1.842 10.6246 1.76134 10.4427 1.68943 10.2529V7.1215H1.93081Z" fill="#DD8910"/>
<path d="M3.37903 8.04043V11.7161C3.29519 11.6338 3.21452 11.5479 3.13766 11.4601V8.04043H3.37903Z" fill="#DD8910"/>
<path d="M4.82775 9.41884V12.635C4.74601 12.5857 4.66492 12.5338 4.58637 12.4802V9.41884H4.82775Z" fill="#DD8910"/>
<path d="M6.27565 9.64857V13.0945C6.11431 13.0591 5.9517 13.022 5.7929 12.984V9.65299L6.27565 9.64857Z" fill="#DD8910"/>
<path d="M7.72412 10.108V13.3242C7.56236 13.3028 7.40059 13.2789 7.24137 13.255V10.108H7.72412Z" fill="#DD8910"/>
<path d="M8.93097 10.3378V14.0134C8.8503 13.9992 8.76963 13.9849 8.6896 13.9666V10.3378H8.93097Z" fill="#DD8910"/>
<path d="M10.3792 10.3378V14.0134C10.2985 14.0134 10.2185 14.0065 10.1378 14.0005V10.3378H10.3792Z" fill="#DD8910"/>
<path d="M12.3102 10.3378V13.9965C12.0701 14.0035 11.83 14.0104 11.586 14.0134V10.3407L12.3102 10.3378Z" fill="#DD8910"/>
<path d="M13.2758 10.3378V13.7355C13.1145 13.7531 12.9544 13.7698 12.7931 13.7837V10.3378H13.2758Z" fill="#DD8910"/>
<path d="M14.9653 10.108V13.2501C14.8855 13.2768 14.805 13.3017 14.7239 13.3242V10.108H14.9653Z" fill="#DD8910"/>
<path d="M16.4136 9.41884V12.9583C16.3341 13.0061 16.254 13.0503 16.1722 13.0945V9.41884H16.4136Z" fill="#DD8910"/>
<path d="M17.8619 8.72963V12.4343C17.706 12.5036 17.5443 12.5712 17.3792 12.635V8.72963H17.8619Z" fill="#DD8910"/>
<path d="M19.3102 7.58097V11.4003C19.1581 11.5088 18.9976 11.6134 18.8274 11.7161V7.58097H19.3102Z" fill="#DD8910"/>
<path d="M20.517 6.4323V9.60209C20.4532 9.85935 20.3723 10.1058 20.2756 10.3377V6.4323H20.517Z" fill="#DD8910"/>
<path d="M10.9829 11.0269C16.5152 11.0269 21.0001 8.55845 21.0001 5.51345C21.0001 2.46846 16.5152 0 10.9829 0C5.45063 0 0.965809 2.46846 0.965809 5.51345C0.965809 8.55845 5.45063 11.0269 10.9829 11.0269Z" fill="#FCA70D"/>
<path d="M17.6546 15.4887C13.97 17.5085 7.99634 17.5085 4.31175 15.4887L4.13917 15.3945L4.10347 15.4152V22.488C4.17091 22.5275 4.24034 22.5671 4.31175 22.6057C7.99634 24.6265 13.97 24.6265 17.6546 22.6057C17.7261 22.5671 17.7935 22.5266 17.8619 22.4861V15.4133L17.8252 15.3917C17.7697 15.4256 17.7132 15.4566 17.6546 15.4887Z" fill="#ECE8F9"/>
<path d="M12.5515 18.5102C9.96836 18.706 7.23891 18.434 5.06879 17.689V18.4142C7.23891 19.1578 9.97137 19.4312 12.5515 19.2362V18.5102Z" fill="#FFC618"/>
<path d="M12.5515 20.1233C9.96836 20.374 7.23891 20.0253 5.06879 19.0674V19.9998C7.23691 20.9558 9.96836 21.3074 12.5515 21.0567V20.1233Z" fill="#FFC618"/>
<path d="M14.9654 17.9061V20.6755C15.177 20.6104 15.4424 20.528 15.6895 20.4483V17.689H15.6795C15.4542 17.7733 15.167 17.8539 14.9654 17.9061Z" fill="#FFC618"/>
<path d="M16.4136 18.3782C15.6354 18.6971 14.8267 18.9358 13.9998 19.0905V19.9863C14.8267 19.8316 15.6354 19.5929 16.4136 19.274V18.3782Z" fill="#FFC618"/>
</svg>
