<svg width="20" height="20" viewBox="0 0 20 20" fill="none" xmlns="http://www.w3.org/2000/svg">
<path d="M11.846 9.44384L11.6929 8.94774C11.7235 8.92943 11.7541 8.91097 11.7878 8.88951H11.7879C12.6904 8.26466 13.2267 7.2346 13.2209 6.13676V4.42499C13.2203 3.69351 12.9294 2.9921 12.4121 2.47479C11.8948 1.95749 11.1936 1.66661 10.4619 1.66608H9.53725C8.80563 1.66663 8.10436 1.95753 7.58705 2.47479C7.06975 2.99206 6.77887 3.69348 6.7782 4.42499V6.13676C6.77232 7.23544 7.30996 8.26589 8.21438 8.88951C8.2435 8.91111 8.27426 8.93052 8.30625 8.94774L8.15314 9.44384C7.63545 9.47186 7.1276 9.59654 6.65572 9.81129C6.64601 9.81403 6.63672 9.81813 6.62824 9.82346C5.90016 10.1592 5.2835 10.6963 4.85099 11.3713C4.41848 12.0463 4.18839 12.831 4.18772 13.6328V18.0268C4.18813 18.1958 4.32497 18.3325 4.49393 18.333H15.5053C15.6742 18.3325 15.8111 18.1958 15.8115 18.0268V13.6328C15.8103 12.5602 15.3989 11.5288 14.6616 10.75C13.9244 9.97107 12.917 9.50371 11.8461 9.44383L11.846 9.44384ZM7.39073 4.42513C7.39087 3.8559 7.61711 3.31007 8.01971 2.90748C8.42216 2.50503 8.96802 2.27879 9.53736 2.27865H10.4622H10.462C11.0314 2.27878 11.5772 2.50503 11.9797 2.90748C12.3823 3.31007 12.6085 3.85593 12.6086 4.42513V4.71303C12.0173 5.26501 11.2031 5.51124 10.405 5.37931C9.60679 5.24739 8.91511 4.75226 8.53289 4.03936C8.48012 3.93943 8.3765 3.87696 8.26345 3.8771H8.22982C8.10419 3.892 8.00003 3.98168 7.9664 4.10362C7.86852 4.45262 7.66798 4.76416 7.39076 4.99779L7.39073 4.42513ZM7.39073 6.1369V5.72966C7.77677 5.51791 8.09845 5.20581 8.32168 4.82636C8.82461 5.4519 9.54338 5.86667 10.3368 5.98901C11.1301 6.1115 11.9404 5.93269 12.6086 5.48774V6.13694C12.6086 7.0274 12.1772 7.86278 11.4512 8.37844C11.3662 8.43407 11.2783 8.4852 11.1878 8.53154C10.44 8.91635 9.55229 8.91527 8.80549 8.5284C8.72894 8.48862 8.64623 8.44269 8.55136 8.38145C7.82384 7.8654 7.39133 7.02894 7.39077 6.13694L7.39073 6.1369ZM6.76001 14.8179C6.89835 14.8172 7.02343 14.9002 7.07661 15.0279C7.12992 15.1557 7.10081 15.3029 7.00293 15.4006C6.90505 15.4985 6.75782 15.5276 6.63016 15.4745C6.50248 15.4211 6.4195 15.2961 6.42005 15.1577C6.42114 14.9704 6.57274 14.8188 6.76002 14.8179L6.76001 14.8179ZM15.1992 17.7207H10.3061V12.0284L11.4421 10.8954C11.5614 10.7752 11.561 10.5812 11.4413 10.4615C11.3215 10.3418 11.1275 10.3413 11.0074 10.4607L9.99991 11.4712L8.99243 10.4607C8.87227 10.3413 8.67829 10.3418 8.55855 10.4615C8.43882 10.5813 8.43839 10.7752 8.55773 10.8954L9.69372 12.0284V17.7207H4.80065V13.6329C4.80202 12.4123 5.42539 11.2766 6.45419 10.6197V14.2607C6.16575 14.3583 5.94115 14.5874 5.84943 14.8777C5.7577 15.1681 5.80979 15.4847 5.98969 15.7303C6.16972 15.9758 6.45597 16.121 6.76039 16.121C7.06482 16.121 7.35108 15.9758 7.53099 15.7303C7.71103 15.4847 7.76311 15.1681 7.67139 14.8777C7.57966 14.5874 7.35506 14.3583 7.06663 14.2607V10.3044C7.48493 10.1396 7.9306 10.0544 8.38018 10.0533C8.51525 10.0529 8.63431 9.96485 8.67423 9.83594L8.86411 9.22352C9.596 9.50116 10.4042 9.50116 11.1361 9.22352L11.326 9.83594C11.3659 9.96485 11.4849 10.0529 11.62 10.0533C11.9545 10.0547 12.2874 10.1021 12.609 10.1942V13.2655C12.2446 13.3367 11.9162 13.5323 11.68 13.8189C11.4437 14.1054 11.3144 14.465 11.3138 14.8363V15.807C11.3138 15.9761 11.4508 16.1132 11.62 16.1132C11.7891 16.1132 11.9262 15.9761 11.9262 15.807V14.8363C11.9262 14.4829 12.1147 14.1565 12.4207 13.9797C12.7267 13.8031 13.1038 13.8031 13.4097 13.9797C13.7158 14.1565 13.9043 14.4829 13.9043 14.8363V15.807C13.9043 15.9761 14.0414 16.1132 14.2105 16.1132C14.3796 16.1132 14.5167 15.9761 14.5167 15.807V14.8363C14.5162 14.465 14.3867 14.1054 14.1505 13.8189C13.9143 13.5323 13.5859 13.3367 13.2215 13.2655V10.4361C13.8156 10.7326 14.3154 11.1887 14.6648 11.7535C15.0142 12.3182 15.1994 12.969 15.1995 13.633L15.1992 17.7207Z" fill="#151921"/>
</svg>
