<svg width="301" height="260" viewBox="0 0 301 260" fill="none" xmlns="http://www.w3.org/2000/svg">
<path d="M294.761 174.89C294.81 205.479 284.305 235.212 264.902 259.397H38.0938C18.6909 235.212 8.18505 205.479 8.23456 174.89C8.23456 98.5159 72.3781 36.607 151.501 36.607C230.624 36.607 294.761 98.5179 294.761 174.89Z" fill="white"/>
<path opacity="0.1" d="M294.761 174.89C294.81 205.479 284.305 235.212 264.902 259.397H38.0938C18.6909 235.212 8.18505 205.479 8.23456 174.89C8.23456 98.5159 72.3781 36.607 151.501 36.607C230.624 36.607 294.761 98.5179 294.761 174.89Z" fill="#0E82FD"/>
<path d="M222.277 259.844H162.017L158.402 213.421L220.118 215.519C220.118 215.519 220.865 210.106 220.902 220.366C220.927 227.483 222.467 241.594 222.277 259.844Z" fill="#262626"/>
<path d="M183.93 210.754C183.874 211.859 183.812 212.97 183.737 214.075C182.777 229.474 180.571 244.777 177.138 259.843H116.911C117.695 236.272 118.349 217.601 118.349 217.601L158.402 213.42L160.804 213.167L183.93 210.754Z" fill="#262626"/>
<path d="M198.456 53.4436C198.456 53.4436 199.139 68.6273 202.537 74.2072C212.328 90.2704 214.845 108.15 204.434 117.227C194.023 126.304 129.044 124.974 124.638 103.458C120.928 85.3438 129.868 83.6055 132.391 68.7881C133.532 62.0836 136.565 48.0387 136.565 48.0387" fill="#0A0A0A"/>
<path d="M142.857 101.093C142.969 101.079 144.213 121.019 168.212 119.281C184.826 118.079 190.749 101.065 191.13 101.065C189.338 100.698 186.322 100.163 185.527 99.7532C182.911 98.3964 179.674 96.9848 178.83 92.081C178.344 89.2542 179.169 74.7949 178.915 71.9352L153.413 77.4294C153.769 83.4694 156.264 97.4702 147.522 99.95C146.068 100.358 144.501 100.734 142.857 101.093Z" fill="#FFCEA9"/>
<path opacity="0.52" d="M153.056 94.2267C153.455 92.9841 153.713 91.703 153.823 90.4063C154.104 87.4473 154.048 84.4676 153.657 81.5203C158.84 80.8452 163.723 78.78 167.751 75.5594C168.224 77.2475 170.829 84.6235 170.108 86.2278C168.745 89.2605 162.34 94.2267 153.056 94.2267Z" fill="#0C0C0C"/>
<path d="M155.34 87.9249C165.369 89.0915 178.468 85.5009 181.474 72.6403L184.186 61.0366C187.192 48.1765 182.631 36.2274 170.087 33.4944C157.542 30.7626 145.729 39.1464 142.723 52.008L141.523 57.1452C140.37 62.0789 137.447 85.8468 155.34 87.9249Z" fill="#FFCEA9"/>
<path d="M152.942 73.718C154.867 73.7529 156.757 74.2241 158.459 75.0936C158.528 75.1295 158.58 75.1899 158.603 75.262C158.627 75.334 158.62 75.4121 158.585 75.4795C158.55 75.5469 158.488 75.5984 158.415 75.6231C158.341 75.6477 158.26 75.6436 158.189 75.6115C154.517 73.8241 151.074 73.8393 148.233 75.6556C148.175 75.694 148.116 75.7296 148.054 75.7621C147.984 75.7909 147.904 75.7923 147.832 75.7662C147.76 75.7401 147.701 75.6883 147.668 75.6217C147.634 75.555 147.628 75.4784 147.651 75.4076C147.674 75.3369 147.725 75.2773 147.792 75.2412C147.814 75.229 147.852 75.2047 147.903 75.1717C149.395 74.2141 151.15 73.7079 152.942 73.718Z" fill="#0C0C0C"/>
<path d="M152.452 69.781H152.427C151.911 69.7052 151.401 69.6021 150.897 69.4721C150.144 69.2727 149.155 68.9319 149.252 68.2796C149.363 67.536 152.675 59.809 153.053 58.9305C153.068 58.8914 153.092 58.8557 153.122 58.8255C153.152 58.7953 153.188 58.7713 153.228 58.7547C153.268 58.7382 153.311 58.7296 153.354 58.7293C153.397 58.7291 153.44 58.7373 153.481 58.7533C153.521 58.7694 153.557 58.7931 153.587 58.8229C153.618 58.8527 153.642 58.8882 153.658 58.9271C153.674 58.966 153.682 59.0077 153.681 59.0495C153.68 59.0914 153.67 59.1327 153.652 59.1709C152.239 62.4613 149.969 67.8688 149.895 68.3694C149.989 68.5956 151.24 68.9816 152.522 69.1606C152.605 69.1727 152.679 69.215 152.731 69.2788C152.782 69.3427 152.805 69.4231 152.797 69.5034C152.788 69.5836 152.747 69.6575 152.684 69.7097C152.62 69.7619 152.538 69.7883 152.454 69.7835L152.452 69.781Z" fill="#0C0C0C"/>
<path d="M194.142 65.4474L182.896 63.0634C174.445 59.4262 172.369 45.0135 172.369 45.0135C172.369 45.0135 161.602 54.46 136.568 48.0385C136.568 48.0385 142.855 14.2388 179.78 25.3708C191.686 28.9604 199.891 40.9425 198.252 56.536C197.101 67.4605 194.142 65.4474 194.142 65.4474Z" fill="#0A0A0A"/>
<path d="M179.779 76.3878C183.591 77.2181 187.602 73.9532 188.462 70.2748C189.322 66.5964 186.706 63.8924 182.892 63.0626L180.351 65.1001L176.502 75.6777L179.779 76.3878Z" fill="#FFCEA9"/>
<path d="M151.002 52.0613C149.908 51.3259 148.629 50.8879 147.299 50.7932C146.644 50.7429 145.986 50.7879 145.345 50.9266C144.711 51.0613 144.097 51.2726 143.517 51.5556C143.437 51.5921 143.376 51.6572 143.345 51.737C143.314 51.8168 143.317 51.9051 143.352 51.9831C143.388 52.061 143.454 52.1225 143.535 52.1544C143.617 52.1864 143.709 52.1862 143.79 52.1541L143.815 52.1444C144.349 51.9128 144.912 51.7469 145.49 51.6504C146.061 51.5523 146.644 51.5381 147.219 51.6083C148.361 51.7394 149.446 52.1593 150.365 52.8256L150.395 52.8485C150.501 52.9286 150.636 52.9645 150.77 52.9485C150.904 52.9324 151.026 52.8656 151.109 52.7627C151.192 52.6599 151.229 52.5294 151.213 52.4001C151.196 52.2707 151.127 52.153 151.02 52.0729L151.002 52.0613Z" fill="#0C0C0C"/>
<path d="M160.827 54.2595C161.953 54.0332 163.12 54.0983 164.211 54.4482C164.763 54.6211 165.284 54.8733 165.758 55.1964C166.238 55.5206 166.674 55.9018 167.056 56.331L167.074 56.3493C167.133 56.4116 167.216 56.4491 167.304 56.4536C167.392 56.4582 167.478 56.4296 167.545 56.3738C167.611 56.3181 167.652 56.2396 167.66 56.1549C167.667 56.0702 167.64 55.986 167.585 55.9202C167.185 55.4265 166.722 54.9834 166.207 54.6014C165.689 54.2128 165.113 53.9018 164.498 53.6788C163.253 53.2182 161.903 53.0892 160.588 53.3055C160.521 53.3152 160.456 53.3379 160.398 53.3722C160.34 53.4064 160.29 53.4516 160.25 53.505C160.21 53.5584 160.182 53.6189 160.167 53.6829C160.152 53.747 160.151 53.8134 160.163 53.878C160.174 53.9427 160.2 54.0044 160.237 54.0595C160.274 54.1145 160.322 54.1619 160.379 54.1987C160.435 54.2355 160.498 54.261 160.565 54.2737C160.632 54.2864 160.701 54.2861 160.767 54.2727L160.788 54.2687L160.827 54.2595Z" fill="#0C0C0C"/>
<path d="M182.874 62.924L182.997 62.6252C168.835 57.1731 172.833 43.7059 172.874 43.5699L172.556 43.4776C172.514 43.6156 168.424 57.3613 182.874 62.924Z" fill="#0C0C0C"/>
<path d="M144.907 57.5298C145.781 57.5298 146.491 56.8453 146.491 56.001C146.491 55.1567 145.781 54.4723 144.907 54.4723C144.032 54.4723 143.323 55.1567 143.323 56.001C143.323 56.8453 144.032 57.5298 144.907 57.5298Z" fill="#0C0C0C"/>
<path d="M160.563 60.1306C161.437 60.1306 162.146 59.4462 162.146 58.6019C162.146 57.7575 161.437 57.0731 160.563 57.0731C159.688 57.0731 158.979 57.7575 158.979 58.6019C158.979 59.4462 159.688 60.1306 160.563 60.1306Z" fill="#0C0C0C"/>
<path opacity="0.1" d="M165.437 69.4339C165.61 68.2659 164.413 67.1344 162.764 66.9067C161.114 66.679 159.637 67.4413 159.463 68.6093C159.29 69.7774 160.487 70.9088 162.137 71.1365C163.787 71.3642 165.264 70.6019 165.437 69.4339Z" fill="#0C0C0C"/>
<path opacity="0.1" d="M144.772 66.0616C144.595 67.2282 143.118 67.989 141.468 67.7638C141.183 67.7241 140.903 67.6561 140.633 67.5609C140.589 66.1645 140.617 64.8219 140.69 63.5823C141.152 63.4819 141.629 63.4656 142.097 63.5341C143.747 63.7578 144.943 64.8909 144.772 66.0616Z" fill="#0C0C0C"/>
<path d="M27.0772 99.9227C27.298 99.5006 27.6491 99.1551 28.0821 98.9339C28.5152 98.7127 29.0086 98.6269 29.4944 98.6881C29.4901 98.6599 29.4931 98.6311 29.503 98.6042C29.5128 98.5773 29.5294 98.5531 29.5511 98.5338C29.5729 98.5144 29.5991 98.5005 29.6277 98.4932C29.6563 98.4859 29.6863 98.4854 29.7151 98.4918L28.0761 97.3577C27.5858 97.0337 27.2336 96.5495 27.0845 95.9944C26.9353 95.4392 26.9994 94.8508 27.2648 94.3377C27.544 93.8392 28.005 93.4586 28.5584 93.2696C29.1118 93.0805 29.7182 93.0966 30.26 93.3146C30.2558 93.2923 30.2716 93.271 30.2753 93.2482L29.6016 92.782C29.1409 92.4749 28.8043 92.0235 28.6487 91.5044C28.4931 90.9852 28.5281 90.4301 28.7477 89.933C28.8921 89.624 29.1058 89.3498 29.3733 89.1302C29.6408 88.9106 29.9554 88.7511 30.2945 88.663C30.6336 88.575 30.9887 88.5607 31.3343 88.6212C31.6798 88.6817 32.0071 88.8155 32.2926 89.0129L33.8464 90.0882C33.8511 90.079 33.8464 90.0689 33.8527 90.0603C33.859 90.0517 33.8758 90.0491 33.8848 90.04C33.5275 89.6528 33.3173 89.1599 33.2887 88.6421C33.26 88.1244 33.4146 87.6126 33.7271 87.1909C34.4628 86.0517 36.1538 86.2845 37.159 86.9794L46.3055 93.0782L44.6707 90.4214C44.3423 89.9102 44.2269 89.2978 44.348 88.7078C44.469 88.1177 44.8174 87.594 45.3228 87.2422C45.5905 87.0693 45.8918 86.9509 46.2084 86.8941C46.5251 86.8374 46.8504 86.8435 47.1645 86.912C47.4786 86.9806 47.7749 87.1102 48.0354 87.293C48.2959 87.4758 48.5151 87.7079 48.6796 87.9751L57.6069 102.482C58.6542 104.183 58.9727 106.212 58.4949 108.137C58.017 110.062 56.7804 111.731 55.0479 112.79C53.0386 114.018 50.6951 114.639 48.3179 114.573C45.9406 114.508 43.6379 113.758 41.7049 112.421L27.8917 102.865C27.4322 102.535 27.1017 102.065 26.9538 101.531C26.806 100.996 26.8494 100.43 27.0772 99.9227Z" fill="#FFCEA9"/>
<g opacity="0.25">
<path d="M42.8997 96.1186C42.8663 96.1634 42.816 96.1937 42.7596 96.2032C42.7033 96.2127 42.6453 96.2005 42.5981 96.1693L33.9072 90.3555C33.8826 90.3401 33.8614 90.3201 33.8449 90.2966C33.8285 90.2732 33.817 90.2468 33.8113 90.219C33.8056 90.1912 33.8058 90.1625 33.8118 90.1348C33.8178 90.107 33.8295 90.0807 33.8462 90.0574C33.863 90.0341 33.8844 90.0143 33.9092 89.9992C33.934 89.984 33.9617 89.9739 33.9907 89.9693C34.0197 89.9647 34.0493 89.9657 34.0779 89.9724C34.1064 89.9791 34.1333 89.9912 34.1568 90.0081L42.8477 95.8188C42.8953 95.8508 42.9278 95.8996 42.9381 95.9547C42.9485 96.0097 42.9358 96.0665 42.9029 96.1125L42.8997 96.1186Z" fill="#0C0C0C"/>
</g>
<g opacity="0.25">
<path d="M40.3506 99.8873C40.3171 99.9321 40.2668 99.9625 40.2104 99.972C40.1541 99.9814 40.0961 99.9693 40.0489 99.938L30.3502 93.4517C30.3025 93.4198 30.2699 93.371 30.2595 93.316C30.2491 93.2609 30.2616 93.2041 30.2945 93.158C30.3288 93.1134 30.3794 93.0831 30.436 93.0732C30.4926 93.0633 30.551 93.0746 30.5993 93.1048L40.2985 99.5896C40.3461 99.6215 40.3786 99.6704 40.3889 99.7254C40.3993 99.7805 40.3866 99.8372 40.3537 99.8833L40.3506 99.8873Z" fill="#0C0C0C"/>
</g>
<g opacity="0.25">
<path d="M37.6138 103.986C37.5805 104.031 37.5303 104.061 37.474 104.071C37.4177 104.08 37.3598 104.068 37.3127 104.037L29.5756 98.8632C29.5309 98.8301 29.5012 98.7818 29.4924 98.7281C29.4837 98.6745 29.4967 98.6196 29.5287 98.575C29.5607 98.5303 29.6093 98.4992 29.6644 98.4882C29.7195 98.4772 29.7769 98.487 29.8247 98.5157L37.5618 103.689C37.6095 103.721 37.6421 103.77 37.6525 103.825C37.6628 103.881 37.65 103.937 37.617 103.984L37.6138 103.986Z" fill="#0C0C0C"/>
</g>
<path d="M61.5429 97.2475L83.7611 146.775L114.418 106.275L140.986 129.392L95.617 186.108L95.3196 186.513C93.5036 188.914 91.0844 190.829 88.2898 192.078C85.4951 193.326 82.4172 193.868 79.3459 193.651C76.2746 193.434 73.3111 192.466 70.7346 190.837C68.1581 189.209 66.0535 186.975 64.619 184.344L32.67 112.75L61.5429 97.2475Z" fill="#0E82FD"/>
<path d="M86.3328 151.958C86.3898 151.958 86.4459 151.944 86.4957 151.917C86.5454 151.89 86.5872 151.851 86.617 151.804C86.6467 151.757 86.6635 151.703 86.6656 151.648C86.6677 151.593 86.6552 151.539 86.6291 151.49L84.059 146.629C84.0174 146.556 83.9478 146.501 83.865 146.476C83.7822 146.452 83.6927 146.459 83.6155 146.497C83.5383 146.535 83.4795 146.601 83.4515 146.68C83.4236 146.759 83.4287 146.846 83.4658 146.921L86.0359 151.783C86.0638 151.835 86.1063 151.88 86.1587 151.91C86.2111 151.941 86.2714 151.958 86.3328 151.958Z" fill="#0C0C0C"/>
<path d="M113.04 144.992C113.796 153.564 117.473 207.042 118.2 217.601H220.85C221.416 208.077 221.467 166.438 223.613 147.816C225.662 130.047 229.679 121.15 226.734 115.897C221.921 107.311 215.008 99.5676 201.756 98.4989C196.249 98.0541 186.087 99.9506 186.087 99.9506C186.087 99.9506 185.388 113.567 168.761 114.324C146.124 115.355 147.628 99.9856 147.523 99.9485C142.857 98.3016 126.615 97.4632 119.462 102.023C105.816 110.721 111.436 126.827 113.04 144.992Z" fill="#0E82FD"/>
<path d="M113.805 150.556L113.14 150.592L113.94 164.204L114.605 164.168L113.805 150.556Z" fill="#0C0C0C"/>
<path d="M300.688 105.933C300.428 105.532 300.045 105.22 299.594 105.038C299.142 104.856 298.643 104.815 298.165 104.918C298.167 104.89 298.161 104.861 298.149 104.835C298.136 104.81 298.118 104.787 298.094 104.77C298.071 104.753 298.043 104.741 298.014 104.736C297.985 104.732 297.955 104.734 297.927 104.743L299.451 103.468C299.908 103.101 300.213 102.588 300.308 102.022C300.404 101.456 300.284 100.876 299.97 100.388C299.645 99.9169 299.149 99.579 298.58 99.44C298.011 99.3011 297.409 99.3709 296.89 99.636C296.89 99.6132 296.875 99.5934 296.869 99.5711L297.495 99.0471C297.924 98.7003 298.216 98.2209 298.322 97.6901C298.427 97.1593 298.339 96.6096 298.073 96.1342C297.9 95.8394 297.661 95.5854 297.373 95.3905C297.086 95.1957 296.758 95.0648 296.412 95.0073C296.066 94.9498 295.711 94.9671 295.372 95.058C295.034 95.149 294.721 95.3112 294.456 95.5331L293.01 96.7418C293.005 96.7332 293.01 96.7225 293.002 96.7149C292.994 96.7073 292.978 96.7058 292.968 96.6977C293.287 96.2801 293.449 95.7705 293.427 95.2524C293.406 94.7344 293.203 94.2387 292.852 93.8466C292.011 92.7774 290.348 93.1598 289.415 93.9409L280.888 100.827L282.263 98.0373C282.542 97.4989 282.599 96.8782 282.422 96.3008C282.246 95.7234 281.848 95.2324 281.311 94.927C281.028 94.7785 280.716 94.6873 280.396 94.6589C280.075 94.6305 279.752 94.6654 279.445 94.7616C279.139 94.8579 278.856 95.0133 278.614 95.2185C278.372 95.4237 278.176 95.6743 278.038 95.9551L270.533 111.194C269.653 112.981 269.529 115.03 270.188 116.904C270.848 118.779 272.238 120.331 274.064 121.231C276.182 122.276 278.575 122.685 280.936 122.408C283.297 122.131 285.519 121.18 287.316 119.677L300.159 108.932C300.584 108.563 300.868 108.066 300.964 107.521C301.06 106.977 300.963 106.417 300.688 105.933Z" fill="#FFCEA9"/>
<g opacity="0.25">
<path d="M284.569 103.548C284.607 103.59 284.66 103.615 284.717 103.619C284.774 103.623 284.83 103.606 284.874 103.571L292.973 97.0123C292.995 96.9945 293.014 96.9726 293.027 96.948C293.04 96.9235 293.048 96.8966 293.051 96.869C293.053 96.8413 293.05 96.8135 293.042 96.787C293.033 96.7606 293.019 96.7361 293.001 96.7148C292.982 96.6936 292.959 96.676 292.934 96.6632C292.908 96.6504 292.881 96.6426 292.852 96.6401C292.823 96.6377 292.795 96.6407 292.767 96.6491C292.74 96.6574 292.714 96.6709 292.692 96.6887L284.593 103.247C284.548 103.283 284.52 103.335 284.515 103.39C284.51 103.446 284.529 103.501 284.566 103.544L284.569 103.548Z" fill="#0C0C0C"/>
</g>
<g opacity="0.25">
<path d="M287.467 107.075C287.505 107.116 287.558 107.142 287.615 107.146C287.672 107.15 287.728 107.132 287.772 107.097L296.81 99.7778C296.855 99.7417 296.883 99.6901 296.888 99.6343C296.893 99.5786 296.875 99.5231 296.838 99.48C296.799 99.4388 296.746 99.4133 296.689 99.4085C296.632 99.4037 296.575 99.42 296.529 99.4542L287.491 106.773C287.447 106.809 287.419 106.861 287.414 106.917C287.409 106.973 287.427 107.028 287.464 107.071L287.467 107.075Z" fill="#0C0C0C"/>
</g>
<g opacity="0.25">
<path d="M290.583 110.915C290.621 110.956 290.674 110.981 290.731 110.986C290.788 110.99 290.844 110.972 290.888 110.937L298.099 105.096C298.143 105.06 298.171 105.009 298.176 104.953C298.181 104.897 298.163 104.842 298.126 104.799C298.088 104.756 298.035 104.729 297.977 104.724C297.919 104.719 297.862 104.737 297.817 104.773L290.607 110.611C290.562 110.647 290.535 110.699 290.53 110.755C290.525 110.81 290.543 110.866 290.58 110.909L290.583 110.915Z" fill="#0C0C0C"/>
</g>
<path d="M267.01 105.294L250.119 147.105L225.456 113.68L198.893 136.798L236.934 192.869L237.232 193.275C239.048 195.675 241.467 197.59 244.262 198.839C247.056 200.088 250.134 200.629 253.206 200.412C256.277 200.195 259.241 199.227 261.817 197.599C264.394 195.971 266.498 193.736 267.933 191.106L295.221 120.154L267.01 105.294Z" fill="#0E82FD"/>
<path d="M247.548 152.288C247.491 152.288 247.435 152.274 247.386 152.247C247.336 152.22 247.294 152.181 247.264 152.134C247.235 152.087 247.218 152.034 247.216 151.979C247.213 151.924 247.226 151.869 247.252 151.82L249.822 146.959C249.863 146.884 249.932 146.828 250.016 146.803C250.099 146.777 250.19 146.784 250.268 146.823C250.346 146.861 250.405 146.928 250.433 147.008C250.46 147.089 250.454 147.176 250.415 147.252L247.845 152.113C247.817 152.165 247.775 152.21 247.722 152.241C247.67 152.272 247.61 152.288 247.548 152.288Z" fill="#0C0C0C"/>
<path d="M279.483 259.84H26.737C26.575 259.836 26.4213 259.77 26.3084 259.658C26.1955 259.546 26.1324 259.396 26.1324 259.239C26.1324 259.083 26.1955 258.933 26.3084 258.821C26.4213 258.708 26.575 258.643 26.737 258.639H279.483C279.645 258.643 279.799 258.708 279.911 258.821C280.024 258.933 280.087 259.083 280.087 259.239C280.087 259.396 280.024 259.546 279.911 259.658C279.799 259.77 279.645 259.836 279.483 259.84Z" fill="#292A2E"/>
<path d="M85.5694 66.584V5.19648C85.5694 3.81864 85.0024 2.4972 83.9933 1.52273C82.9841 0.54826 81.6154 0.000537957 80.1879 0L5.38352 0C3.95572 0 2.5864 0.547485 1.5768 1.52201C0.567191 2.49654 0 3.81829 0 5.19648L0 50.9691C0 52.3473 0.567191 53.6691 1.5768 54.6436C2.5864 55.6181 3.95572 56.1656 5.38352 56.1656H66.1666L83.1196 67.8038C83.3515 67.9632 83.6245 68.0578 83.9085 68.0773C84.1925 68.0968 84.4766 68.0405 84.7296 67.9145C84.9826 67.7885 85.1948 67.5977 85.343 67.363C85.4911 67.1283 85.5694 66.8588 85.5694 66.584Z" fill="#0CBC8B"/>
<path d="M40.4823 48.7188C42.3019 48.7188 43.7771 47.2949 43.7771 45.5385C43.7771 43.7821 42.3019 42.3582 40.4823 42.3582C38.6627 42.3582 37.1876 43.7821 37.1876 45.5385C37.1876 47.2949 38.6627 48.7188 40.4823 48.7188Z" fill="white"/>
<path d="M40.3288 38.636C39.7601 38.6359 39.2146 38.4177 38.8124 38.0294C38.4103 37.6411 38.1844 37.1146 38.1844 36.5655V28.8761C38.1844 28.4115 38.3463 27.9605 38.6441 27.5955C38.9418 27.2305 39.3581 26.9729 39.826 26.8639C39.919 26.8416 49.5137 24.4977 49.5137 18.2655C49.5137 14.3548 46.1921 11.6209 41.4366 11.6209C36.2869 11.6209 33.6395 16.5917 33.5297 16.8017C33.2724 17.2853 32.8283 17.6519 32.2933 17.8221C31.7584 17.9924 31.1755 17.9527 30.6707 17.7117C30.1658 17.4706 29.7794 17.0476 29.5949 16.5338C29.4104 16.0201 29.4427 15.457 29.6848 14.966C29.8424 14.6617 33.5912 7.48097 41.4366 7.48097C48.602 7.48097 53.8026 12.015 53.8026 18.263C53.8026 25.7927 45.973 29.2418 42.4739 30.4074V36.5655C42.4737 37.1146 42.2477 37.6412 41.8454 38.0294C41.4432 38.4177 40.8977 38.6359 40.3288 38.636Z" fill="white"/>
</svg>
