<svg width="45" height="51" viewBox="0 0 45 51" fill="none" xmlns="http://www.w3.org/2000/svg">
<path d="M41.3744 21.0809L6.60908 0.489161C6.27506 0.253018 5.89345 0.0971152 5.49262 0.0330364C5.09179 -0.0310425 4.68204 -0.00165389 4.2938 0.119024C4.14539 0.181965 4.00585 0.264955 3.87885 0.365785L0 2.64211L3.00686 6.26324V21.1303C3.07438 22.4161 3.43623 23.6676 4.06311 24.7833C4.68999 25.899 5.56426 26.8476 6.6151 27.5521L17.4398 34.5291L20.3805 41.4444L17.2834 46.8298L21.5953 44.3006L25.6906 39.421L38.7585 46.6818L39.4621 51L43.8641 48.4214L43.9844 48.3474H44.0265C44.3625 48.0693 44.6262 47.7104 44.794 47.3024C44.9619 46.8945 45.0288 46.4503 44.9887 46.0094V27.5027C44.9205 26.2163 44.5577 24.9644 43.9298 23.8487C43.3018 22.733 42.4264 21.7847 41.3744 21.0809Z" fill="#111111"/>
</svg>
