<svg width="16" height="16" viewBox="0 0 16 16" fill="none" xmlns="http://www.w3.org/2000/svg">
<path d="M14.1019 6.86124L12.2823 8.61486C12.0324 8.85528 11.8627 9.33611 11.9146 9.68023L12.1974 11.7356C12.3813 13.0508 11.5657 13.6212 10.3872 13.0084L8.38846 11.9618C8.05376 11.7874 7.50693 11.7968 7.18166 11.9901L5.43275 13.0131C4.05154 13.8192 3.22658 13.2111 3.59428 11.6554L4.10811 9.48225C4.20239 9.08626 4.02797 8.54415 3.73098 8.27545L2.07635 6.7811C0.893128 5.71101 1.22311 4.73991 2.81646 4.61735L4.83407 4.4665C5.21119 4.43822 5.66846 4.14123 5.84288 3.80653L6.88939 1.79835C7.50693 0.624553 8.5016 0.629267 9.10028 1.81249L10.0337 3.6604C10.1939 3.97153 10.5993 4.27322 10.9435 4.32508L13.4419 4.73049C14.7901 4.95676 15.0871 5.91371 14.1019 6.86124Z" fill="#FFD600"/>
</svg>
