<svg width="296" height="268" viewBox="0 0 296 268" fill="none" xmlns="http://www.w3.org/2000/svg">
<ellipse cx="138.557" cy="133.862" rx="138.557" ry="133.862" fill="#EFF7FF"/>
<path d="M65.3209 47.477C65.3209 43.4362 68.5967 40.1604 72.6376 40.1604H91.5309C94.8524 40.1604 97.545 42.853 97.545 46.1745V54.7937H72.6376C68.5967 54.7937 65.3209 51.5179 65.3209 47.477Z" fill="#F4F8FB"/>
<path d="M293.309 86.6275H106.539L126.007 189.291C126.366 191.184 128.02 192.554 129.946 192.554H270.533C274.432 192.554 277.766 189.75 278.433 185.908L295.284 88.9756C295.497 87.7495 294.554 86.6275 293.309 86.6275Z" fill="white"/>
<path d="M118.679 86.6284H294.496C295.12 86.6284 295.593 87.1929 295.483 87.8074L277.627 187.566C276.943 191.389 273.618 194.172 269.734 194.172H129.997C126.596 194.172 123.684 191.733 123.089 188.385L99.4475 55.4965M99.4475 55.4965L97.2341 43.0551C96.8087 40.6633 94.7291 38.9211 92.2999 38.9211H69.1231C66.9087 38.9211 65.1137 40.7162 65.1137 42.9305V51.4871C65.1137 53.7015 66.9087 55.4965 69.1231 55.4965H99.4475Z" stroke="#A7B4CF"/>
<line x1="124.619" y1="124.94" x2="275.944" y2="124.94" stroke="#A7B4CF" stroke-linecap="round" stroke-linejoin="round"/>
<line x1="128.386" y1="156.88" x2="270.084" y2="156.88" stroke="#A7B4CF" stroke-linecap="round" stroke-linejoin="round"/>
<line x1="0.5" y1="-0.5" x2="79.8423" y2="-0.5" transform="matrix(0.109387 0.996365 -0.99713 0.102178 152.157 99.5661)" stroke="#A7B4CF" stroke-linecap="round" stroke-linejoin="round"/>
<line x1="0.5" y1="-0.5" x2="79.8423" y2="-0.5" transform="matrix(-0.109387 0.996365 0.99713 0.102178 250.918 99.5661)" stroke="#A7B4CF" stroke-linecap="round" stroke-linejoin="round"/>
<path d="M145.881 218.833L151.38 210.863C152.129 209.779 153.362 209.131 154.68 209.131H265.983" stroke="#A7B4CF"/>
<line x1="200.784" y1="100.067" x2="200.784" y2="179.115" stroke="#A7B4CF" stroke-linecap="round" stroke-linejoin="round"/>
<path d="M145.379 236.623C145.379 243.252 139.812 248.655 132.908 248.655C126.004 248.655 120.437 243.252 120.437 236.623C120.437 229.994 126.004 224.591 132.908 224.591C139.812 224.591 145.379 229.994 145.379 236.623Z" fill="#DCE0EB" stroke="#A7B4CF"/>
<path d="M265.482 236.623C265.482 243.252 259.915 248.655 253.011 248.655C246.107 248.655 240.54 243.252 240.54 236.623C240.54 229.994 246.107 224.591 253.011 224.591C259.915 224.591 265.482 229.994 265.482 236.623Z" fill="#DCE0EB" stroke="#A7B4CF"/>
<line x1="65.1125" y1="135.451" x2="92.3146" y2="135.451" stroke="#0E82FD"/>
<line x1="74.3198" y1="179.114" x2="101.522" y2="179.114" stroke="#0E82FD"/>
<line x1="81.4332" y1="156.88" x2="97.3361" y2="156.88" stroke="#0E82FD"/>
</svg>
