<svg width="20" height="20" viewBox="0 0 20 20" fill="none" xmlns="http://www.w3.org/2000/svg">
<path d="M17.3427 5.99022L16.0497 2.732C15.998 2.57687 15.8428 2.4993 15.6877 2.4993L11.395 2.49912H4.3096C4.15447 2.49912 3.99935 2.60248 3.94758 2.73182L2.65462 5.99004C2.60285 6.11937 2.62883 6.2487 2.70639 6.35206C2.78395 6.45541 2.88749 6.53316 3.01664 6.53316H8.47295C8.67984 6.53316 8.83497 6.37803 8.86076 6.17114L8.88656 6.01601H11.1363L11.1621 6.17114C11.1879 6.37803 11.3432 6.53316 11.5499 6.53316H16.9808C17.1101 6.53316 17.2394 6.48139 17.291 6.35206C17.3688 6.2487 17.3946 6.11954 17.3428 5.99022H17.3427ZM8.11095 5.75752H3.58558L4.56828 3.27494H8.34382L8.11095 5.75752ZM11.8863 5.75752L11.6536 3.27494H15.4292L16.4119 5.75752H11.8863ZM16.9806 5.75752H3.01658C2.80969 5.75752 2.62877 5.93863 2.62877 6.14534V17.1097C2.62877 17.3166 2.80987 17.4975 3.01658 17.4975H16.9806C17.1875 17.4975 17.3684 17.3164 17.3684 17.1097L17.3686 6.14534C17.3686 5.91265 17.1875 5.75752 16.9806 5.75752ZM16.5928 16.7218H3.40455V6.5333H8.11093V13.024L9.99861 11.731L11.8863 13.024V6.5333H16.5927L16.5928 16.7218Z" fill="black"/>
</svg>
