<svg width="20" height="20" viewBox="0 0 20 20" fill="none" xmlns="http://www.w3.org/2000/svg">
<path d="M11.9668 11.8583C11.4097 12.3074 10.7157 12.5524 10.0001 12.5524C9.28451 12.5524 8.59049 12.3074 8.03342 11.8583C7.86324 11.7168 7.64384 11.6488 7.42348 11.6691C7.20313 11.6894 6.99987 11.7964 6.85842 11.9666C6.71697 12.1368 6.64892 12.3562 6.66923 12.5766C6.68955 12.7969 6.79657 13.0002 6.96675 13.1416C7.81787 13.8521 8.89139 14.2413 10.0001 14.2413C11.1088 14.2413 12.1823 13.8521 13.0334 13.1416C13.2036 13.0002 13.3106 12.7969 13.3309 12.5766C13.3513 12.3562 13.2832 12.1368 13.1418 11.9666C13.0717 11.8824 12.9858 11.8127 12.8888 11.7617C12.7919 11.7106 12.6858 11.6792 12.5767 11.6691C12.3563 11.6488 12.1369 11.7168 11.9668 11.8583ZM7.50008 9.16663C7.6649 9.16663 7.82602 9.11775 7.96306 9.02618C8.1001 8.93462 8.20691 8.80447 8.26998 8.6522C8.33306 8.49992 8.34956 8.33237 8.31741 8.17072C8.28525 8.00907 8.20588 7.86058 8.08934 7.74404C7.9728 7.62749 7.82431 7.54813 7.66266 7.51597C7.50101 7.48382 7.33345 7.50032 7.18118 7.56339C7.02891 7.62647 6.89876 7.73328 6.80719 7.87032C6.71563 8.00736 6.66675 8.16848 6.66675 8.33329C6.66675 8.55431 6.75455 8.76627 6.91083 8.92255C7.06711 9.07883 7.27907 9.16663 7.50008 9.16663ZM12.5001 7.49996C12.3353 7.49996 12.1742 7.54883 12.0371 7.6404C11.9001 7.73197 11.7933 7.86212 11.7302 8.01439C11.6671 8.16666 11.6506 8.33422 11.6828 8.49587C11.7149 8.65752 11.7943 8.806 11.9108 8.92255C12.0274 9.03909 12.1759 9.11846 12.3375 9.15061C12.4992 9.18277 12.6667 9.16627 12.819 9.10319C12.9713 9.04012 13.1014 8.93331 13.193 8.79627C13.2845 8.65923 13.3334 8.49811 13.3334 8.33329C13.3334 8.11228 13.2456 7.90032 13.0893 7.74404C12.9331 7.58776 12.7211 7.49996 12.5001 7.49996ZM10.0001 1.66663C8.35191 1.66663 6.74074 2.15537 5.37033 3.07105C3.99992 3.98672 2.93182 5.28821 2.30109 6.81093C1.67036 8.33365 1.50533 10.0092 1.82687 11.6257C2.14842 13.2422 2.94209 14.7271 4.10753 15.8925C5.27297 17.058 6.75782 17.8516 8.37433 18.1732C9.99084 18.4947 11.6664 18.3297 13.1891 17.699C14.7118 17.0682 16.0133 16.0001 16.929 14.6297C17.8447 13.2593 18.3334 11.6481 18.3334 9.99996C18.3334 8.90561 18.1179 7.82198 17.6991 6.81093C17.2803 5.79988 16.6665 4.88122 15.8926 4.1074C15.1188 3.33358 14.2002 2.71975 13.1891 2.30096C12.1781 1.88217 11.0944 1.66663 10.0001 1.66663ZM10.0001 16.6666C8.68154 16.6666 7.39261 16.2756 6.29628 15.5431C5.19996 14.8105 4.34547 13.7694 3.84089 12.5512C3.3363 11.333 3.20428 9.99256 3.46152 8.69936C3.71875 7.40615 4.35369 6.21826 5.28604 5.28591C6.21839 4.35356 7.40628 3.71863 8.69948 3.46139C9.99269 3.20416 11.3331 3.33618 12.5513 3.84076C13.7695 4.34535 14.8107 5.19983 15.5432 6.29616C16.2758 7.39249 16.6668 8.68142 16.6668 9.99996C16.6668 11.7681 15.9644 13.4638 14.7141 14.714C13.4639 15.9642 11.7682 16.6666 10.0001 16.6666Z" fill="#9E9E9E"/>
</svg>
