<svg width="26" height="26" viewBox="0 0 26 26" fill="none" xmlns="http://www.w3.org/2000/svg">
<path fill-rule="evenodd" clip-rule="evenodd" d="M25.8546 19.466V23.38C25.8575 24.1148 25.5517 24.8167 25.0123 25.3134C24.4728 25.8101 23.7497 26.0555 23.0206 25.9894C19.0202 25.5532 15.1777 24.1813 11.8016 21.984C8.66054 19.9809 5.9975 17.3083 4.00156 14.1559C1.80453 10.7523 0.437277 6.8771 0.0105609 2.84434C-0.0551239 2.11485 0.187715 1.39125 0.679756 0.850287C1.1718 0.309325 1.86773 0.000818048 2.59756 0.000128275H6.49756C7.80258 -0.0127622 8.91491 0.947285 9.09756 2.24418C9.26217 3.49676 9.56744 4.72664 10.0076 5.91034C10.3647 6.8639 10.1363 7.93887 9.42256 8.66322L7.77156 10.3202C9.62218 13.5865 12.317 16.291 15.5716 18.1483L17.2226 16.4913C17.9443 15.775 19.0154 15.5458 19.9656 15.9042C21.145 16.3459 22.3705 16.6523 23.6186 16.8175C24.9258 17.0026 25.8873 18.1415 25.8546 19.466Z" fill="white"/>
</svg>
