<svg width="23" height="23" viewBox="0 0 23 23" fill="none" xmlns="http://www.w3.org/2000/svg">
<path fill-rule="evenodd" clip-rule="evenodd" d="M22.2278 18.3679L15.3207 11.4608L22.1496 4.63185C23.2607 3.52076 23.1885 1.8109 22.1887 0.811135C21.189 -0.18863 19.4791 -0.260861 18.368 0.850237L11.5391 7.67915L4.63199 0.772033C3.63222 -0.227732 1.92237 -0.299962 0.81127 0.811135C-0.299828 1.92223 -0.227597 3.63209 0.772168 4.63185L7.67928 11.539L0.850373 18.3679C-0.260724 19.479 -0.188495 21.1888 0.81127 22.1886C1.81104 23.1884 3.52089 23.2606 4.63199 22.1495L11.4609 15.3206L18.368 22.2277C19.3678 23.2275 21.0776 23.2997 22.1887 22.1886C23.2998 21.0775 23.2276 19.3676 22.2278 18.3679ZM1.95649 1.95636C1.9565 1.95635 1.95648 1.95637 1.95649 1.95636C1.54653 2.36631 1.54802 3.03243 1.95981 3.44422L10.0121 11.4965L1.99559 19.5131C1.9956 19.5131 1.99558 19.5131 1.99559 19.5131L10.0121 11.4965L1.95981 3.44422C1.54802 3.03243 1.54653 2.36631 1.95649 1.95636Z" fill="#0E82FD"/>
</svg>
