<svg width="14" height="20" viewBox="0 0 14 20" fill="none" xmlns="http://www.w3.org/2000/svg">
<path fill-rule="evenodd" clip-rule="evenodd" d="M7.30528 14.7065C6.99429 14.5355 6.61831 14.5385 6.31532 14.7195L2.56747 16.9194L4.03541 11.2096C4.91038 11.7096 5.92133 11.9996 6.99929 11.9996C8.07725 11.9996 9.08821 11.7096 9.96417 11.2096L11.4531 17.0014L7.30528 14.7065ZM6.99942 1.99986C9.20533 1.99986 10.9993 3.79379 10.9993 5.9997C10.9993 8.20562 9.20533 9.99954 6.99942 9.99954C4.79351 9.99954 2.99958 8.20562 2.99958 5.9997C2.99958 3.79379 4.79351 1.99986 6.99942 1.99986ZM13.9682 18.7503L11.6592 9.77161C12.4952 8.73965 12.9992 7.4287 12.9992 5.99976C12.9992 2.69089 10.3083 0 6.99944 0C3.69157 0 0.999675 2.69089 0.999675 5.99976C0.999675 7.4287 1.50366 8.73965 2.33962 9.77161L0.0317142 18.7503C-0.0692818 19.1422 0.0757124 19.5552 0.3987 19.7982C0.720687 20.0412 1.15867 20.0632 1.50566 19.8612L6.83544 16.7323L12.5152 19.8742C12.6662 19.9582 12.8332 19.9992 12.9992 19.9992C13.2162 19.9992 13.4322 19.9292 13.6122 19.7902C13.9272 19.5462 14.0682 19.1372 13.9682 18.7503Z" fill="#E8899E"/>
</svg>
