<svg width="21" height="21" viewBox="0 0 21 21" fill="none" xmlns="http://www.w3.org/2000/svg">
<path fill-rule="evenodd" clip-rule="evenodd" d="M19.5124 19.2954C19.2665 19.54 18.8395 19.54 18.5936 19.2954L13.3574 14.0591C13.312 14.015 13.2954 13.9845 13.2928 13.9845C13.2941 13.9706 13.312 13.8363 13.6831 13.4661C14.0519 13.0963 14.1862 13.0784 14.1901 13.0758C14.1989 13.0784 14.2294 13.0963 14.2761 13.1417L19.5111 18.378C19.634 18.5009 19.7012 18.6644 19.7012 18.838C19.7025 19.0089 19.634 19.175 19.5124 19.2954ZM1.29735 7.94727C1.29735 4.28014 4.28004 1.29745 7.94717 1.29745C11.614 1.29745 14.597 4.28014 14.597 7.94727C14.597 11.6141 11.6127 14.5971 7.94717 14.5971C4.28004 14.5971 1.29735 11.6141 1.29735 7.94727ZM20.4296 17.4608L15.1937 12.225C15.0812 12.1121 14.953 12.0161 14.8139 11.9398C15.522 10.7286 15.8947 9.34998 15.8947 7.94735C15.8947 3.56431 12.3288 0 7.94735 0C3.56431 0 0 3.56431 0 7.94735C0 12.3288 3.56431 15.8947 7.94735 15.8947C9.50698 15.8947 10.9618 15.4409 12.1909 14.6604C12.2581 14.7707 12.3405 14.8771 12.4404 14.977L17.6775 20.2129C18.0411 20.5791 18.5365 20.7844 19.0535 20.7831C19.5706 20.7844 20.0659 20.5791 20.4296 20.2129C20.7958 19.8492 21.0011 19.3539 20.9998 18.8368C21.0011 18.3211 20.7958 17.8257 20.4296 17.4608Z" fill="#878B91"/>
</svg>
