<svg width="18" height="15" viewBox="0 0 18 15" fill="none" xmlns="http://www.w3.org/2000/svg">
<path d="M8.88524 0.313814C9.30366 -0.104605 9.98205 -0.104605 10.4005 0.313814L16.829 6.74239C17.03 6.94332 17.1429 7.21584 17.1429 7.5C17.1429 7.78416 17.03 8.05668 16.829 8.25762L10.4005 14.6862C9.98205 15.1046 9.30366 15.1046 8.88524 14.6862C8.46682 14.2678 8.46682 13.5894 8.88524 13.171L13.4848 8.57143L1.07143 8.57143C0.479695 8.57143 0 8.09173 0 7.5C0 6.90827 0.479695 6.42857 1.07143 6.42857L13.4848 6.42857L8.88524 1.82904C8.46682 1.41062 8.46682 0.732233 8.88524 0.313814Z" fill="white"/>
</svg>
