<svg width="23" height="23" viewBox="0 0 23 23" fill="none" xmlns="http://www.w3.org/2000/svg">
<path d="M13.1576 3.36383L14.8442 6.73713C15.0742 7.20671 15.6875 7.65712 16.205 7.74337L19.2621 8.25128C21.2171 8.57711 21.6771 9.99543 20.2683 11.3946L17.8917 13.7712C17.4892 14.1737 17.2688 14.95 17.3934 15.5058L18.0738 18.4478C18.6104 20.7766 17.3742 21.6774 15.3138 20.4603L12.4484 18.7641C11.9309 18.4574 11.078 18.4574 10.5509 18.7641L7.68555 20.4603C5.63473 21.6774 4.38891 20.767 4.92557 18.4478L5.60598 15.5058C5.73057 14.95 5.51015 14.1737 5.10766 13.7712L2.73101 11.3946C1.33186 9.99543 1.78227 8.57711 3.73725 8.25128L6.7943 7.74337C7.30222 7.65712 7.91554 7.20671 8.14554 6.73713L9.83219 3.36383C10.7522 1.53343 12.2472 1.53343 13.1576 3.36383Z" fill="#E0E0E0"/>
</svg>
