<svg width="20" height="35" viewBox="0 0 20 35" fill="none" xmlns="http://www.w3.org/2000/svg">
<path opacity="0.4" d="M9.65517 35.0001C14.9876 35.0001 19.3103 32.512 19.3103 29.4427C19.3103 26.3734 14.9876 23.8853 9.65517 23.8853C4.32277 23.8853 0 26.3734 0 29.4427C0 32.512 4.32277 35.0001 9.65517 35.0001Z" fill="#D6D8E5"/>
<path d="M19.31 9.2229H1.60889C1.60889 9.2229 1.66935 24.7966 1.62377 27.7516C1.612 27.8845 1.60858 28.018 1.61354 28.1513C1.61354 28.1793 1.61354 28.2006 1.60889 28.2141H1.61633C1.68609 29.5135 2.5465 30.7994 4.20127 31.7908C7.65686 33.8616 13.2639 33.8616 16.7149 31.7957C18.3696 30.8042 19.2263 29.5183 19.2998 28.2189H19.31V9.2229Z" fill="#ADB3BC"/>
<path d="M10.4595 14.4256C15.3475 14.4256 19.31 12.0433 19.31 9.10464C19.31 6.16596 15.3475 3.78369 10.4595 3.78369C5.57142 3.78369 1.60889 6.16596 1.60889 9.10464C1.60889 12.0433 5.57142 14.4256 10.4595 14.4256Z" fill="#8C50FF"/>
<path d="M19.7711 9.9857C19.6778 10.238 19.5595 10.4798 19.4182 10.7072C19.1358 11.1566 18.7897 11.56 18.3914 11.9038C18.2738 12.0106 18.1496 12.1135 18.018 12.2145C17.7561 12.4166 17.4824 12.602 17.1984 12.7695C17.1368 12.8061 17.0762 12.8417 17.0117 12.8763C16.8857 12.9485 16.755 13.0187 16.6216 13.085C16.3032 13.2457 15.9681 13.3938 15.6256 13.5256C15.4977 13.5756 15.3689 13.6218 15.2372 13.668C14.9077 13.7824 14.5689 13.8825 14.2216 13.971C14.1049 14.0018 13.9873 14.0306 13.8688 14.0566C13.529 14.1348 13.1849 14.199 12.8364 14.249C12.7178 14.2673 12.6002 14.2846 12.4816 14.299C12.14 14.342 11.7977 14.374 11.4548 14.3952C11.3372 14.4019 11.2196 14.4087 11.1001 14.4116C10.7566 14.4269 10.4122 14.4289 10.0733 14.4212C9.95476 14.4212 9.83714 14.4144 9.7186 14.4087C9.37321 14.3923 9.02877 14.3663 8.68618 14.3269C8.56763 14.3134 8.44909 14.3 8.33147 14.2827C7.98422 14.2365 7.63977 14.1768 7.29999 14.1066C7.18144 14.0826 7.06289 14.0556 6.94621 14.0287C6.5946 13.946 6.25078 13.8498 5.91473 13.7401C5.79618 13.7016 5.6767 13.6612 5.56002 13.6199C5.20437 13.4929 4.85898 13.3505 4.5276 13.1928C4.40812 13.137 4.28957 13.0783 4.17476 13.0177C4.01731 12.9356 3.8636 12.85 3.71362 12.7609C3.512 12.6406 3.3225 12.5175 3.14234 12.3886C3.01913 12.303 2.90058 12.2135 2.78763 12.1222C2.40281 11.8183 2.05603 11.4664 1.75522 11.0746C1.62573 10.9038 1.50813 10.7238 1.4033 10.5359C0.305547 8.563 1.07566 6.30343 3.71362 4.73355C7.43814 2.52111 13.4786 2.52111 17.205 4.73355C18.2533 5.35688 19.0047 6.08795 19.464 6.86808C19.586 7.07446 19.6897 7.29178 19.7739 7.51738C20.0762 8.31085 20.0752 9.19296 19.7711 9.9857Z" fill="#EF990F"/>
<path d="M0.919434 8.51346C0.919434 8.46742 0.919434 5.91211 0.919434 5.91211L3.90794 7.21278L0.919434 8.51346Z" fill="#EF990F"/>
<path d="M19.9998 5.91211L19.9971 8.53256L18.2861 9.93238L17.2412 7.52927L19.9998 5.91211Z" fill="#EF990F"/>
<path d="M1.83877 7.33105V11.1148C1.75419 10.9372 1.67737 10.75 1.60889 10.5546V7.33105H1.83877Z" fill="#DD8910"/>
<path d="M3.21817 8.27686V12.0606C3.13831 11.976 3.06148 11.8875 2.98828 11.7972V8.27686H3.21817Z" fill="#DD8910"/>
<path d="M4.59756 9.69604V13.0069C4.51972 12.9561 4.44248 12.9027 4.36768 12.8475V9.69604H4.59756Z" fill="#DD8910"/>
<path d="M5.97686 9.93237V13.4797C5.8232 13.4433 5.66833 13.4051 5.51709 13.366V9.93692L5.97686 9.93237Z" fill="#DD8910"/>
<path d="M7.35625 10.4055V13.7163C7.20219 13.6943 7.04812 13.6697 6.89648 13.6451V10.4055H7.35625Z" fill="#DD8910"/>
<path d="M8.50576 10.6418V14.4256C8.42893 14.411 8.3521 14.3963 8.27588 14.3775V10.6418H8.50576Z" fill="#DD8910"/>
<path d="M9.88516 10.6418V14.4256C9.80833 14.4256 9.7321 14.4185 9.65527 14.4124V10.6418H9.88516Z" fill="#DD8910"/>
<path d="M11.7243 10.6418V14.4083C11.4956 14.4154 11.267 14.4226 11.0347 14.4256V10.6449L11.7243 10.6418Z" fill="#DD8910"/>
<path d="M12.6439 10.6418V14.1396C12.4902 14.1577 12.3377 14.1748 12.1841 14.1891V10.6418H12.6439Z" fill="#DD8910"/>
<path d="M14.2528 10.4055V13.6401C14.1768 13.6675 14.1002 13.6932 14.0229 13.7163V10.4055H14.2528Z" fill="#DD8910"/>
<path d="M15.6322 9.69604V13.3396C15.5565 13.3889 15.4803 13.4344 15.4023 13.4798V9.69604H15.6322Z" fill="#DD8910"/>
<path d="M17.0115 8.98633V12.8C16.863 12.8714 16.709 12.9409 16.5518 13.0066V8.98633H17.0115Z" fill="#DD8910"/>
<path d="M18.3909 7.8042V11.7359C18.2461 11.8476 18.0932 11.9553 17.9312 12.061V7.8042H18.3909Z" fill="#DD8910"/>
<path d="M19.5404 6.62158V9.88464C19.4797 10.1495 19.4026 10.4032 19.3105 10.6419V6.62158H19.5404Z" fill="#DD8910"/>
<path d="M10.4597 11.3514C15.7286 11.3514 19.9999 8.81027 19.9999 5.67568C19.9999 2.54109 15.7286 0 10.4597 0C5.19074 0 0.919434 2.54109 0.919434 5.67568C0.919434 8.81027 5.19074 11.3514 10.4597 11.3514Z" fill="#FCA70D"/>
<path d="M16.8142 15.9443C13.3051 18.0236 7.61575 18.0236 4.10657 15.9443L3.94221 15.8474L3.9082 15.8687V23.1496C3.97244 23.1903 4.03856 23.231 4.10657 23.2708C7.61575 25.351 13.3051 25.351 16.8142 23.2708C16.8822 23.231 16.9465 23.1894 17.0117 23.1477V15.8668L16.9767 15.8445C16.9238 15.8794 16.87 15.9114 16.8142 15.9443Z" fill="#ECE8F9"/>
<path d="M11.9541 19.0549C9.49395 19.2564 6.89445 18.9764 4.82764 18.2095V18.956C6.89445 19.7214 9.49681 20.003 11.9541 19.8022V19.0549Z" fill="#111111"/>
<path d="M11.9541 20.7153C9.49395 20.9735 6.89445 20.6145 4.82764 19.6284V20.5883C6.89254 21.5724 9.49395 21.9343 11.9541 21.6762V20.7153Z" fill="#111111"/>
<path d="M14.2529 18.433V21.2838C14.4544 21.2168 14.7072 21.132 14.9426 21.0499V18.2095H14.933C14.7185 18.2962 14.4449 18.3792 14.2529 18.433Z" fill="#111111"/>
<path d="M15.6323 18.9189C14.8912 19.2473 14.1209 19.493 13.3335 19.6522V20.5744C14.1209 20.4151 14.8912 20.1694 15.6323 19.8411V18.9189Z" fill="#111111"/>
</svg>
