<svg width="27" height="27" viewBox="0 0 27 27" fill="none" xmlns="http://www.w3.org/2000/svg">
<path d="M24.475 23.1823L20.6079 19.4016L20.5173 19.2637C20.3488 19.0959 20.1183 19.0014 19.8778 19.0014C19.6373 19.0014 19.4069 19.0959 19.2383 19.2637C15.9519 22.2788 10.8879 22.4426 7.40476 19.6467C3.9216 16.8507 3.10013 11.9625 5.48515 8.22395C7.87017 4.48535 12.7216 3.05646 16.822 4.88491C20.9223 6.71336 22.9993 11.2318 21.6754 15.4435C21.5801 15.7478 21.658 16.0787 21.8798 16.3116C22.1017 16.5444 22.4337 16.6439 22.7509 16.5725C23.0681 16.5011 23.3223 16.2696 23.4176 15.9654C25.0002 10.9672 22.61 5.58851 17.7931 3.3087C12.9763 1.02889 7.17845 2.53218 4.15019 6.8461C1.12194 11.16 1.77208 16.9899 5.68006 20.5644C9.58803 24.139 15.581 24.3854 19.7821 21.1443L23.2061 24.4918C23.5597 24.8361 24.1314 24.8361 24.4851 24.4918C24.8383 24.1427 24.8383 23.5807 24.4851 23.2316L24.475 23.1823Z" fill="#8C98BE"/>
</svg>
