<svg width="24" height="20" viewBox="0 0 24 20" fill="none" xmlns="http://www.w3.org/2000/svg">
<path d="M21.5597 2.88753V8.2219H16.2253" stroke="white" stroke-width="2" stroke-linecap="round" stroke-linejoin="round"/>
<path d="M2.00039 17.1126V11.7782H7.33477" stroke="white" stroke-width="2" stroke-linecap="round" stroke-linejoin="round"/>
<path d="M10.2301 3.17337L10.4508 4.14891L10.2301 3.17337ZM16.7271 5.05265L16.0197 5.75972L16.0197 5.75974L16.7271 5.05265ZM5.17484 7.66649L6.11774 8.00016L5.17484 7.66649ZM3.89828 8.27573L3.56462 9.21863H3.56462L3.89828 8.27573ZM3.28904 6.99917L4.23194 7.33283L3.28904 6.99917ZM9.7886 1.2223L10.0093 2.19784L9.7886 1.2223ZM18.1305 3.62711L17.4244 4.33544C17.4313 4.3424 17.4384 4.34926 17.4456 4.35601L18.1305 3.62711ZM22.2447 7.493L22.9296 6.7641L22.2447 7.493ZM22.2887 8.90681L21.5598 8.22189L21.5598 8.2219L22.2887 8.90681ZM20.8749 8.95079L20.1899 9.67969V9.67969L20.8749 8.95079ZM16.7496 5.07448L17.4345 4.34558L17.4345 4.34558L16.7496 5.07448ZM2.6853 11.0493L3.37021 10.3204L2.6853 11.0493ZM1.2715 11.0932L0.542603 10.4083L0.542603 10.4083L1.2715 11.0932ZM6.81055 14.9256L6.12564 15.6545L6.12565 15.6545L6.81055 14.9256ZM6.83307 14.9474L7.54049 14.2403L7.54047 14.2403L6.83307 14.9474ZM13.3301 16.8267L13.5508 17.8022L13.3301 16.8267ZM18.3853 12.3335L17.4424 11.9999V11.9999L18.3853 12.3335ZM19.6619 11.7243L19.9955 10.7814V10.7814L19.6619 11.7243ZM20.2711 13.0009L19.3282 12.6672V12.6672L20.2711 13.0009ZM13.7716 18.7777L13.5508 17.8022L13.7716 18.7777ZM5.42964 16.3729L6.1358 15.6646C6.12882 15.6576 6.12173 15.6508 6.11455 15.644L5.42964 16.3729ZM1.31548 12.507L0.630573 13.2359L1.31548 12.507ZM10.4508 4.14891C12.4605 3.69418 14.563 4.30233 16.0197 5.75972L17.4345 4.34558C15.4923 2.4024 12.689 1.59153 10.0093 2.19784L10.4508 4.14891ZM6.11774 8.00016C6.80513 6.05765 8.44104 4.60364 10.4508 4.14891L10.0093 2.19784C7.32967 2.80414 5.14846 4.74283 4.23194 7.33283L6.11774 8.00016ZM3.56462 9.21863C4.60612 9.58719 5.74919 9.04165 6.11774 8.00016L4.23194 7.33283H4.23194L3.56462 9.21863ZM2.34614 6.66551C1.97759 7.70701 2.52312 8.85008 3.56462 9.21863L4.23194 7.33283H4.23194L2.34614 6.66551ZM9.56787 0.246766C6.2183 1.00465 3.49179 3.428 2.34614 6.66551L4.23194 7.33283C5.14846 4.74283 7.32967 2.80414 10.0093 2.19784L9.56787 0.246766ZM18.8367 2.91878C16.4094 0.498945 12.9116 -0.509797 9.56787 0.246766L10.0093 2.19784C12.6843 1.59259 15.4826 2.39958 17.4244 4.33544L18.8367 2.91878ZM22.9296 6.7641L18.8154 2.89822L17.4456 4.35601L21.5598 8.2219L22.9296 6.7641ZM23.0176 9.59172C23.7741 8.7866 23.7347 7.52064 22.9296 6.7641L21.5598 8.2219L21.5598 8.22189L23.0176 9.59172ZM20.1899 9.67969C20.9951 10.4362 22.261 10.3968 23.0176 9.59172L21.5598 8.2219V8.2219L20.1899 9.67969ZM16.0647 5.80337L20.1899 9.67969L21.5598 8.2219L17.4345 4.34558L16.0647 5.80337ZM16.0197 5.75974C16.0345 5.77451 16.0495 5.78906 16.0647 5.80338L17.4345 4.34558L17.4345 4.34557L16.0197 5.75974ZM3.37021 10.3204C2.5651 9.56382 1.29913 9.60321 0.542603 10.4083L2.00039 11.7781H2.00039L3.37021 10.3204ZM7.49546 14.1967L3.37021 10.3204L2.00039 11.7781L6.12564 15.6545L7.49546 14.1967ZM7.54047 14.2403C7.52572 14.2255 7.51072 14.211 7.49546 14.1967L6.12565 15.6545L6.12566 15.6545L7.54047 14.2403ZM13.1094 15.8511C11.0996 16.3059 8.99715 15.6977 7.54049 14.2403L6.12564 15.6545C8.06785 17.5976 10.8712 18.4085 13.5508 17.8022L13.1094 15.8511ZM17.4424 11.9999C16.755 13.9424 15.1191 15.3964 13.1094 15.8511L13.5508 17.8022C16.2305 17.1959 18.4117 15.2572 19.3282 12.6672L17.4424 11.9999ZM19.9955 10.7814C18.954 10.4129 17.811 10.9584 17.4424 11.9999L19.3282 12.6672H19.3282L19.9955 10.7814ZM21.214 13.3345C21.5826 12.293 21.037 11.15 19.9955 10.7814L19.3282 12.6672L21.214 13.3345ZM13.9923 19.7533C17.3419 18.9954 20.0684 16.572 21.214 13.3345L19.3282 12.6672C18.4117 15.2572 16.2305 17.1959 13.5508 17.8022L13.9923 19.7533ZM4.72348 17.0813C7.15076 19.5011 10.6486 20.5098 13.9923 19.7533L13.5508 17.8022C10.8759 18.4075 8.07761 17.6005 6.1358 15.6646L4.72348 17.0813ZM0.630573 13.2359L4.74473 17.1018L6.11455 15.644L2.00039 11.7781L0.630573 13.2359ZM0.542603 10.4083C-0.213928 11.2134 -0.174543 12.4794 0.630573 13.2359L2.00039 11.7781H2.00039L0.542603 10.4083Z" fill="white"/>
</svg>
