<svg width="16" height="14" viewBox="0 0 16 14" fill="none" xmlns="http://www.w3.org/2000/svg">
<path d="M13.9852 4.4486e-05C14.5151 4.4486e-05 15.0232 0.184419 15.3979 0.512607C15.7726 0.840794 15.9831 1.28591 15.9831 1.75004L15.9831 12.25C15.9831 12.7141 15.7726 13.1593 15.3979 13.4874C15.0232 13.8156 14.5151 14 13.9852 14L1.99788 14C1.46801 14 0.959838 13.8156 0.585162 13.4874C0.210486 13.1593 -5.05523e-06 12.7141 -5.05523e-06 12.25L-5.05523e-06 1.75004C-5.05523e-06 1.28591 0.210486 0.840794 0.585162 0.512607C0.959838 0.184419 1.46801 4.4486e-05 1.99788 4.4486e-05L13.9852 4.4486e-05ZM5.89775 9.45264L9.98942 5.86865V8.29064C9.98942 8.40667 10.042 8.51795 10.1357 8.6C10.2294 8.68205 10.3564 8.72814 10.4889 8.72814C10.6214 8.72814 10.7484 8.68205 10.8421 8.6C10.9357 8.51795 10.9884 8.40667 10.9884 8.29064V4.81253C10.9884 4.6965 10.9357 4.58522 10.8421 4.50317C10.7484 4.42112 10.6214 4.37503 10.4889 4.37503L6.51809 4.37503C6.38563 4.37503 6.25858 4.42112 6.16492 4.50317C6.07125 4.58522 6.01862 4.6965 6.01862 4.81253C6.01862 4.92856 6.07125 5.03984 6.16492 5.12189C6.25858 5.20393 6.38563 5.25003 6.51809 5.25003L9.28317 5.25003L5.1915 8.83402C5.14379 8.87437 5.10574 8.92265 5.07957 8.97603C5.05339 9.0294 5.03961 9.08681 5.03904 9.1449C5.03846 9.20299 5.0511 9.2606 5.07621 9.31437C5.10132 9.36814 5.13841 9.41698 5.18531 9.45806C5.2322 9.49914 5.28797 9.53163 5.34936 9.55362C5.41074 9.57562 5.47651 9.58669 5.54283 9.58619C5.60915 9.58568 5.67469 9.57361 5.73562 9.55068C5.79656 9.52775 5.85168 9.49442 5.89775 9.45264Z" fill="#00A81B" fill-opacity="0.75"/>
</svg>
