<svg width="399" height="62" viewBox="0 0 399 62" fill="none" xmlns="http://www.w3.org/2000/svg">
<path fill-rule="evenodd" clip-rule="evenodd" d="M30.7506 61.5013C47.7337 61.5013 61.5013 47.7337 61.5013 30.7506C61.5013 13.7675 47.7337 0 30.7506 0C13.7675 0 0 13.7675 0 30.7506C0 47.7337 13.7675 61.5013 30.7506 61.5013Z" fill="#D9E4FF"/>
<path fill-rule="evenodd" clip-rule="evenodd" d="M42.819 28.4796L31.5004 18.8774C30.8287 18.308 29.8436 18.308 29.1719 18.8774L17.8534 28.4796C17.2913 28.9585 17.0787 29.732 17.3169 30.431C17.5552 31.1299 18.1961 31.6125 18.9336 31.6483V41.2504C18.9336 42.2448 19.7397 43.0508 20.734 43.0508H39.9383C40.9327 43.0508 41.7387 42.2448 41.7387 41.2504V31.6543C42.4763 31.6185 43.1172 31.1359 43.3554 30.437C43.5937 29.738 43.3811 28.9645 42.819 28.4856V28.4796ZM29.7361 41.2565H28.5358V35.8553H32.1366V41.2565H29.7361ZM39.9383 29.8539V41.2564H33.937V35.8552C33.937 34.8609 33.1309 34.0548 32.1366 34.0548H28.5358C27.5415 34.0548 26.7354 34.8609 26.7354 35.8552V41.2564H20.734V29.8539H19.0177L30.3362 20.2517L41.6547 29.8539H39.9383Z" fill="#504DE5"/>
<path fill-rule="evenodd" clip-rule="evenodd" d="M172.738 41.508L167.197 35.9965C171.08 32.0897 171.198 25.8183 167.465 21.7677C163.732 17.7172 157.472 17.3238 153.262 20.8752C149.051 24.4266 148.384 30.6635 151.747 35.0257C155.11 39.3879 161.312 40.3286 165.817 37.16L171.467 42.8095C171.821 43.1397 172.374 43.13 172.716 42.7874C173.059 42.4448 173.069 41.8925 172.738 41.538V41.508ZM151.562 28.7998C151.562 24.1627 155.321 20.4036 159.958 20.4036C164.595 20.4036 168.354 24.1627 168.354 28.7998C168.354 33.4369 164.595 37.196 159.958 37.196C155.321 37.196 151.562 33.4369 151.562 28.7998Z" fill="#989BA5"/>
<path fill-rule="evenodd" clip-rule="evenodd" d="M284.497 30.5925C284.252 30.3473 283.927 30.2049 283.587 30.2049C283.215 30.2049 282.891 30.3473 282.662 30.5925C282.417 30.814 282.29 31.1462 282.29 31.5022C282.29 31.8581 282.417 32.1745 282.662 32.4118C282.891 32.6491 283.215 32.7836 283.587 32.7836C283.927 32.7836 284.252 32.6491 284.497 32.4118C284.726 32.1745 284.869 31.8581 284.869 31.5022C284.869 31.1462 284.726 30.814 284.497 30.5925ZM261.913 19.7555H261.154C260.933 19.7555 260.751 19.8426 260.608 19.977C260.474 20.1194 260.395 20.3013 260.395 20.507C260.395 20.7206 260.474 20.9183 260.608 21.0528C260.751 21.1952 260.933 21.2743 261.154 21.2743H261.913V19.7555ZM283.587 28.0296C284.529 28.0296 285.399 28.4172 286.024 29.05C286.648 29.6828 287.036 30.5292 287.036 31.5021C287.036 32.4592 286.648 33.3294 286.024 33.9543C285.399 34.5792 284.529 34.9668 283.587 34.9668C282.614 34.9668 281.744 34.5792 281.119 33.9543C280.906 33.7407 280.708 33.4796 280.55 33.2186C280.146 33.5429 279.79 33.9463 279.521 34.3814C279.055 35.117 278.778 35.9951 278.778 36.9364V36.9522V36.968V36.9838C278.762 38.6608 278.082 40.1558 276.982 41.2711C275.883 42.3627 274.364 43.0509 272.679 43.0509C270.994 43.0509 269.46 42.3627 268.368 41.2711C267.253 40.1558 266.573 38.6371 266.573 36.9522V34.0175C264.579 33.8514 262.807 32.9892 261.471 31.6603C259.991 30.189 259.082 28.1482 259.082 25.8938V20.5466V20.507C259.082 19.9454 259.311 19.4392 259.699 19.0674C260.07 18.6798 260.585 18.4504 261.154 18.4504H262.57C262.918 18.4504 263.227 18.7431 263.227 19.099V19.1149V21.9229C263.227 22.2868 262.918 22.5874 262.57 22.5874H262.546H261.257V25.8938C261.257 27.5391 261.921 29.0342 263.005 30.1099C264.089 31.1936 265.584 31.8739 267.213 31.8739H268.985C270.623 31.8739 272.125 31.1936 273.201 30.1099C274.277 29.0342 274.941 27.5391 274.941 25.8938V22.5874H273.66H273.644C273.28 22.5874 272.988 22.2868 272.988 21.9229V19.1149V19.099C272.988 18.7431 273.28 18.4504 273.644 18.4504H275.06C275.63 18.4504 276.152 18.6798 276.524 19.0674C276.895 19.4392 277.125 19.9454 277.125 20.507V20.5466V25.8938C277.125 28.1482 276.215 30.189 274.736 31.6603C273.265 33.1237 271.224 34.0413 268.985 34.0413H267.87V36.9522C267.87 38.2732 268.416 39.4755 269.27 40.3377C270.156 41.2078 271.35 41.7457 272.679 41.7457C274.008 41.7457 275.187 41.2078 276.065 40.3377C276.927 39.4755 277.465 38.289 277.465 36.968V36.9522V36.9364C277.481 35.734 277.821 34.6266 278.406 33.6853C278.849 32.9892 279.434 32.3722 280.123 31.9134C280.123 31.7711 280.107 31.6287 280.107 31.5021C280.107 30.5292 280.494 29.6828 281.119 29.05C281.744 28.4172 282.614 28.0296 283.587 28.0296ZM275.06 19.7555H274.301V21.2743H275.06C275.274 21.2743 275.456 21.1952 275.598 21.0528C275.732 20.9183 275.827 20.7206 275.827 20.507C275.827 20.3013 275.732 20.1194 275.598 19.977C275.456 19.8426 275.274 19.7555 275.06 19.7555Z" fill="#989BA5"/>
<path fill-rule="evenodd" clip-rule="evenodd" d="M386.069 34.2263C389.544 34.2263 392.377 30.8327 392.377 26.657C392.377 22.4812 389.544 19.0876 386.069 19.0876C382.593 19.0876 379.761 22.4812 379.761 26.657C379.761 30.8327 382.599 34.2263 386.069 34.2263ZM386.069 20.9799C388.51 20.9799 390.484 23.5031 390.484 26.657C390.484 29.8109 388.51 32.334 386.069 32.334C383.628 32.334 381.653 29.8109 381.653 26.657C381.653 23.5031 383.628 20.9799 386.069 20.9799Z" fill="#989BA5"/>
<path fill-rule="evenodd" clip-rule="evenodd" d="M391.841 33.5956C391.318 33.5433 390.852 33.9246 390.8 34.4471C390.748 34.9697 391.129 35.4357 391.651 35.4879C394.586 35.8327 396.859 38.2174 397.063 41.165H375.074C375.298 38.226 377.562 35.8516 380.486 35.4879C381.009 35.4357 381.39 34.9697 381.338 34.4471C381.286 33.9246 380.82 33.5433 380.297 33.5956C380.228 33.5956 373.138 34.403 373.138 42.1048C373.138 42.6274 373.562 43.051 374.084 43.051H398.054C398.576 43.051 399 42.6274 399 42.1048C399 34.403 391.91 33.5956 391.841 33.5956Z" fill="#989BA5"/>
</svg>
