<svg width="25" height="24" viewBox="0 0 25 24" fill="none" xmlns="http://www.w3.org/2000/svg">
<path fill-rule="evenodd" clip-rule="evenodd" d="M12.5003 14.6343C15.8601 14.6343 18.5979 11.3538 18.5979 7.31714C18.5979 3.28052 15.8601 0 12.5003 0C9.14048 0 6.40265 3.28052 6.40265 7.31714C6.40265 11.3538 9.14658 14.6343 12.5003 14.6343ZM12.5006 1.82931C14.8604 1.82931 16.7689 4.26835 16.7689 7.31716C16.7689 10.366 14.8604 12.805 12.5006 12.805C10.1408 12.805 8.23226 10.366 8.23226 7.31716C8.23226 4.26835 10.1408 1.82931 12.5006 1.82931Z" fill="#989BA5"/>
<path fill-rule="evenodd" clip-rule="evenodd" d="M18.0794 14.0246C17.5743 13.9741 17.1238 14.3427 17.0733 14.8478C17.0228 15.3529 17.3914 15.8034 17.8965 15.8539C20.7331 16.1872 22.9308 18.4925 23.1283 21.3418H1.87197C2.08812 18.5007 4.27625 16.2055 7.10372 15.8539C7.60887 15.8034 7.97742 15.3529 7.9269 14.8478C7.87639 14.3427 7.42594 13.9741 6.92079 14.0246C6.85372 14.0246 0 14.8051 0 22.2503C0 22.7555 0.409499 23.165 0.914642 23.165H24.0856C24.5907 23.165 25.0002 22.7555 25.0002 22.2503C25.0002 14.8051 18.1465 14.0246 18.0794 14.0246Z" fill="#989BA5"/>
</svg>
