<svg width="15" height="15" viewBox="0 0 15 15" fill="none" xmlns="http://www.w3.org/2000/svg">
<path fill-rule="evenodd" clip-rule="evenodd" d="M10.2629 1.07813V2.32358C12.908 3.56168 14.3143 6.39279 13.654 9.1505C12.9937 11.9082 10.4416 13.8621 7.5 13.8621C4.55838 13.8621 2.00633 11.9082 1.346 9.1505C0.685667 6.39279 2.09195 3.56168 4.73711 2.32358V1.07813C1.39088 2.35388 -0.541236 5.73687 0.133792 9.13819C0.808819 12.5395 3.90058 14.9997 7.5 14.9997C11.0994 14.9997 14.1912 12.5395 14.8662 9.13819C15.5412 5.73687 13.6091 2.35388 10.2629 1.07812V1.07813Z" fill="#F90000"/>
<path fill-rule="evenodd" clip-rule="evenodd" d="M7.10547 0.710063V6.8804C7.10547 7.26011 7.28703 7.59426 7.69752 7.59426C8.108 7.59426 8.28956 7.2753 8.28956 6.8842V0.710063C8.28956 0.33035 8.108 0 7.69752 0C7.28703 0 7.10547 0.315162 7.10547 0.710063Z" fill="#F90000"/>
</svg>
